M48
;Layer_Color=9474304
;FILE_FORMAT=2:5
INCH,LZ
;TYPE=PLATED
T1F00S00C0.00787
T2F00S00C0.01575
T3F00S00C0.15748
%
T01
X0222Y049721
Y0502328
X0229292Y0496892
X02437Y04973
X0252834Y05015
X02595Y04983
X02577Y05079
X02551Y05098
X02506Y051
X02442Y05104
X02365Y05122
X02275Y05101
X0257718Y0514478
X02751Y05091
X02782Y0512
X02828Y05113
X0281407Y0508093
X0288779Y051002
X02956Y05097
X02971Y0505
X02926Y05024
X02882Y0501
X0285995Y0500496
X02881Y04968
X02952Y04929
X03038Y05041
X03115Y0498
X03143Y04894
X03256Y05016
X0331Y05137
X03114Y05116
X0270553Y0494453
X0427Y05356
X0424983Y0538017
X04435Y05371
X045Y05356
X0440367Y0554233
X04337Y05579
X04255Y05671
X04264Y05694
X04215Y05827
Y05851
X0420535Y0587253
X042Y05957
X04265Y05911
X04315Y05934
X0440367Y05897
X04491
X04579Y058955
X04644Y0585
X04629Y05783
X04534Y05761
X04006Y05784
X03999Y05826
X04014Y05859
X04006Y05884
X03949Y05909
X03946Y05859
X04006Y05729
X0391Y05682
X04136Y05579
X03842Y053
X0377863Y05295
X03752Y05189
Y05148
X03643Y05292
X036482Y053862
X03715Y05388
X03589Y0535
X03545Y05432
X03425Y0548
X034103Y055883
X03361Y0561
X0335983Y0567483
X0330095Y0563405
X03256Y05611
X03251Y05685
X0318217Y0563217
X03107Y056
X03115Y05569
X03038Y05547
X03009Y05543
X0303Y05506
X03052Y05527
X02981Y05501
X02989Y0547
X02949Y05426
X0292261Y0540039
X02908Y05353
X02913Y05327
X02934Y05339
X02956Y05352
X02967Y05373
X0296Y05296
Y05272
X02974Y05221
X02971Y05149
X0288105Y0514855
X02859Y05153
X02794Y05169
X02759Y05176
X02777Y05263
X02717Y05258
X02643Y05255
X02744Y05315
X02795Y05313
X02815Y05297
X0282975Y0537386
X02839Y05418
X02844Y05442
X0284418Y0546405
X02848Y05488
X0288788Y0554165
X02909Y05527
X0295Y05531
X02952Y05556
X02884Y05582
X02837Y05575
X02833Y05617
X02811Y05634
X0275935Y0565135
X02723Y0562
X0272479Y0558505
X0274805Y05588
X0275205Y0556595
X02744Y05542
X02761Y055256
X02763Y05503
X02713Y0547
X02683Y05453
X02694Y05426
X02735Y05433
X02718Y05358
X0266375Y05401
X02644Y05478
X0267638Y0549956
X02683Y0553
X02684Y05553
X02689Y05777
X0266Y05806
X0266003Y0585397
X02716Y05855
X02726Y05905
X02737Y05933
X02767Y05914
X02805Y05882
X02815Y05857
X0284982Y0588
X02848Y05832
X0288652Y05853
X0291694Y0583187
X0292787Y0588
X02938Y05906
X0292695Y0593
X02932Y05956
X02979Y05954
X0298778Y0592678
X03053Y05885
X03078Y05999
X03113Y06007
X0309Y05761
X03085Y05692
X03044Y05706
X03035Y05618
X02928Y056307
X02915Y05654
X02919Y05733
X02877Y05718
X02872Y05785
X02945Y05777
X0280382Y0575605
X028Y05734
X0285144Y0593656
X0268554Y0590546
X0266314Y0600782
X02665Y06123
X03389Y05953
X03367Y05871
X03321Y05883
X03425Y0535
X03432Y05296
X03358Y0526254
X03487Y05241
X03027Y05243
X03034Y05182
X03093Y05172
X02864Y05239
X0288771Y0526965
X02912Y05454
X02575Y05438
X02555Y05451
X02506
Y054
X02445Y05402
X02437Y05427
X02374Y0542
X02381Y05392
X0233Y05425
X02307Y0544212
X0226148Y054275
X02212Y0545
X02178Y0547204
X0222075Y05502
X0224007Y0555393
X02165Y05551
Y0563
X02279Y05596
X02342Y05606
X02378Y05618
X0237Y05648
X02455Y05633
X02458Y05718
X02409Y05737
X0239109Y0580309
X02485Y05826
X0248459Y05854
X02539Y05875
X02588Y05882
X02612Y05833
X02605Y05809
X02612Y05771
X02592Y05759
X02593Y05664
X02543Y05673
X02524Y05693
X02526Y05719
X02491Y05754
X02486Y05777
X02529Y05809
X0250777Y0593177
X0261577
X02591Y06017
X02586Y06042
X02581Y061
X024157Y060547
X02437Y06001
X0238
X02372Y05955
X0235Y06066
X02157Y0602
X02158Y05945
X02218Y05958
X0222Y0585428
Y057775
X02257Y05726
X02294Y05758
Y05503
X02374Y05541
X02438
X02473Y05528
X02509Y05506
X02508Y05553
X02557Y05537
X02558Y05505
Y05573
X02607Y05556
X0262Y05616
X0241347Y05579
X02441Y05496
X02398Y05479
X024323Y053413
X02481Y05352
X0255Y05345
X02555Y05368
X02593Y05399
X02602Y05346
X02585Y05261
X02587Y05233
X02535Y05227
X02527Y05254
X02504Y05286
X02519Y05306
X0261826Y0518894
X024Y05153
X02356Y05202
X02231Y05316
T02
X0227275Y0499775
X02259Y0506
X02331Y0508
X02376Y05096
X02368Y05038
X02345Y0501
X02434Y05015
X02435Y05049
X0253287Y0504887
X0251Y05127
X0262Y05104
X0216336Y0512564
X02712Y05117
X02723Y05049
X0279839Y0504047
X03008Y05118
X03078Y0507
X0314932Y0501131
X032Y04923
X0301Y04906
X04248Y05085
X0438Y05042
X04635Y04995
X05103Y04996
X0519888Y0502788
Y0514112
X04985Y05217
X049334Y051796
X047226
X04628Y05206
X047226Y053184
X0473484Y05384
X042784Y053184
X04197Y05323
X0425374Y0549774
X04175Y0546
X04096Y05376
X0401603Y0536203
X0398Y0546
X03975Y0565714
X0381606Y0556594
X03702Y05677
X0365858Y0572658
X03541Y0583
X03509Y05933
X03376Y06057
X03011Y06032
X02984Y06057
X0272259Y0603341
X0274Y05776
X02713Y05705
X03032Y05578
X03117Y05629
X03331Y05587
X0338Y05659
X03388Y05261
X03035Y05273
X02998Y05175
X02827Y0517
X0280883Y0525152
X0273059Y0522841
X03748Y0597
X03975Y05963
X02299Y05985
Y05928
X02266Y06032
X02273Y05631
X0230059Y0522841
X02268Y05152
X02555Y05153
X02592Y05205
T03
X04909Y05574
X03184Y05379
X02588Y0629
M30
