G04 Layer_Color=8421504*
%FSLAX44Y44*%
%MOMM*%
G71*
G01*
G75*
%ADD10R,1.2700X1.0160*%
%ADD11R,1.8500X2.9500*%
%ADD12R,1.2000X0.6000*%
%ADD13R,1.5500X0.6000*%
%ADD14R,1.8000X1.2000*%
%ADD15R,2.5400X0.7112*%
%ADD16O,2.5400X0.7112*%
%ADD17R,1.4823X0.4180*%
%ADD18O,1.4823X0.4180*%
%ADD19R,0.6000X1.5500*%
%ADD20R,1.2000X1.8000*%
%ADD21R,1.0160X1.2700*%
%ADD22R,0.5080X1.2700*%
D10*
X1118531Y1377442D02*
D03*
Y1397762D02*
D03*
X1190752Y1426210D02*
D03*
Y1446530D02*
D03*
X1163320Y1431290D02*
D03*
Y1451610D02*
D03*
X1140714Y1431290D02*
D03*
Y1451610D02*
D03*
X1118531Y1431290D02*
D03*
Y1451610D02*
D03*
X1096772D02*
D03*
Y1431290D02*
D03*
X1190752Y1466850D02*
D03*
Y1487170D02*
D03*
X1163066Y1477518D02*
D03*
Y1497838D02*
D03*
X1140714Y1477518D02*
D03*
Y1497838D02*
D03*
X1118531Y1477518D02*
D03*
Y1497838D02*
D03*
X1096010Y1477518D02*
D03*
Y1497838D02*
D03*
X1160018Y1397762D02*
D03*
Y1377442D02*
D03*
D11*
X1348232Y1296458D02*
D03*
Y1333458D02*
D03*
X1236472Y1296712D02*
D03*
Y1333712D02*
D03*
D12*
X1280868Y1306118D02*
D03*
Y1315618D02*
D03*
Y1325118D02*
D03*
X1305868D02*
D03*
Y1315618D02*
D03*
Y1306118D02*
D03*
D13*
X831576Y1464028D02*
D03*
Y1474028D02*
D03*
Y1484028D02*
D03*
Y1494028D02*
D03*
Y1504028D02*
D03*
X1035200Y1488928D02*
D03*
Y1478928D02*
D03*
Y1468928D02*
D03*
D14*
X806326Y1451028D02*
D03*
Y1517028D02*
D03*
X1060450Y1501928D02*
D03*
Y1455928D02*
D03*
D15*
X880618Y1544828D02*
D03*
D16*
Y1532128D02*
D03*
Y1519428D02*
D03*
Y1506728D02*
D03*
Y1494028D02*
D03*
Y1481328D02*
D03*
Y1468628D02*
D03*
Y1455928D02*
D03*
Y1443228D02*
D03*
Y1430528D02*
D03*
X985218Y1544828D02*
D03*
Y1532128D02*
D03*
Y1519428D02*
D03*
Y1506728D02*
D03*
Y1494028D02*
D03*
Y1481328D02*
D03*
Y1468628D02*
D03*
Y1455928D02*
D03*
Y1443228D02*
D03*
Y1430528D02*
D03*
D17*
X563880Y1538986D02*
D03*
X676437D02*
D03*
X563880Y1436699D02*
D03*
X676437D02*
D03*
X563880Y1334412D02*
D03*
X675530Y1334452D02*
D03*
D18*
X563880Y1532486D02*
D03*
Y1525986D02*
D03*
Y1519486D02*
D03*
Y1512986D02*
D03*
Y1506486D02*
D03*
Y1499986D02*
D03*
Y1493486D02*
D03*
Y1486986D02*
D03*
Y1480486D02*
D03*
Y1473986D02*
D03*
Y1467486D02*
D03*
X631155D02*
D03*
Y1473986D02*
D03*
Y1480486D02*
D03*
Y1486986D02*
D03*
Y1493486D02*
D03*
Y1499986D02*
D03*
Y1506486D02*
D03*
Y1512986D02*
D03*
Y1519486D02*
D03*
Y1525986D02*
D03*
Y1532486D02*
D03*
Y1538986D02*
D03*
X676437Y1532486D02*
D03*
Y1525986D02*
D03*
Y1519486D02*
D03*
Y1512986D02*
D03*
Y1506486D02*
D03*
Y1499986D02*
D03*
Y1493486D02*
D03*
Y1486986D02*
D03*
Y1480486D02*
D03*
Y1473986D02*
D03*
Y1467486D02*
D03*
X743712D02*
D03*
Y1473986D02*
D03*
Y1480486D02*
D03*
Y1486986D02*
D03*
Y1493486D02*
D03*
Y1499986D02*
D03*
Y1506486D02*
D03*
Y1512986D02*
D03*
Y1519486D02*
D03*
Y1525986D02*
D03*
Y1532486D02*
D03*
Y1538986D02*
D03*
X563880Y1430199D02*
D03*
Y1423699D02*
D03*
Y1417199D02*
D03*
Y1410699D02*
D03*
Y1404199D02*
D03*
Y1397699D02*
D03*
Y1391199D02*
D03*
Y1384699D02*
D03*
Y1378199D02*
D03*
Y1371699D02*
D03*
Y1365199D02*
D03*
X631155D02*
D03*
Y1371699D02*
D03*
Y1378199D02*
D03*
Y1384699D02*
D03*
Y1391199D02*
D03*
Y1397699D02*
D03*
Y1404199D02*
D03*
Y1410699D02*
D03*
Y1417199D02*
D03*
Y1423699D02*
D03*
Y1430199D02*
D03*
Y1436699D02*
D03*
X676437Y1430199D02*
D03*
Y1423699D02*
D03*
Y1417199D02*
D03*
Y1410699D02*
D03*
Y1404199D02*
D03*
Y1397699D02*
D03*
Y1391199D02*
D03*
Y1384699D02*
D03*
Y1378199D02*
D03*
Y1371699D02*
D03*
Y1365199D02*
D03*
X743712D02*
D03*
Y1371699D02*
D03*
Y1378199D02*
D03*
Y1384699D02*
D03*
Y1391199D02*
D03*
Y1397699D02*
D03*
Y1404199D02*
D03*
Y1410699D02*
D03*
Y1417199D02*
D03*
Y1423699D02*
D03*
Y1430199D02*
D03*
Y1436699D02*
D03*
X563880Y1327912D02*
D03*
Y1321412D02*
D03*
Y1314912D02*
D03*
Y1308412D02*
D03*
Y1301912D02*
D03*
Y1295412D02*
D03*
Y1288912D02*
D03*
Y1282412D02*
D03*
Y1275912D02*
D03*
Y1269412D02*
D03*
Y1262912D02*
D03*
X631155D02*
D03*
Y1269412D02*
D03*
Y1275912D02*
D03*
Y1282412D02*
D03*
Y1288912D02*
D03*
Y1295412D02*
D03*
Y1301912D02*
D03*
Y1308412D02*
D03*
Y1314912D02*
D03*
Y1321412D02*
D03*
Y1327912D02*
D03*
Y1334412D02*
D03*
X675530Y1327952D02*
D03*
Y1321452D02*
D03*
Y1314952D02*
D03*
Y1308452D02*
D03*
Y1301952D02*
D03*
Y1295452D02*
D03*
Y1288952D02*
D03*
Y1282452D02*
D03*
Y1275952D02*
D03*
Y1269452D02*
D03*
Y1262952D02*
D03*
X742805D02*
D03*
Y1269452D02*
D03*
Y1275952D02*
D03*
Y1282452D02*
D03*
Y1288952D02*
D03*
Y1295452D02*
D03*
Y1301952D02*
D03*
Y1308452D02*
D03*
Y1314952D02*
D03*
Y1321452D02*
D03*
Y1327952D02*
D03*
Y1334452D02*
D03*
D19*
X819866Y1285598D02*
D03*
X809866D02*
D03*
X799866D02*
D03*
X789866D02*
D03*
X896279Y1285718D02*
D03*
X886279D02*
D03*
X876279D02*
D03*
X866279D02*
D03*
X972631D02*
D03*
X962631D02*
D03*
X952631D02*
D03*
X942631D02*
D03*
X1028983D02*
D03*
X1018983D02*
D03*
X1296336Y1277082D02*
D03*
X1286336D02*
D03*
X1080450Y1406114D02*
D03*
X1070450D02*
D03*
X1060450D02*
D03*
X1050450D02*
D03*
X1040450D02*
D03*
X969279D02*
D03*
X959278D02*
D03*
X949278D02*
D03*
X939278D02*
D03*
X929279D02*
D03*
X919279D02*
D03*
X909278D02*
D03*
X899278D02*
D03*
D20*
X832866Y1260348D02*
D03*
X776866D02*
D03*
X909278Y1260468D02*
D03*
X853279D02*
D03*
X985631D02*
D03*
X929631D02*
D03*
X1041983D02*
D03*
X1005983D02*
D03*
X1309336Y1251832D02*
D03*
X1273336D02*
D03*
X1093450Y1380864D02*
D03*
X1027450D02*
D03*
X982279D02*
D03*
X886279D02*
D03*
D21*
X1185926Y1253998D02*
D03*
X1165606D02*
D03*
X1106678Y1255522D02*
D03*
X1086358D02*
D03*
Y1335786D02*
D03*
X1106678D02*
D03*
X1165606Y1332230D02*
D03*
X1185926D02*
D03*
D22*
X1105408Y1280718D02*
D03*
X1096010Y1306118D02*
D03*
X1086358Y1306118D02*
D03*
X1105408D02*
D03*
X1086358Y1280718D02*
D03*
X1166876Y1306118D02*
D03*
X1176274Y1280718D02*
D03*
X1185926Y1280718D02*
D03*
X1166876D02*
D03*
X1185926Y1306118D02*
D03*
M02*
