G04 Layer_Color=65535*
%FSLAX44Y44*%
%MOMM*%
G71*
G01*
G75*
%ADD29C,0.2500*%
%ADD30C,0.1270*%
%ADD31C,0.5000*%
%ADD32C,0.2000*%
%ADD33C,0.2540*%
%ADD34R,3.3274X1.8288*%
%ADD35R,0.5000X0.7620*%
D29*
X847326Y1464028D02*
G03*
X847326Y1464028I-1250J0D01*
G01*
X552719Y1538986D02*
G03*
X552719Y1538986I-1250J0D01*
G01*
X665275D02*
G03*
X665275Y1538986I-1250J0D01*
G01*
X552719Y1436699D02*
G03*
X552719Y1436699I-1250J0D01*
G01*
X665275D02*
G03*
X665275Y1436699I-1250J0D01*
G01*
X552719Y1334412D02*
G03*
X552719Y1334412I-1250J0D01*
G01*
X664369Y1334452D02*
G03*
X664369Y1334452I-1250J0D01*
G01*
X821116Y1299098D02*
G03*
X821116Y1299098I-1250J0D01*
G01*
X897529Y1299218D02*
G03*
X897529Y1299218I-1250J0D01*
G01*
X973881D02*
G03*
X973881Y1299218I-1250J0D01*
G01*
X1029983Y1299968D02*
G03*
X1029983Y1299968I-1250J0D01*
G01*
X1297336Y1291332D02*
G03*
X1297336Y1291332I-1250J0D01*
G01*
X1081700Y1420614D02*
G03*
X1081700Y1420614I-1250J0D01*
G01*
X1022950Y1489178D02*
G03*
X1022950Y1489178I-1250J0D01*
G01*
X979279Y1409364D02*
G03*
X979279Y1409364I-1250J0D01*
G01*
D30*
X874014Y1553210D02*
G03*
X864616Y1543812I0J-9398D01*
G01*
X1109641Y1369822D02*
X1127421Y1369822D01*
X1109641Y1405382D02*
X1127421D01*
X1127421Y1369822D01*
X1109641Y1369822D02*
Y1405382D01*
X1181862Y1418590D02*
X1199642Y1418590D01*
X1181862Y1454150D02*
X1199642D01*
X1199642Y1418590D01*
X1181862Y1418590D02*
Y1454150D01*
X1154430Y1423670D02*
X1172210Y1423670D01*
X1154430Y1459230D02*
X1172210D01*
X1172210Y1423670D01*
X1154430Y1423670D02*
Y1459230D01*
X1131824Y1423670D02*
X1149604Y1423670D01*
X1131824Y1459230D02*
X1149604D01*
X1149604Y1423670D01*
X1131824Y1423670D02*
Y1459230D01*
X1109641Y1423670D02*
X1127421Y1423670D01*
X1109641Y1459230D02*
X1127421D01*
X1127421Y1423670D01*
X1109641Y1423670D02*
Y1459230D01*
X1087882D02*
X1105662Y1459230D01*
X1087882Y1423670D02*
X1105662D01*
X1087882Y1459230D02*
X1087882Y1423670D01*
X1105662D02*
Y1459230D01*
X1181862Y1459230D02*
X1199642Y1459230D01*
X1181862Y1494790D02*
X1199642D01*
X1199642Y1459230D01*
X1181862Y1459230D02*
Y1494790D01*
X1154176Y1469898D02*
X1171956Y1469898D01*
X1154176Y1505458D02*
X1171956D01*
X1171956Y1469898D01*
X1154176Y1469898D02*
Y1505458D01*
X1131824Y1469898D02*
X1149604Y1469898D01*
X1131824Y1505458D02*
X1149604D01*
X1149604Y1469898D01*
X1131824Y1469898D02*
Y1505458D01*
X1109641Y1469898D02*
X1127421Y1469898D01*
X1109641Y1505458D02*
X1127421D01*
X1127421Y1469898D01*
X1109641Y1469898D02*
Y1505458D01*
X1087120Y1469898D02*
X1104900Y1469898D01*
X1087120Y1505458D02*
X1104900D01*
X1104900Y1469898D01*
X1087120Y1469898D02*
Y1505458D01*
X864616Y1539748D02*
Y1543812D01*
Y1553210D02*
X999998D01*
Y1422146D02*
Y1553210D01*
X864616Y1422146D02*
X999998D01*
X864616D02*
Y1553210D01*
X1157986Y1262888D02*
X1193546D01*
X1157986Y1245108D02*
X1193546Y1245108D01*
Y1262888D01*
X1157986Y1245108D02*
X1157986Y1262888D01*
X1078738Y1264412D02*
X1114298D01*
X1078738Y1246632D02*
X1114298Y1246632D01*
Y1264412D01*
X1078738Y1246632D02*
X1078738Y1264412D01*
X1108206Y1314978D02*
X1108460D01*
X1111762Y1310914D02*
Y1311422D01*
Y1311168D02*
Y1314978D01*
X1109222D02*
X1111762D01*
X1080012Y1271798D02*
X1111762D01*
Y1314978D01*
X1080012D02*
X1111762D01*
X1080012Y1271798D02*
Y1314978D01*
X1163824Y1271858D02*
X1164078D01*
X1160522Y1275414D02*
Y1275922D01*
Y1271858D02*
Y1275668D01*
Y1271858D02*
X1163062D01*
X1160522Y1315038D02*
X1192272D01*
X1160522Y1271858D02*
Y1315038D01*
Y1271858D02*
X1192272D01*
Y1315038D01*
X1078738Y1326896D02*
X1114298D01*
X1078738Y1344676D02*
X1114298Y1344676D01*
X1078738Y1326896D02*
Y1344676D01*
X1114298Y1326896D02*
X1114298Y1344676D01*
X1157986Y1323340D02*
X1193546D01*
X1157986Y1341120D02*
X1193546Y1341120D01*
X1157986Y1323340D02*
Y1341120D01*
X1193546Y1323340D02*
X1193546Y1341120D01*
X1151128Y1369822D02*
Y1405382D01*
X1168908D02*
X1168908Y1369822D01*
X1151128Y1405382D02*
X1168908D01*
X1151128Y1369822D02*
X1168908Y1369822D01*
D31*
X586292Y1536736D02*
G03*
X586292Y1536736I-2500J0D01*
G01*
X698849D02*
G03*
X698849Y1536736I-2500J0D01*
G01*
X586292Y1434449D02*
G03*
X586292Y1434449I-2500J0D01*
G01*
X698849D02*
G03*
X698849Y1434449I-2500J0D01*
G01*
X586292Y1332162D02*
G03*
X586292Y1332162I-2500J0D01*
G01*
X697942Y1332202D02*
G03*
X697942Y1332202I-2500J0D01*
G01*
D32*
X1326732Y1281708D02*
Y1336458D01*
X1369732Y1304208D02*
Y1336458D01*
X1214972Y1281962D02*
Y1336712D01*
X1257972Y1304462D02*
Y1336712D01*
X1299868Y1299618D02*
X1311868D01*
X1296368Y1301118D02*
Y1330118D01*
X1290368D02*
X1296368D01*
X1290368Y1301118D02*
Y1330118D01*
Y1301118D02*
X1296368D01*
X799326Y1464028D02*
Y1504028D01*
X819826Y1449028D02*
X828326D01*
X819826Y1519028D02*
X828326D01*
Y1449028D02*
Y1454028D01*
Y1514028D02*
Y1519028D01*
X576292Y1544236D02*
X618743D01*
Y1462236D02*
Y1544236D01*
X576292Y1462236D02*
X618743D01*
X576292D02*
Y1544236D01*
X688849D02*
X731301D01*
Y1462236D02*
Y1544236D01*
X688849Y1462236D02*
X731301D01*
X688849D02*
Y1544236D01*
X576292Y1441949D02*
X618743D01*
Y1359949D02*
Y1441949D01*
X576292Y1359949D02*
X618743D01*
X576292D02*
Y1441949D01*
X688849D02*
X731301D01*
Y1359949D02*
Y1441949D01*
X688849Y1359949D02*
X731301D01*
X688849D02*
Y1441949D01*
X576292Y1339662D02*
X618743D01*
Y1257662D02*
Y1339662D01*
X576292Y1257662D02*
X618743D01*
X576292D02*
Y1339662D01*
X687942Y1339702D02*
X730394D01*
Y1257702D02*
Y1339702D01*
X687942Y1257702D02*
X730394D01*
X687942D02*
Y1339702D01*
X786866Y1253348D02*
X822866D01*
X834866Y1273348D02*
Y1282348D01*
X774866Y1273348D02*
Y1282348D01*
X826866D02*
X834866D01*
X774866D02*
X782866D01*
X863279Y1253468D02*
X899278D01*
X911279Y1273468D02*
Y1282468D01*
X851279Y1273468D02*
Y1282468D01*
X903279D02*
X911279D01*
X851279D02*
X859278D01*
X939631Y1253468D02*
X975631D01*
X987631Y1273468D02*
Y1282468D01*
X927631Y1273468D02*
Y1282468D01*
X979631D02*
X987631D01*
X927631D02*
X935631D01*
X1018983Y1253468D02*
X1028983D01*
X1043983Y1273968D02*
Y1282468D01*
X1003983Y1273968D02*
Y1282468D01*
X1038983D02*
X1043983D01*
X1003983D02*
X1008983D01*
X1286336Y1244832D02*
X1296336D01*
X1311336Y1265332D02*
Y1273832D01*
X1271336Y1265332D02*
Y1273832D01*
X1306336D02*
X1311336D01*
X1271336D02*
X1276336D01*
X1040450Y1373864D02*
X1080450D01*
X1095450Y1394364D02*
Y1402864D01*
X1025450Y1394364D02*
Y1402864D01*
X1090450D02*
X1095450D01*
X1025450D02*
X1030450D01*
X1067450Y1465928D02*
Y1491928D01*
X1038450Y1503928D02*
X1047450D01*
X1038450Y1453928D02*
X1047450D01*
X1038450Y1496928D02*
Y1503928D01*
Y1453928D02*
Y1460928D01*
X896279Y1373864D02*
X972279D01*
X984278Y1393864D02*
Y1402864D01*
X884278Y1393864D02*
Y1402864D01*
X977279D02*
X984278D01*
X884278D02*
X891279D01*
D33*
X1131824Y1395730D02*
X1141821D01*
Y1390732D01*
X1140155Y1389066D01*
X1136822D01*
X1135156Y1390732D01*
Y1395730D01*
Y1392398D02*
X1131824Y1389066D01*
X1141821Y1379069D02*
X1140155Y1382401D01*
X1136822Y1385733D01*
X1133490D01*
X1131824Y1384067D01*
Y1380735D01*
X1133490Y1379069D01*
X1135156D01*
X1136822Y1380735D01*
Y1385733D01*
X1190813Y1413205D02*
X1189146Y1414871D01*
X1185814D01*
X1184148Y1413205D01*
Y1406540D01*
X1185814Y1404874D01*
X1189146D01*
X1190813Y1406540D01*
X1194145Y1404874D02*
X1197477D01*
X1195811D01*
Y1414871D01*
X1194145Y1413205D01*
X1202475Y1404874D02*
X1205808D01*
X1204142D01*
Y1414871D01*
X1202475Y1413205D01*
X1160841Y1417015D02*
X1159174Y1418681D01*
X1155842D01*
X1154176Y1417015D01*
Y1410350D01*
X1155842Y1408684D01*
X1159174D01*
X1160841Y1410350D01*
X1164173Y1408684D02*
X1167505D01*
X1165839D01*
Y1418681D01*
X1164173Y1417015D01*
X1172503D02*
X1174170Y1418681D01*
X1177502D01*
X1179168Y1417015D01*
Y1410350D01*
X1177502Y1408684D01*
X1174170D01*
X1172503Y1410350D01*
Y1417015D01*
X1138743D02*
X1137076Y1418681D01*
X1133744D01*
X1132078Y1417015D01*
Y1410350D01*
X1133744Y1408684D01*
X1137076D01*
X1138743Y1410350D01*
X1142075D02*
X1143741Y1408684D01*
X1147073D01*
X1148739Y1410350D01*
Y1417015D01*
X1147073Y1418681D01*
X1143741D01*
X1142075Y1417015D01*
Y1415349D01*
X1143741Y1413682D01*
X1148739D01*
X1116898Y1417015D02*
X1115232Y1418681D01*
X1111900D01*
X1110234Y1417015D01*
Y1410350D01*
X1111900Y1408684D01*
X1115232D01*
X1116898Y1410350D01*
X1120231Y1417015D02*
X1121897Y1418681D01*
X1125229D01*
X1126895Y1417015D01*
Y1415349D01*
X1125229Y1413682D01*
X1126895Y1412016D01*
Y1410350D01*
X1125229Y1408684D01*
X1121897D01*
X1120231Y1410350D01*
Y1412016D01*
X1121897Y1413682D01*
X1120231Y1415349D01*
Y1417015D01*
X1121897Y1413682D02*
X1125229D01*
X1094800Y1417015D02*
X1093134Y1418681D01*
X1089802D01*
X1088136Y1417015D01*
Y1410350D01*
X1089802Y1408684D01*
X1093134D01*
X1094800Y1410350D01*
X1098133Y1418681D02*
X1104797D01*
Y1417015D01*
X1098133Y1410350D01*
Y1408684D01*
X1205230Y1482344D02*
X1215227D01*
Y1477346D01*
X1213561Y1475679D01*
X1210228D01*
X1208562Y1477346D01*
Y1482344D01*
Y1479012D02*
X1205230Y1475679D01*
X1215227Y1465683D02*
Y1472347D01*
X1210228D01*
X1211895Y1469015D01*
Y1467349D01*
X1210228Y1465683D01*
X1206896D01*
X1205230Y1467349D01*
Y1470681D01*
X1206896Y1472347D01*
X1154684Y1509776D02*
Y1519773D01*
X1159682D01*
X1161348Y1518107D01*
Y1514774D01*
X1159682Y1513108D01*
X1154684D01*
X1158016D02*
X1161348Y1509776D01*
X1169679D02*
Y1519773D01*
X1164681Y1514774D01*
X1171345D01*
X1132078Y1510030D02*
Y1520027D01*
X1137076D01*
X1138743Y1518361D01*
Y1515028D01*
X1137076Y1513362D01*
X1132078D01*
X1135410D02*
X1138743Y1510030D01*
X1142075Y1518361D02*
X1143741Y1520027D01*
X1147073D01*
X1148739Y1518361D01*
Y1516694D01*
X1147073Y1515028D01*
X1145407D01*
X1147073D01*
X1148739Y1513362D01*
Y1511696D01*
X1147073Y1510030D01*
X1143741D01*
X1142075Y1511696D01*
X1110234Y1510284D02*
Y1520281D01*
X1115232D01*
X1116898Y1518615D01*
Y1515282D01*
X1115232Y1513616D01*
X1110234D01*
X1113566D02*
X1116898Y1510284D01*
X1126895D02*
X1120231D01*
X1126895Y1516949D01*
Y1518615D01*
X1125229Y1520281D01*
X1121897D01*
X1120231Y1518615D01*
X1089660Y1511046D02*
Y1521043D01*
X1094658D01*
X1096324Y1519377D01*
Y1516044D01*
X1094658Y1514378D01*
X1089660D01*
X1092992D02*
X1096324Y1511046D01*
X1099657D02*
X1102989D01*
X1101323D01*
Y1521043D01*
X1099657Y1519377D01*
X1172207Y1360166D02*
X1169668Y1362705D01*
X1164589D01*
X1162050Y1360166D01*
Y1350009D01*
X1164589Y1347470D01*
X1169668D01*
X1172207Y1350009D01*
X1177285Y1347470D02*
X1182363D01*
X1179824D01*
Y1362705D01*
X1177285Y1360166D01*
X1208783Y1258820D02*
X1206244Y1261359D01*
X1201165D01*
X1198626Y1258820D01*
Y1248663D01*
X1201165Y1246124D01*
X1206244D01*
X1208783Y1248663D01*
X1224018Y1246124D02*
X1213861D01*
X1224018Y1256281D01*
Y1258820D01*
X1221479Y1261359D01*
X1216400D01*
X1213861Y1258820D01*
X1130297Y1260598D02*
X1127757Y1263137D01*
X1122679D01*
X1120140Y1260598D01*
Y1250441D01*
X1122679Y1247902D01*
X1127757D01*
X1130297Y1250441D01*
X1135375Y1260598D02*
X1137914Y1263137D01*
X1142993D01*
X1145532Y1260598D01*
Y1258059D01*
X1142993Y1255519D01*
X1140453D01*
X1142993D01*
X1145532Y1252980D01*
Y1250441D01*
X1142993Y1247902D01*
X1137914D01*
X1135375Y1250441D01*
X1092705Y1363722D02*
X1090165Y1366261D01*
X1085087D01*
X1082548Y1363722D01*
Y1353565D01*
X1085087Y1351026D01*
X1090165D01*
X1092705Y1353565D01*
X1105401Y1351026D02*
Y1366261D01*
X1097783Y1358643D01*
X1107940D01*
X1333243Y1373882D02*
X1330703Y1376421D01*
X1325625D01*
X1323086Y1373882D01*
Y1363725D01*
X1325625Y1361186D01*
X1330703D01*
X1333243Y1363725D01*
X1348478Y1376421D02*
X1338321D01*
Y1368804D01*
X1343399Y1371343D01*
X1345939D01*
X1348478Y1368804D01*
Y1363725D01*
X1345939Y1361186D01*
X1340860D01*
X1338321Y1363725D01*
X1221483Y1374136D02*
X1218943Y1376675D01*
X1213865D01*
X1211326Y1374136D01*
Y1363979D01*
X1213865Y1361440D01*
X1218943D01*
X1221483Y1363979D01*
X1236718Y1376675D02*
X1231639Y1374136D01*
X1226561Y1369057D01*
Y1363979D01*
X1229100Y1361440D01*
X1234179D01*
X1236718Y1363979D01*
Y1366518D01*
X1234179Y1369057D01*
X1226561D01*
X1059185Y1275842D02*
Y1280920D01*
Y1278381D01*
X1074420D01*
Y1275842D01*
Y1280920D01*
X1061724Y1298695D02*
X1059185Y1296155D01*
Y1291077D01*
X1061724Y1288538D01*
X1071881D01*
X1074420Y1291077D01*
Y1296155D01*
X1071881Y1298695D01*
X1074420Y1313930D02*
Y1303773D01*
X1064263Y1313930D01*
X1061724D01*
X1059185Y1311391D01*
Y1306312D01*
X1061724Y1303773D01*
X1274772Y1356507D02*
X1279850D01*
X1277311D01*
Y1341272D01*
X1274772D01*
X1279850D01*
X1297625Y1353968D02*
X1295085Y1356507D01*
X1290007D01*
X1287468Y1353968D01*
Y1343811D01*
X1290007Y1341272D01*
X1295085D01*
X1297625Y1343811D01*
X1302703Y1353968D02*
X1305242Y1356507D01*
X1310320D01*
X1312860Y1353968D01*
Y1351429D01*
X1310320Y1348889D01*
X1307781D01*
X1310320D01*
X1312860Y1346350D01*
Y1343811D01*
X1310320Y1341272D01*
X1305242D01*
X1302703Y1343811D01*
X1138687Y1275842D02*
Y1280920D01*
Y1278381D01*
X1153922D01*
Y1275842D01*
Y1280920D01*
X1141226Y1298695D02*
X1138687Y1296155D01*
Y1291077D01*
X1141226Y1288538D01*
X1151383D01*
X1153922Y1291077D01*
Y1296155D01*
X1151383Y1298695D01*
X1153922Y1303773D02*
Y1308851D01*
Y1306312D01*
X1138687D01*
X1141226Y1303773D01*
X1023366Y1419860D02*
Y1435095D01*
X1030984D01*
X1033523Y1432556D01*
Y1427478D01*
X1030984Y1424938D01*
X1023366D01*
X1038601Y1419860D02*
X1043679D01*
X1041140D01*
Y1435095D01*
X1038601Y1432556D01*
X801370Y1536192D02*
Y1551427D01*
X808988D01*
X811527Y1548888D01*
Y1543810D01*
X808988Y1541270D01*
X801370D01*
X826762Y1536192D02*
X816605D01*
X826762Y1546349D01*
Y1548888D01*
X824223Y1551427D01*
X819144D01*
X816605Y1548888D01*
X875030Y1375156D02*
X859795D01*
Y1382773D01*
X862334Y1385313D01*
X867412D01*
X869952Y1382773D01*
Y1375156D01*
X862334Y1390391D02*
X859795Y1392930D01*
Y1398009D01*
X862334Y1400548D01*
X864873D01*
X867412Y1398009D01*
Y1395469D01*
Y1398009D01*
X869952Y1400548D01*
X872491D01*
X875030Y1398009D01*
Y1392930D01*
X872491Y1390391D01*
X1036828Y1514602D02*
Y1529837D01*
X1044445D01*
X1046985Y1527298D01*
Y1522220D01*
X1044445Y1519680D01*
X1036828D01*
X1059681Y1514602D02*
Y1529837D01*
X1052063Y1522220D01*
X1062220D01*
X997458Y1300480D02*
Y1315715D01*
X1005076D01*
X1007615Y1313176D01*
Y1308098D01*
X1005076Y1305558D01*
X997458D01*
X1022850Y1315715D02*
X1012693D01*
Y1308098D01*
X1017771Y1310637D01*
X1020311D01*
X1022850Y1308098D01*
Y1303019D01*
X1020311Y1300480D01*
X1015232D01*
X1012693Y1303019D01*
X777942Y1300360D02*
Y1315595D01*
X785559D01*
X788099Y1313056D01*
Y1307977D01*
X785559Y1305438D01*
X777942D01*
X803334Y1315595D02*
X798255Y1313056D01*
X793177Y1307977D01*
Y1302899D01*
X795716Y1300360D01*
X800795D01*
X803334Y1302899D01*
Y1305438D01*
X800795Y1307977D01*
X793177D01*
X851577Y1300480D02*
Y1315715D01*
X859195D01*
X861734Y1313176D01*
Y1308098D01*
X859195Y1305558D01*
X851577D01*
X866812Y1315715D02*
X876969D01*
Y1313176D01*
X866812Y1303019D01*
Y1300480D01*
X925153D02*
Y1315715D01*
X932770D01*
X935309Y1313176D01*
Y1308098D01*
X932770Y1305558D01*
X925153D01*
X940388Y1313176D02*
X942927Y1315715D01*
X948005D01*
X950544Y1313176D01*
Y1310637D01*
X948005Y1308098D01*
X950544Y1305558D01*
Y1303019D01*
X948005Y1300480D01*
X942927D01*
X940388Y1303019D01*
Y1305558D01*
X942927Y1308098D01*
X940388Y1310637D01*
Y1313176D01*
X942927Y1308098D02*
X948005D01*
X587502Y1286759D02*
Y1274063D01*
X590041Y1271524D01*
X595120D01*
X597659Y1274063D01*
Y1286759D01*
X602737Y1271524D02*
X607815D01*
X605276D01*
Y1286759D01*
X602737Y1284220D01*
X695706Y1284339D02*
Y1271644D01*
X698245Y1269104D01*
X703324D01*
X705863Y1271644D01*
Y1284339D01*
X721098Y1269104D02*
X710941D01*
X721098Y1279261D01*
Y1281800D01*
X718559Y1284339D01*
X713480D01*
X710941Y1281800D01*
X583438Y1393947D02*
Y1381251D01*
X585977Y1378712D01*
X591055D01*
X593595Y1381251D01*
Y1393947D01*
X598673Y1391408D02*
X601212Y1393947D01*
X606291D01*
X608830Y1391408D01*
Y1388869D01*
X606291Y1386329D01*
X603751D01*
X606291D01*
X608830Y1383790D01*
Y1381251D01*
X606291Y1378712D01*
X601212D01*
X598673Y1381251D01*
X697992Y1391781D02*
Y1379086D01*
X700531Y1376546D01*
X705610D01*
X708149Y1379086D01*
Y1391781D01*
X720845Y1376546D02*
Y1391781D01*
X713227Y1384164D01*
X723384D01*
X584454Y1496563D02*
Y1483867D01*
X586993Y1481328D01*
X592071D01*
X594611Y1483867D01*
Y1496563D01*
X609846D02*
X599689D01*
Y1488945D01*
X604767Y1491485D01*
X607307D01*
X609846Y1488945D01*
Y1483867D01*
X607307Y1481328D01*
X602228D01*
X599689Y1483867D01*
X698246Y1492874D02*
Y1480178D01*
X700785Y1477638D01*
X705863D01*
X708403Y1480178D01*
Y1492874D01*
X723638D02*
X718559Y1490334D01*
X713481Y1485256D01*
Y1480178D01*
X716020Y1477638D01*
X721099D01*
X723638Y1480178D01*
Y1482717D01*
X721099Y1485256D01*
X713481D01*
X870712Y1576065D02*
Y1563369D01*
X873251Y1560830D01*
X878329D01*
X880869Y1563369D01*
Y1576065D01*
X885947D02*
X896104D01*
Y1573526D01*
X885947Y1563369D01*
Y1560830D01*
X1322324Y1247394D02*
Y1262629D01*
X1329942D01*
X1332481Y1260090D01*
Y1255012D01*
X1329942Y1252472D01*
X1322324D01*
X1337559Y1249933D02*
X1340098Y1247394D01*
X1345177D01*
X1347716Y1249933D01*
Y1260090D01*
X1345177Y1262629D01*
X1340098D01*
X1337559Y1260090D01*
Y1257551D01*
X1340098Y1255012D01*
X1347716D01*
X1173988Y1394206D02*
X1183985D01*
Y1389208D01*
X1182319Y1387542D01*
X1178986D01*
X1177320Y1389208D01*
Y1394206D01*
Y1390874D02*
X1173988Y1387542D01*
X1183985Y1384209D02*
Y1377545D01*
X1182319D01*
X1175654Y1384209D01*
X1173988D01*
D34*
X932815Y1544066D02*
D03*
D35*
X1108908Y1293418D02*
D03*
X1163377Y1293418D02*
D03*
M02*
