G04 Layer_Physical_Order=1*
G04 Layer_Color=255*
%FSLAX44Y44*%
%MOMM*%
G71*
G01*
G75*
%ADD10R,1.2700X1.0160*%
%ADD11R,1.8500X2.9500*%
%ADD12R,1.2000X0.6000*%
%ADD13R,1.5500X0.6000*%
%ADD14R,1.8000X1.2000*%
%ADD15R,2.5400X0.7112*%
%ADD16O,2.5400X0.7112*%
%ADD17R,1.4823X0.4180*%
%ADD18O,1.4823X0.4180*%
%ADD19R,0.6000X1.5500*%
%ADD20R,1.2000X1.8000*%
%ADD21R,1.0160X1.2700*%
%ADD22R,0.5080X1.2700*%
%ADD23C,0.5080*%
%ADD24C,0.3048*%
%ADD25C,0.6350*%
%ADD26C,8.0000*%
%ADD27C,0.4000*%
%ADD28C,0.8000*%
G36*
X922854Y1346849D02*
X922727Y1346763D01*
X921931Y1345573D01*
X921652Y1344168D01*
X921931Y1342763D01*
X922727Y1341573D01*
X923917Y1340777D01*
X924281Y1340705D01*
X939446Y1325540D01*
Y1295063D01*
X939007Y1294975D01*
X938477Y1294621D01*
X938124Y1294092D01*
X938000Y1293468D01*
Y1277968D01*
X936994Y1277034D01*
X936310Y1276979D01*
X886690Y1326599D01*
X887002Y1327629D01*
X887198Y1327887D01*
X888293Y1328619D01*
X889089Y1329809D01*
X889369Y1331214D01*
X889089Y1332619D01*
X888293Y1333809D01*
X887103Y1334605D01*
X886739Y1334677D01*
X875191Y1346225D01*
X875185Y1346257D01*
X875903Y1347527D01*
X900611D01*
X900611Y1347527D01*
X902226Y1347848D01*
X902631Y1348119D01*
X922469D01*
X922854Y1346849D01*
D02*
G37*
G36*
X891984Y1277025D02*
X892125Y1276814D01*
X892654Y1276461D01*
X893093Y1276374D01*
Y1249896D01*
X889459Y1246261D01*
X818269D01*
X817590Y1247531D01*
X818075Y1248257D01*
X818510Y1250442D01*
X818310Y1251447D01*
X822178Y1255316D01*
X822869Y1256349D01*
X823111Y1257568D01*
X823111Y1257568D01*
Y1271154D01*
X824381Y1271539D01*
X824429Y1271469D01*
X824787Y1271229D01*
X825591Y1270597D01*
X825359Y1269972D01*
X825235Y1269348D01*
Y1251348D01*
X825359Y1250724D01*
X825713Y1250194D01*
X826242Y1249841D01*
X826866Y1249717D01*
X838866D01*
X839490Y1249841D01*
X840020Y1250194D01*
X840373Y1250724D01*
X840497Y1251348D01*
Y1269348D01*
X840445Y1269609D01*
X841026Y1270614D01*
X841295Y1270879D01*
X844770D01*
X844996Y1270701D01*
X845675Y1269609D01*
X845647Y1269468D01*
Y1251468D01*
X845771Y1250844D01*
X846125Y1250314D01*
X846654Y1249961D01*
X847279Y1249837D01*
X859278D01*
X859903Y1249961D01*
X860432Y1250314D01*
X860786Y1250844D01*
X860910Y1251468D01*
Y1269468D01*
X860882Y1269609D01*
X861560Y1270701D01*
X861787Y1270879D01*
X872744D01*
X872744Y1270879D01*
X873963Y1271121D01*
X874996Y1271812D01*
X878531Y1275346D01*
X879193Y1276337D01*
X879278D01*
X879903Y1276461D01*
X880432Y1276814D01*
X880573Y1277025D01*
X880857Y1277101D01*
X881700D01*
X881984Y1277025D01*
X882125Y1276814D01*
X882654Y1276461D01*
X883279Y1276337D01*
X889278D01*
X889903Y1276461D01*
X890432Y1276814D01*
X890573Y1277025D01*
X890857Y1277101D01*
X891700D01*
X891984Y1277025D01*
D02*
G37*
G36*
X596518Y1367340D02*
X596172Y1366994D01*
X595481Y1365961D01*
X595239Y1364742D01*
X595239Y1364742D01*
Y1323021D01*
X595033Y1322713D01*
X594753Y1321308D01*
X595033Y1319903D01*
X595829Y1318713D01*
X597019Y1317917D01*
X598424Y1317637D01*
X599829Y1317917D01*
X601019Y1318713D01*
X601815Y1319903D01*
X602094Y1321308D01*
X601815Y1322713D01*
X601609Y1323021D01*
Y1363423D01*
X604198Y1366012D01*
X604774Y1365898D01*
X606179Y1366177D01*
X607038Y1366751D01*
X607331Y1366772D01*
X608241Y1366607D01*
X608562Y1366472D01*
X609006Y1365808D01*
X614491Y1360323D01*
X615139Y1359386D01*
X614646Y1358444D01*
X614413Y1358095D01*
X614133Y1356690D01*
X614413Y1355285D01*
X614619Y1354977D01*
Y1330376D01*
X614619Y1330376D01*
X614861Y1329157D01*
X615552Y1328124D01*
X618016Y1325660D01*
X619049Y1324969D01*
X620268Y1324727D01*
X620268Y1324727D01*
X622083D01*
X622762Y1323457D01*
X622357Y1322852D01*
X622071Y1321412D01*
X622357Y1319972D01*
X623012Y1318992D01*
X623106Y1318162D01*
X623012Y1317332D01*
X622357Y1316352D01*
X622071Y1314912D01*
X622357Y1313472D01*
X622762Y1312867D01*
X622083Y1311597D01*
X619564D01*
X619564Y1311597D01*
X619272Y1311539D01*
X617474D01*
X616255Y1311297D01*
X615222Y1310606D01*
X615222Y1310606D01*
X614385Y1309769D01*
X613007Y1310188D01*
X612991Y1310267D01*
X612195Y1311457D01*
X611005Y1312253D01*
X609600Y1312533D01*
X608195Y1312253D01*
X607592Y1311850D01*
X607365Y1311805D01*
X606332Y1311114D01*
X606332Y1311114D01*
X599669Y1304451D01*
X599305Y1304379D01*
X598115Y1303583D01*
X597319Y1302393D01*
X597039Y1300988D01*
X597319Y1299583D01*
X598115Y1298393D01*
X599305Y1297597D01*
X599736Y1297511D01*
X600321Y1296100D01*
X600113Y1295789D01*
X599833Y1294384D01*
X600113Y1292979D01*
X600909Y1291789D01*
X602099Y1290993D01*
X603504Y1290714D01*
X604909Y1290993D01*
X606099Y1291789D01*
X606895Y1292979D01*
X606967Y1293343D01*
X618793Y1305169D01*
X619506D01*
X619506Y1305169D01*
X619798Y1305227D01*
X622083D01*
X622762Y1303957D01*
X622357Y1303352D01*
X622071Y1301912D01*
X622276Y1300883D01*
X622158Y1300673D01*
X621464Y1299987D01*
X621278Y1299886D01*
X620268Y1300087D01*
X618863Y1299807D01*
X617673Y1299011D01*
X616877Y1297821D01*
X616598Y1296416D01*
X616877Y1295011D01*
X617673Y1293821D01*
X618351Y1293367D01*
X617966Y1292097D01*
X614916D01*
X613697Y1291855D01*
X612663Y1291164D01*
X612663Y1291164D01*
X605689Y1284190D01*
X604999Y1283157D01*
X604978Y1283050D01*
X604909Y1282990D01*
X603587Y1282569D01*
X602877Y1283043D01*
X601472Y1283322D01*
X600067Y1283043D01*
X598877Y1282247D01*
X598864Y1282228D01*
X597174Y1281986D01*
X596915Y1282203D01*
Y1288664D01*
X596915Y1288664D01*
X596673Y1289883D01*
X595982Y1290916D01*
X595982Y1290916D01*
X595537Y1291361D01*
X595465Y1291725D01*
X594669Y1292915D01*
X593479Y1293711D01*
X592074Y1293990D01*
X591203Y1293817D01*
X589933Y1294630D01*
Y1300961D01*
X589957Y1301082D01*
X589957Y1301082D01*
Y1311390D01*
X589957Y1311390D01*
X589636Y1313005D01*
X588721Y1314375D01*
X588721Y1314375D01*
X581312Y1321783D01*
X582122Y1322770D01*
X582165Y1322741D01*
X584350Y1322306D01*
X586535Y1322741D01*
X588387Y1323979D01*
X589625Y1325831D01*
X590060Y1328016D01*
X589625Y1330201D01*
X588387Y1332054D01*
X586535Y1333291D01*
X584350Y1333726D01*
X582165Y1333291D01*
X580588Y1332237D01*
X572993D01*
X572923Y1332322D01*
Y1336502D01*
X572799Y1337126D01*
X572445Y1337655D01*
X571916Y1338009D01*
X571292Y1338133D01*
X569859D01*
Y1348551D01*
X570065Y1348859D01*
X570345Y1350264D01*
X570065Y1351669D01*
X569269Y1352859D01*
X568079Y1353655D01*
X566674Y1353934D01*
X565269Y1353655D01*
X564961Y1353449D01*
X558087D01*
X551273Y1360263D01*
Y1363057D01*
X552447Y1363543D01*
X553043Y1362947D01*
X553043Y1362947D01*
X554076Y1362256D01*
X555295Y1362014D01*
X555295Y1362014D01*
X556684D01*
X557119Y1361723D01*
X558558Y1361437D01*
X569202D01*
X570641Y1361723D01*
X571862Y1362539D01*
X572677Y1363759D01*
X572964Y1365199D01*
X572677Y1366639D01*
X572273Y1367244D01*
X572952Y1368514D01*
X596032D01*
X596518Y1367340D01*
D02*
G37*
G36*
X972327Y1346849D02*
X972197Y1346200D01*
X972477Y1344795D01*
X973273Y1343605D01*
X974463Y1342809D01*
X974827Y1342737D01*
X1021194Y1296369D01*
X1020668Y1295099D01*
X1015983D01*
X1015359Y1294975D01*
X1014830Y1294622D01*
X1014606Y1294599D01*
X963235Y1345971D01*
X963163Y1346335D01*
X962819Y1346849D01*
X963498Y1348119D01*
X971409D01*
X972327Y1346849D01*
D02*
G37*
G36*
X599893Y1509975D02*
X601083Y1509179D01*
X602488Y1508900D01*
X603893Y1509179D01*
X604201Y1509385D01*
X621792D01*
X621792Y1509385D01*
X621792Y1509385D01*
X621805D01*
X622484Y1508115D01*
X622357Y1507926D01*
X622071Y1506486D01*
X622357Y1505046D01*
X623012Y1504066D01*
X623106Y1503236D01*
X623012Y1502406D01*
X622357Y1501426D01*
X622071Y1499986D01*
X622357Y1498546D01*
X622762Y1497941D01*
X622677Y1497496D01*
X622151Y1496598D01*
X621301Y1496429D01*
X620268Y1495738D01*
X618367Y1493838D01*
X617677Y1492804D01*
X617434Y1491585D01*
X617434Y1491585D01*
Y1483239D01*
X617434Y1483239D01*
X617677Y1482020D01*
X618367Y1480986D01*
X620912Y1478441D01*
X620386Y1477171D01*
X609051D01*
X608743Y1477377D01*
X607338Y1477657D01*
X605933Y1477377D01*
X604743Y1476581D01*
X603947Y1475391D01*
X603667Y1473986D01*
X603947Y1472581D01*
X604743Y1471391D01*
X605933Y1470595D01*
X607338Y1470315D01*
X608743Y1470595D01*
X609051Y1470801D01*
X622083D01*
X622762Y1469531D01*
X622357Y1468926D01*
X622071Y1467486D01*
X622357Y1466046D01*
X623173Y1464826D01*
X624394Y1464010D01*
X625833Y1463724D01*
X628448D01*
X629230Y1462454D01*
X629095Y1461774D01*
X628002Y1460681D01*
X622210D01*
X620991Y1460439D01*
X619957Y1459748D01*
X619957Y1459748D01*
X618517Y1458308D01*
X617302Y1458677D01*
X617161Y1459383D01*
X615923Y1461235D01*
X614071Y1462473D01*
X611886Y1462908D01*
X609701Y1462473D01*
X607849Y1461235D01*
X606611Y1459383D01*
X606179Y1457213D01*
X599311Y1450345D01*
X598065Y1450784D01*
X598041Y1450803D01*
Y1510459D01*
X599311Y1510845D01*
X599893Y1509975D01*
D02*
G37*
G36*
X699986Y1485813D02*
X699986Y1485813D01*
X701019Y1485123D01*
X702238Y1484880D01*
X702238Y1484880D01*
X712717D01*
X712981Y1484704D01*
X713238Y1483164D01*
X707729Y1477655D01*
X693251D01*
X693251Y1477655D01*
X692032Y1477413D01*
X690999Y1476722D01*
X690999Y1476722D01*
X686584Y1472307D01*
X686298Y1471880D01*
X685235Y1472546D01*
X685521Y1473986D01*
X685235Y1475426D01*
X684580Y1476406D01*
X684419Y1477826D01*
X684536Y1478001D01*
X684885Y1478234D01*
X690221Y1483571D01*
X691269Y1483779D01*
X692459Y1484575D01*
X693255Y1485765D01*
X693534Y1487170D01*
X693255Y1488575D01*
X692950Y1489031D01*
X693629Y1490301D01*
X695498D01*
X699986Y1485813D01*
D02*
G37*
G36*
X861647Y1285845D02*
Y1277968D01*
X860495Y1277249D01*
X828737D01*
X828429Y1277455D01*
X827024Y1277735D01*
X825619Y1277455D01*
X825543Y1277482D01*
X824497Y1278233D01*
Y1293348D01*
X824373Y1293972D01*
X824019Y1294502D01*
X823490Y1294855D01*
X822866Y1294979D01*
X816866D01*
X816242Y1294855D01*
X815713Y1294502D01*
X815572Y1294291D01*
X815287Y1294215D01*
X814445D01*
X814160Y1294291D01*
X814019Y1294502D01*
X813490Y1294855D01*
X812866Y1294979D01*
X806866D01*
X806242Y1294855D01*
X805713Y1294502D01*
X805572Y1294291D01*
X805288Y1294215D01*
X804444D01*
X804160Y1294291D01*
X804020Y1294502D01*
X803490Y1294855D01*
X802866Y1294979D01*
X796866D01*
X796242Y1294855D01*
X795713Y1294502D01*
X795572Y1294291D01*
X795287Y1294215D01*
X794445D01*
X794160Y1294291D01*
X794020Y1294501D01*
X793715Y1295901D01*
X793755Y1296089D01*
X793912Y1296279D01*
X851213D01*
X861647Y1285845D01*
D02*
G37*
G36*
X703237Y1299075D02*
X704033Y1297885D01*
X705223Y1297089D01*
X705587Y1297017D01*
X706154Y1296450D01*
X707187Y1295759D01*
X708406Y1295517D01*
X708406Y1295517D01*
X716599D01*
X716907Y1295311D01*
X718312Y1295031D01*
X719235Y1295215D01*
X720505Y1294426D01*
Y1286181D01*
X719052Y1284727D01*
X718361Y1283694D01*
X718119Y1282475D01*
X718119Y1282475D01*
Y1269138D01*
X718119Y1269138D01*
X718361Y1267919D01*
X719052Y1266885D01*
X723465Y1262472D01*
Y1255058D01*
X723465Y1255058D01*
X723707Y1253839D01*
X724398Y1252806D01*
X725983Y1251220D01*
X725497Y1250047D01*
X611138D01*
X593197Y1267989D01*
X593243Y1268278D01*
X593486Y1268493D01*
X594654Y1269064D01*
X595630Y1268869D01*
X597035Y1269149D01*
X597781Y1269647D01*
X597873Y1269692D01*
X598799Y1269752D01*
X599473Y1269526D01*
X614570Y1254430D01*
X614570Y1254430D01*
X615603Y1253739D01*
X616822Y1253497D01*
X639057D01*
X639057Y1253497D01*
X640276Y1253739D01*
X641309Y1254430D01*
X644389Y1257509D01*
X646049Y1257645D01*
X650037Y1253658D01*
X650037Y1253658D01*
X651070Y1252967D01*
X652289Y1252725D01*
X674624D01*
X674624Y1252725D01*
X674624Y1252725D01*
X685491D01*
X685799Y1252519D01*
X687204Y1252240D01*
X688609Y1252519D01*
X689799Y1253315D01*
X690595Y1254505D01*
X690874Y1255910D01*
X690595Y1257315D01*
X689799Y1258505D01*
X688609Y1259301D01*
X687204Y1259581D01*
X685799Y1259301D01*
X685491Y1259095D01*
X684008D01*
X683647Y1259967D01*
X683561Y1260365D01*
X684328Y1261512D01*
X684614Y1262952D01*
X684328Y1264392D01*
X683673Y1265372D01*
X683579Y1266202D01*
X683673Y1267032D01*
X684328Y1268012D01*
X684614Y1269452D01*
X684328Y1270892D01*
X683828Y1271641D01*
X684429Y1272911D01*
X695367D01*
X695367Y1272911D01*
X696586Y1273153D01*
X697619Y1273844D01*
X700869Y1277093D01*
X709079D01*
X709387Y1276887D01*
X710792Y1276608D01*
X712197Y1276887D01*
X713387Y1277683D01*
X714183Y1278874D01*
X714463Y1280278D01*
X714183Y1281683D01*
X713387Y1282874D01*
X712197Y1283670D01*
X710792Y1283949D01*
X709387Y1283670D01*
X709079Y1283464D01*
X699549D01*
X698330Y1283221D01*
X697297Y1282531D01*
X697297Y1282531D01*
X696457Y1281691D01*
X695287Y1282317D01*
X695312Y1282446D01*
X695033Y1283851D01*
X694986Y1283921D01*
X695814Y1284967D01*
X696632Y1284805D01*
X703282D01*
X703282Y1284805D01*
X704501Y1285047D01*
X705534Y1285738D01*
X707167Y1287371D01*
X713061D01*
X713369Y1287165D01*
X714774Y1286886D01*
X716179Y1287165D01*
X717369Y1287961D01*
X718165Y1289151D01*
X718445Y1290556D01*
X718165Y1291961D01*
X717369Y1293152D01*
X716179Y1293947D01*
X714774Y1294227D01*
X713369Y1293947D01*
X713061Y1293741D01*
X705848D01*
X705848Y1293741D01*
X704629Y1293499D01*
X703668Y1292857D01*
X703180Y1292958D01*
X702372Y1293380D01*
X702145Y1294519D01*
X701939Y1294827D01*
Y1299089D01*
X703209Y1299214D01*
X703237Y1299075D01*
D02*
G37*
G36*
X703276Y1652712D02*
X715384Y1651279D01*
X727341Y1648900D01*
X733072Y1647284D01*
X733089Y1647343D01*
X733089Y1647343D01*
X1053395Y1557321D01*
X1053432Y1557254D01*
Y1557253D01*
X1053432Y1557254D01*
X1068465Y1552423D01*
X1095491Y1542753D01*
X1122187Y1532204D01*
X1148522Y1520787D01*
X1174471Y1508514D01*
X1200003Y1495399D01*
X1225093Y1481456D01*
X1249713Y1466699D01*
X1273838Y1451145D01*
X1297440Y1434809D01*
X1320495Y1417710D01*
X1342979Y1399866D01*
X1364866Y1381296D01*
X1386135Y1362020D01*
X1401785Y1346873D01*
Y1346873D01*
X1401785Y1346873D01*
X1402719Y1346052D01*
X1402729Y1346043D01*
X1407477Y1340730D01*
X1411600Y1334919D01*
X1415046Y1328683D01*
X1417773Y1322101D01*
X1419745Y1315255D01*
X1420938Y1308231D01*
X1421338Y1301117D01*
X1420938Y1294003D01*
X1419745Y1286979D01*
X1417773Y1280133D01*
X1415046Y1273550D01*
X1411600Y1267315D01*
X1407477Y1261504D01*
X1402729Y1256191D01*
X1397417Y1251444D01*
X1391606Y1247321D01*
X1385370Y1243875D01*
X1378788Y1241148D01*
X1371941Y1239175D01*
X1364917Y1237982D01*
X1358009Y1237594D01*
X1357803Y1237621D01*
X1177003D01*
X1176618Y1238891D01*
X1177133Y1239235D01*
X1183914Y1246017D01*
X1191006D01*
X1191630Y1246141D01*
X1192160Y1246495D01*
X1192513Y1247024D01*
X1192637Y1247648D01*
Y1260348D01*
X1192513Y1260972D01*
X1192160Y1261501D01*
X1191630Y1261855D01*
X1191006Y1261979D01*
X1190147D01*
Y1280718D01*
X1190097Y1280968D01*
Y1287068D01*
X1189973Y1287692D01*
X1189620Y1288222D01*
X1189090Y1288575D01*
X1188466Y1288699D01*
X1183386D01*
X1182762Y1288575D01*
X1182424Y1288349D01*
X1182054Y1288261D01*
X1180901Y1288516D01*
X1180645Y1288899D01*
X1179805Y1289461D01*
X1178814Y1289658D01*
X1177544D01*
Y1280718D01*
X1175004D01*
Y1289658D01*
X1173734D01*
X1172743Y1289461D01*
X1171903Y1288899D01*
X1171774Y1288706D01*
X1170719Y1288282D01*
X1170203Y1288467D01*
X1170040Y1288575D01*
X1169416Y1288699D01*
X1164336D01*
X1163712Y1288575D01*
X1163183Y1288222D01*
X1162829Y1287692D01*
X1162705Y1287068D01*
Y1280968D01*
X1162655Y1280718D01*
X1162705Y1280468D01*
Y1274368D01*
X1162829Y1273744D01*
X1163183Y1273214D01*
X1163712Y1272861D01*
X1164336Y1272737D01*
X1165373D01*
Y1270228D01*
X1165373Y1270228D01*
X1165694Y1268613D01*
X1166609Y1267243D01*
X1168107Y1265745D01*
X1168107Y1265745D01*
X1169477Y1264830D01*
X1171092Y1264509D01*
X1173528D01*
X1175105Y1263455D01*
X1177290Y1263020D01*
X1179475Y1263455D01*
X1180435Y1264096D01*
X1181705Y1263418D01*
Y1261979D01*
X1180846D01*
X1180222Y1261855D01*
X1179693Y1261501D01*
X1179339Y1260972D01*
X1179215Y1260348D01*
Y1253256D01*
X1174546Y1248587D01*
X1173276Y1249113D01*
Y1252728D01*
X1165606D01*
X1157936D01*
Y1247648D01*
X1156881Y1246441D01*
X1113008D01*
X1112436Y1247617D01*
X1112451Y1247711D01*
X1112912Y1248018D01*
X1113265Y1248548D01*
X1113389Y1249172D01*
Y1261872D01*
X1113265Y1262496D01*
X1112912Y1263026D01*
X1112382Y1263379D01*
X1111758Y1263503D01*
X1110827D01*
X1110578Y1264757D01*
X1109663Y1266127D01*
X1109663Y1266127D01*
X1104226Y1271563D01*
X1104712Y1272737D01*
X1107948D01*
X1108572Y1272861D01*
X1109101Y1273214D01*
X1109455Y1273744D01*
X1109579Y1274368D01*
Y1274487D01*
X1110849Y1275291D01*
X1112520Y1274958D01*
X1114705Y1275393D01*
X1116557Y1276631D01*
X1117795Y1278483D01*
X1118230Y1280668D01*
X1117795Y1282853D01*
X1116557Y1284705D01*
X1114705Y1285943D01*
X1112520Y1286378D01*
X1110849Y1286045D01*
X1109579Y1286849D01*
Y1287068D01*
X1109455Y1287692D01*
X1109101Y1288221D01*
X1108572Y1288575D01*
X1107948Y1288699D01*
X1104558D01*
X1104072Y1289873D01*
X1108393Y1294193D01*
X1108393Y1294193D01*
X1109308Y1295563D01*
X1109629Y1297178D01*
X1109629Y1297178D01*
Y1301897D01*
X1162705D01*
Y1299768D01*
X1162829Y1299144D01*
X1163183Y1298614D01*
X1163712Y1298261D01*
X1164336Y1298137D01*
X1169416D01*
X1170040Y1298261D01*
X1170570Y1298614D01*
X1170923Y1299144D01*
X1171047Y1299768D01*
Y1305868D01*
X1171097Y1306118D01*
Y1317012D01*
X1172367Y1317690D01*
X1173327Y1317049D01*
X1175512Y1316614D01*
X1177697Y1317049D01*
X1179549Y1318287D01*
X1180787Y1320139D01*
X1181222Y1322324D01*
X1182015Y1323290D01*
X1184656D01*
Y1330960D01*
X1178256D01*
Y1328637D01*
X1176986Y1327740D01*
X1175836Y1327969D01*
X1172317Y1331488D01*
Y1338580D01*
X1172193Y1339204D01*
X1171840Y1339733D01*
X1171310Y1340087D01*
X1170686Y1340211D01*
X1160526D01*
X1159902Y1340087D01*
X1159372Y1339733D01*
X1159019Y1339204D01*
X1158895Y1338580D01*
Y1325880D01*
X1159019Y1325256D01*
X1159372Y1324727D01*
X1159902Y1324373D01*
X1160526Y1324249D01*
X1162655D01*
Y1310339D01*
X1109579D01*
Y1312468D01*
X1109455Y1313092D01*
X1109101Y1313622D01*
X1108572Y1313975D01*
X1107948Y1314099D01*
X1102868D01*
X1102244Y1313975D01*
X1102081Y1313867D01*
X1101565Y1313682D01*
X1100511Y1314106D01*
X1100381Y1314299D01*
X1099541Y1314861D01*
X1098550Y1315058D01*
X1097280D01*
Y1306118D01*
Y1297178D01*
X1097643D01*
X1098169Y1295908D01*
X1093787Y1291527D01*
X1092872Y1290157D01*
X1092551Y1288542D01*
X1091448Y1288081D01*
X1091291Y1288059D01*
X1090729Y1288899D01*
X1089889Y1289461D01*
X1088898Y1289658D01*
X1086589D01*
X1086022Y1290320D01*
X1080262D01*
Y1284893D01*
X1081228Y1284169D01*
Y1281988D01*
X1086358D01*
Y1280718D01*
X1087628D01*
Y1271778D01*
X1088898D01*
X1089889Y1271975D01*
X1090729Y1272537D01*
X1091291Y1273377D01*
X1091354Y1273368D01*
X1092551Y1273048D01*
X1092872Y1271433D01*
X1093787Y1270063D01*
X1100479Y1263372D01*
X1100444Y1263026D01*
X1100091Y1262496D01*
X1099967Y1261872D01*
Y1249172D01*
X1100091Y1248548D01*
X1100444Y1248018D01*
X1100904Y1247711D01*
X1100920Y1247617D01*
X1100348Y1246441D01*
X1094079D01*
X1093998Y1246532D01*
X1093517Y1247711D01*
X1093831Y1248181D01*
X1094028Y1249172D01*
Y1254252D01*
X1086358D01*
X1078688D01*
Y1249172D01*
X1078885Y1248181D01*
X1079199Y1247711D01*
X1078718Y1246532D01*
X1078637Y1246441D01*
X1074671D01*
Y1285241D01*
X1075941Y1285775D01*
X1077285Y1285218D01*
X1077722Y1285161D01*
Y1291590D01*
Y1298019D01*
X1077285Y1297962D01*
X1075941Y1297405D01*
X1074671Y1297939D01*
Y1343194D01*
X1077163Y1345685D01*
X1078078Y1347055D01*
X1078399Y1348670D01*
X1078399Y1348670D01*
Y1355414D01*
X1078399Y1355414D01*
X1078289Y1355969D01*
X1079331Y1357239D01*
X1082867D01*
X1083175Y1357033D01*
X1083476Y1356973D01*
X1083744Y1355625D01*
X1082677Y1354911D01*
X1081439Y1353059D01*
X1081004Y1350874D01*
X1081439Y1348689D01*
X1082137Y1347644D01*
Y1343767D01*
X1081278D01*
X1080654Y1343643D01*
X1080125Y1343289D01*
X1079771Y1342760D01*
X1079647Y1342136D01*
Y1329436D01*
X1079771Y1328812D01*
X1080125Y1328282D01*
X1080654Y1327929D01*
X1081278Y1327805D01*
X1082137D01*
Y1306118D01*
X1082187Y1305868D01*
Y1299768D01*
X1082311Y1299144D01*
X1082664Y1298614D01*
X1083194Y1298261D01*
X1083818Y1298137D01*
X1088898D01*
X1089522Y1298261D01*
X1089860Y1298487D01*
X1090230Y1298575D01*
X1091383Y1298320D01*
X1091639Y1297937D01*
X1092479Y1297375D01*
X1093470Y1297178D01*
X1094740D01*
Y1306118D01*
Y1315058D01*
X1093470D01*
X1092479Y1314861D01*
X1091849Y1314440D01*
X1091066Y1314677D01*
X1090579Y1314999D01*
Y1327805D01*
X1091438D01*
X1092062Y1327929D01*
X1092591Y1328282D01*
X1092945Y1328812D01*
X1093069Y1329436D01*
Y1342136D01*
X1092945Y1342760D01*
X1092591Y1343289D01*
X1092062Y1343643D01*
X1091438Y1343767D01*
X1090579D01*
Y1346721D01*
X1090751Y1346837D01*
X1091989Y1348689D01*
X1092424Y1350874D01*
X1091989Y1353059D01*
X1090751Y1354911D01*
X1088899Y1356149D01*
X1087395Y1356448D01*
X1087127Y1357796D01*
X1087175Y1357829D01*
X1087971Y1359019D01*
X1088251Y1360424D01*
X1087971Y1361829D01*
X1087175Y1363019D01*
X1085985Y1363815D01*
X1084580Y1364095D01*
X1083522Y1363884D01*
X1082732Y1364804D01*
X1082683Y1364913D01*
X1082847Y1365159D01*
X1083127Y1366564D01*
X1082847Y1367969D01*
X1082641Y1368277D01*
Y1391155D01*
X1084487Y1392389D01*
X1085725Y1394241D01*
X1086160Y1396426D01*
X1085725Y1398611D01*
X1085081Y1399574D01*
Y1413864D01*
X1084957Y1414488D01*
X1084604Y1415018D01*
X1084074Y1415371D01*
X1083450Y1415495D01*
X1077450D01*
X1076826Y1415371D01*
X1076296Y1415018D01*
X1076156Y1414807D01*
X1075872Y1414731D01*
X1075029D01*
X1074744Y1414807D01*
X1074604Y1415018D01*
X1074074Y1415371D01*
X1073450Y1415495D01*
X1067450D01*
X1066826Y1415371D01*
X1066233Y1415060D01*
X1065240Y1415723D01*
X1064441Y1416257D01*
X1063450Y1416454D01*
X1061720D01*
Y1406114D01*
Y1395774D01*
X1063450D01*
X1064441Y1395971D01*
X1064959Y1396317D01*
X1066039Y1395911D01*
X1066229Y1395755D01*
Y1391061D01*
X1064212D01*
X1062635Y1392115D01*
X1060450Y1392550D01*
X1058265Y1392115D01*
X1056413Y1390877D01*
X1055175Y1389025D01*
X1054740Y1386840D01*
X1055175Y1384655D01*
X1056413Y1382803D01*
X1058265Y1381565D01*
X1060450Y1381130D01*
X1062635Y1381565D01*
X1064212Y1382619D01*
X1066229D01*
Y1359142D01*
X1066229Y1359142D01*
X1066277Y1358900D01*
X1065242Y1357593D01*
X1063853Y1357317D01*
X1062722Y1356561D01*
X1025776D01*
X1025150Y1357831D01*
X1025784Y1358657D01*
X1026443Y1360248D01*
X1026500Y1360685D01*
X1013642D01*
X1013699Y1360248D01*
X1014358Y1358657D01*
X1014992Y1357831D01*
X1014366Y1356561D01*
X915784D01*
X915064Y1357831D01*
X915276Y1358900D01*
X914997Y1360305D01*
X914201Y1361495D01*
X913011Y1362291D01*
X911606Y1362570D01*
X910201Y1362291D01*
X909893Y1362085D01*
X899753D01*
X899753Y1362085D01*
X898534Y1361843D01*
X897500Y1361152D01*
X896945Y1360597D01*
X875612D01*
X875057Y1361152D01*
X874023Y1361843D01*
X872804Y1362085D01*
X872804Y1362085D01*
X871663D01*
X871355Y1362291D01*
X869950Y1362570D01*
X868545Y1362291D01*
X867355Y1361495D01*
X866559Y1360305D01*
X866280Y1358900D01*
X866543Y1357577D01*
X866537Y1357302D01*
X866006Y1356307D01*
X858259D01*
X858259Y1356307D01*
X856644Y1355986D01*
X855274Y1355071D01*
X855274Y1355071D01*
X848901Y1348697D01*
X847868Y1349437D01*
X848122Y1349952D01*
X849915Y1355232D01*
X851003Y1360701D01*
X851284Y1364996D01*
X808736D01*
Y1366266D01*
X807466D01*
Y1408814D01*
X803171Y1408533D01*
X797702Y1407445D01*
X797662Y1407431D01*
X796973Y1408539D01*
X799094Y1410659D01*
X799094Y1410659D01*
X799785Y1411693D01*
X800027Y1412912D01*
X800027Y1412912D01*
Y1433412D01*
X800027Y1433412D01*
X799785Y1434631D01*
X799094Y1435665D01*
X799094Y1435665D01*
X797341Y1437418D01*
X797800Y1438573D01*
X798873Y1438681D01*
X805087Y1432467D01*
Y1432285D01*
X804881Y1431977D01*
X804602Y1430572D01*
X804881Y1429167D01*
X805676Y1427977D01*
X806867Y1427181D01*
X808272Y1426902D01*
X809677Y1427181D01*
X810867Y1427977D01*
X811663Y1429167D01*
X811943Y1430572D01*
X811663Y1431977D01*
X811457Y1432285D01*
Y1433786D01*
X811457Y1433786D01*
X811215Y1435005D01*
X810524Y1436038D01*
X810524Y1436038D01*
X804339Y1442223D01*
X804825Y1443397D01*
X815326D01*
X815950Y1443521D01*
X816479Y1443875D01*
X816833Y1444404D01*
X816957Y1445028D01*
Y1457028D01*
X816833Y1457652D01*
X816479Y1458181D01*
X815950Y1458535D01*
X815326Y1458659D01*
X797326D01*
X796702Y1458535D01*
X796172Y1458181D01*
X794746Y1457981D01*
X794647Y1458011D01*
X788323Y1464335D01*
X788251Y1464699D01*
X787455Y1465889D01*
X786265Y1466685D01*
X784860Y1466965D01*
X783981Y1466790D01*
X782711Y1467599D01*
Y1488694D01*
X782469Y1489913D01*
X781778Y1490946D01*
X781778Y1490946D01*
X778934Y1493791D01*
X779133Y1494790D01*
X778853Y1496195D01*
X778057Y1497385D01*
X776867Y1498181D01*
X775462Y1498461D01*
X774699Y1498309D01*
X774448Y1498462D01*
X773583Y1499318D01*
X773905Y1500933D01*
Y1509870D01*
X773583Y1511485D01*
X772668Y1512855D01*
X772668Y1512855D01*
X763052Y1522471D01*
X761683Y1523386D01*
X760068Y1523707D01*
X760067Y1523707D01*
X753360D01*
X752595Y1524977D01*
X752796Y1525986D01*
X752509Y1527426D01*
X752105Y1528031D01*
X752784Y1529301D01*
X762545D01*
X763389Y1528737D01*
X764794Y1528457D01*
X766199Y1528737D01*
X767389Y1529533D01*
X768185Y1530723D01*
X768465Y1532128D01*
X768185Y1533533D01*
X767389Y1534723D01*
X766199Y1535519D01*
X764794Y1535798D01*
X764154Y1535671D01*
X761918D01*
X761239Y1536941D01*
X761327Y1537073D01*
X761607Y1538478D01*
X761327Y1539883D01*
X760531Y1541073D01*
X759341Y1541869D01*
X757936Y1542148D01*
X756531Y1541869D01*
X756223Y1541663D01*
X751668D01*
X750473Y1542462D01*
X749034Y1542748D01*
X738390D01*
X736951Y1542462D01*
X735730Y1541646D01*
X734915Y1540426D01*
X734628Y1538986D01*
X734915Y1537546D01*
X735569Y1536566D01*
X735663Y1535736D01*
X735569Y1534906D01*
X734915Y1533926D01*
X734628Y1532486D01*
X734915Y1531046D01*
X735569Y1530066D01*
X735663Y1529236D01*
X735569Y1528406D01*
X734915Y1527426D01*
X734628Y1525986D01*
X734915Y1524546D01*
X735569Y1523566D01*
X735663Y1522736D01*
X735569Y1521906D01*
X734915Y1520926D01*
X734628Y1519486D01*
X734915Y1518046D01*
X735569Y1517066D01*
X735663Y1516236D01*
X735569Y1515406D01*
X734915Y1514426D01*
X734628Y1512986D01*
X734915Y1511546D01*
X735239Y1511061D01*
X734972Y1509962D01*
X734123Y1509780D01*
X728640Y1515263D01*
X727607Y1515953D01*
X726388Y1516196D01*
X726388Y1516196D01*
X686476D01*
X685877Y1517316D01*
X686120Y1517679D01*
X686227Y1518216D01*
X666647D01*
X666754Y1517679D01*
X667777Y1516148D01*
X667772Y1514624D01*
X667640Y1514426D01*
X667353Y1512986D01*
X667640Y1511546D01*
X667921Y1511125D01*
X667358Y1510073D01*
X666067Y1509890D01*
X665811Y1510061D01*
X664406Y1510341D01*
X663001Y1510061D01*
X661811Y1509265D01*
X661015Y1508075D01*
X660735Y1506670D01*
X661015Y1505265D01*
X661811Y1504075D01*
X663001Y1503279D01*
X664406Y1503000D01*
X665811Y1503279D01*
X666119Y1503485D01*
X667598D01*
X668167Y1502215D01*
X667640Y1501426D01*
X667353Y1499986D01*
X667640Y1498546D01*
X668294Y1497566D01*
X668388Y1496736D01*
X668294Y1495906D01*
X667640Y1494926D01*
X667353Y1493486D01*
X667640Y1492046D01*
X668294Y1491066D01*
X668388Y1490236D01*
X668294Y1489406D01*
X667640Y1488426D01*
X667353Y1486986D01*
X667640Y1485546D01*
X667975Y1485044D01*
X667403Y1483958D01*
X666211Y1483926D01*
X666043Y1484177D01*
X664853Y1484973D01*
X663448Y1485253D01*
X662043Y1484973D01*
X660853Y1484177D01*
X660057Y1482987D01*
X659778Y1481582D01*
X660057Y1480177D01*
X660143Y1480049D01*
X659792Y1478561D01*
X659075Y1478081D01*
X658279Y1476891D01*
X657999Y1475486D01*
X658279Y1474081D01*
X659075Y1472891D01*
X660265Y1472095D01*
X660629Y1472023D01*
X662199Y1470452D01*
X661796Y1469060D01*
X660853Y1468429D01*
X660057Y1467239D01*
X658597Y1466411D01*
X658368Y1466456D01*
X656963Y1466177D01*
X655773Y1465381D01*
X654977Y1464191D01*
X654697Y1462786D01*
X654977Y1461381D01*
X655773Y1460191D01*
X656963Y1459395D01*
X658368Y1459115D01*
X658408Y1459123D01*
X665963Y1451568D01*
X673252Y1444279D01*
Y1440420D01*
X669025D01*
X668401Y1440296D01*
X667872Y1439942D01*
X667518Y1439413D01*
X667394Y1438789D01*
Y1434609D01*
X667518Y1433985D01*
X667872Y1433456D01*
X667886Y1432008D01*
X667640Y1431639D01*
X667498Y1430929D01*
X667055Y1430153D01*
X666119Y1430007D01*
X665480Y1430134D01*
X664075Y1429855D01*
X662885Y1429059D01*
X662089Y1427869D01*
X661809Y1426464D01*
X662089Y1425059D01*
X662885Y1423869D01*
X664075Y1423073D01*
X665480Y1422793D01*
X666450Y1422986D01*
X667878Y1421558D01*
X667777Y1420537D01*
X666754Y1419005D01*
X666647Y1418469D01*
X676437D01*
Y1415929D01*
X666647D01*
X666697Y1415679D01*
X666000Y1414409D01*
X663891D01*
X663583Y1414615D01*
X662178Y1414895D01*
X660773Y1414615D01*
X659583Y1413819D01*
X658787Y1412629D01*
X658508Y1411224D01*
X658787Y1409819D01*
X659583Y1408629D01*
X660773Y1407833D01*
X662178Y1407554D01*
X663583Y1407833D01*
X663891Y1408039D01*
X667654D01*
X668330Y1406933D01*
X668294Y1406619D01*
X667640Y1405639D01*
X667353Y1404199D01*
X667640Y1402759D01*
X668294Y1401779D01*
X668388Y1400949D01*
X668294Y1400119D01*
X667640Y1399139D01*
X667353Y1397699D01*
X667640Y1396259D01*
X668455Y1395039D01*
Y1393859D01*
X667640Y1392639D01*
X667353Y1391199D01*
X667640Y1389759D01*
X668294Y1388779D01*
X668388Y1387949D01*
X668294Y1387119D01*
X667640Y1386139D01*
X667353Y1384699D01*
X667640Y1383259D01*
X668294Y1382279D01*
X668388Y1381449D01*
X668294Y1380619D01*
X667640Y1379639D01*
X667353Y1378199D01*
X667640Y1376759D01*
X668294Y1375779D01*
X668388Y1374949D01*
X668294Y1374119D01*
X667640Y1373139D01*
X667353Y1371699D01*
X667640Y1370259D01*
X668455Y1369039D01*
Y1367859D01*
X667640Y1366639D01*
X667353Y1365199D01*
X667640Y1363759D01*
X668455Y1362539D01*
X669676Y1361723D01*
X671115Y1361437D01*
X681759D01*
X683198Y1361723D01*
X683633Y1362014D01*
X684225D01*
X684225Y1362014D01*
X685444Y1362256D01*
X685705Y1362430D01*
X686848Y1361667D01*
X686702Y1360932D01*
X686981Y1359527D01*
X687777Y1358337D01*
X688967Y1357541D01*
X690372Y1357262D01*
X691777Y1357541D01*
X692967Y1358337D01*
X693763Y1359527D01*
X693835Y1359891D01*
X695926Y1361982D01*
X695926Y1361982D01*
X696617Y1363015D01*
X696859Y1364234D01*
X696859Y1364234D01*
Y1370286D01*
X696617Y1371505D01*
X695926Y1372538D01*
X695951Y1372590D01*
X697281Y1373229D01*
X698500Y1372987D01*
X698500Y1372987D01*
X719393D01*
X719701Y1372781D01*
X719755Y1372770D01*
X720710Y1371285D01*
X720695Y1371209D01*
X720695Y1371209D01*
Y1369405D01*
X719425Y1368497D01*
X718756Y1368630D01*
X717352Y1368350D01*
X716161Y1367555D01*
X715748Y1366937D01*
X707678Y1358866D01*
X706987Y1357833D01*
X706745Y1356614D01*
X706745Y1356614D01*
Y1351215D01*
X706539Y1350907D01*
X706260Y1349502D01*
X706539Y1348097D01*
X707335Y1346907D01*
X708525Y1346111D01*
X709930Y1345831D01*
X711082Y1346060D01*
X711294Y1344992D01*
X711485Y1344707D01*
X711619Y1344033D01*
X712415Y1342843D01*
X713605Y1342047D01*
X715010Y1341767D01*
X716415Y1342047D01*
X716905Y1342374D01*
X718175Y1341696D01*
Y1340100D01*
X716905Y1339474D01*
X716742Y1339599D01*
X715151Y1340258D01*
X714714Y1340315D01*
Y1333886D01*
X712174D01*
Y1340315D01*
X711737Y1340258D01*
X710146Y1339599D01*
X709617Y1339193D01*
X707953Y1339397D01*
X707618Y1339622D01*
X707610Y1339633D01*
X707610Y1339633D01*
X701311Y1345932D01*
Y1348676D01*
X701311Y1348677D01*
X701069Y1349896D01*
X700500Y1350747D01*
X700367Y1351415D01*
X699571Y1352605D01*
X698381Y1353401D01*
X696976Y1353681D01*
X695571Y1353401D01*
X694381Y1352605D01*
X693585Y1351415D01*
X693567Y1351326D01*
X693351Y1351141D01*
X692165Y1350788D01*
X691229Y1351414D01*
X689613Y1351735D01*
X689613Y1351735D01*
X681876D01*
X681876Y1351735D01*
X680261Y1351414D01*
X679356Y1350809D01*
X670142D01*
X669735Y1351217D01*
X669735Y1351217D01*
X666477Y1354475D01*
X665107Y1355390D01*
X664718Y1355467D01*
X664299Y1356479D01*
X664578Y1357884D01*
X664299Y1359289D01*
X663503Y1360479D01*
X662313Y1361275D01*
X660908Y1361555D01*
X659503Y1361275D01*
X659195Y1361069D01*
X653105D01*
X652415Y1362339D01*
X652641Y1363472D01*
X652361Y1364877D01*
X652111Y1365251D01*
Y1376771D01*
X652138Y1376826D01*
X653381Y1377715D01*
X654050Y1377581D01*
X654719Y1377715D01*
X655989Y1376807D01*
Y1373885D01*
X655231Y1372751D01*
X654951Y1371346D01*
X655231Y1369941D01*
X656027Y1368751D01*
X657217Y1367955D01*
X658622Y1367675D01*
X660027Y1367955D01*
X661217Y1368751D01*
X661314Y1368896D01*
X661474Y1369002D01*
X662164Y1370036D01*
X662407Y1371254D01*
X662319Y1371696D01*
X662359Y1371898D01*
X662359Y1371898D01*
Y1399242D01*
X662359Y1399242D01*
X662117Y1400461D01*
X661426Y1401494D01*
X661426Y1401494D01*
X661248Y1401672D01*
X660215Y1402363D01*
X658996Y1402605D01*
X658996Y1402605D01*
X658608D01*
X652563Y1408650D01*
X652093Y1408964D01*
X652073Y1408993D01*
X650883Y1409789D01*
X649478Y1410069D01*
X648481Y1410992D01*
X649645Y1411889D01*
X649732Y1411871D01*
X651137Y1412151D01*
X652327Y1412947D01*
X653123Y1414137D01*
X653402Y1415542D01*
X653123Y1416947D01*
X652917Y1417255D01*
Y1417506D01*
X655928Y1420517D01*
X655928Y1420517D01*
X656619Y1421551D01*
X656861Y1422770D01*
Y1430034D01*
X660874Y1434047D01*
X660874Y1434047D01*
X661565Y1435080D01*
X661807Y1436299D01*
Y1436943D01*
X662013Y1437251D01*
X662292Y1438656D01*
X662013Y1440061D01*
X661217Y1441251D01*
X660027Y1442047D01*
X659852Y1443377D01*
X660093Y1444589D01*
X660093Y1444589D01*
Y1447152D01*
X659772Y1448767D01*
X658857Y1450137D01*
X658857Y1450137D01*
X648245Y1460748D01*
Y1464824D01*
X651491Y1468069D01*
X651491Y1468069D01*
X652406Y1469439D01*
X652727Y1471054D01*
Y1478029D01*
X652683Y1478250D01*
Y1485374D01*
X654031Y1486722D01*
X654031Y1486722D01*
X654946Y1488091D01*
X655242Y1489581D01*
X655370Y1489773D01*
X656537Y1490520D01*
X657352Y1490358D01*
X658757Y1490637D01*
X659947Y1491433D01*
X660743Y1492623D01*
X661022Y1494028D01*
X660743Y1495433D01*
X659947Y1496623D01*
X659895Y1496658D01*
Y1497346D01*
X659895Y1497346D01*
X659653Y1498565D01*
X658962Y1499598D01*
X658962Y1499598D01*
X653697Y1504863D01*
Y1512929D01*
X656556Y1515788D01*
X656556Y1515788D01*
X657247Y1516821D01*
X657489Y1518040D01*
X657489Y1518040D01*
Y1523189D01*
X659155Y1524855D01*
X659519Y1524927D01*
X660709Y1525723D01*
X661505Y1526913D01*
X661785Y1528318D01*
X661505Y1529723D01*
X660709Y1530913D01*
X660272Y1531206D01*
X659595Y1531910D01*
X659948Y1532834D01*
X660235Y1533263D01*
X660515Y1534668D01*
X660235Y1536073D01*
X659439Y1537263D01*
X658249Y1538059D01*
X656844Y1538338D01*
X655439Y1538059D01*
X655131Y1537853D01*
X646032D01*
X644813Y1537611D01*
X643780Y1536920D01*
X643780Y1536920D01*
X641088Y1534229D01*
X639567Y1534503D01*
X639137Y1535146D01*
Y1536326D01*
X639952Y1537546D01*
X640239Y1538986D01*
X639952Y1540426D01*
X639137Y1541646D01*
X639064Y1542390D01*
X642888Y1546215D01*
X653861D01*
X654169Y1546009D01*
X655574Y1545730D01*
X656979Y1546009D01*
X658169Y1546805D01*
X658965Y1547995D01*
X659245Y1549400D01*
X658965Y1550805D01*
X658169Y1551995D01*
X656979Y1552791D01*
X655574Y1553071D01*
X654169Y1552791D01*
X653861Y1552585D01*
X643693D01*
X643296Y1552851D01*
X642077Y1553093D01*
X640858Y1552851D01*
X639825Y1552160D01*
X639825Y1552160D01*
X630413Y1542748D01*
X625833D01*
X624394Y1542462D01*
X623173Y1541646D01*
X622357Y1540426D01*
X622071Y1538986D01*
X622357Y1537546D01*
X622762Y1536941D01*
X622150Y1535671D01*
X620931Y1535429D01*
X619898Y1534738D01*
X619898Y1534738D01*
X617947Y1532787D01*
X616773Y1533273D01*
Y1536181D01*
X616979Y1536489D01*
X617258Y1537894D01*
X616979Y1539299D01*
X616184Y1540490D01*
X614993Y1541285D01*
X613588Y1541564D01*
X612183Y1541285D01*
X610993Y1540490D01*
X610197Y1539299D01*
X609917Y1537894D01*
X610197Y1536489D01*
X610403Y1536181D01*
Y1520774D01*
X610403Y1520774D01*
X610645Y1519555D01*
X611336Y1518522D01*
X612929Y1516929D01*
X612443Y1515755D01*
X604201D01*
X603893Y1515961D01*
X602754Y1516188D01*
X602354Y1516954D01*
X602254Y1517483D01*
X605561Y1520791D01*
X605925Y1520863D01*
X607115Y1521659D01*
X607911Y1522849D01*
X608190Y1524254D01*
X607911Y1525659D01*
X607115Y1526849D01*
X605925Y1527645D01*
X604520Y1527924D01*
X603115Y1527645D01*
X601925Y1526849D01*
X601129Y1525659D01*
X601057Y1525295D01*
X592604Y1516842D01*
X591913Y1515809D01*
X591671Y1514590D01*
X591671Y1514590D01*
Y1433301D01*
X590401Y1432775D01*
X573661Y1449515D01*
X574079Y1450893D01*
X574683Y1451013D01*
X575873Y1451809D01*
X576669Y1452999D01*
X576949Y1454404D01*
X576669Y1455809D01*
X575873Y1456999D01*
X574683Y1457795D01*
X574319Y1457867D01*
X569665Y1462521D01*
X570083Y1463899D01*
X570641Y1464010D01*
X571862Y1464826D01*
X572677Y1466046D01*
X572708Y1466199D01*
X574086Y1466617D01*
X579213Y1461491D01*
X579285Y1461127D01*
X580081Y1459937D01*
X581271Y1459141D01*
X582676Y1458862D01*
X584081Y1459141D01*
X585271Y1459937D01*
X586067Y1461127D01*
X586347Y1462532D01*
X586067Y1463937D01*
X585271Y1465127D01*
X584081Y1465923D01*
X583717Y1465995D01*
X578749Y1470963D01*
Y1478026D01*
X578749Y1478026D01*
X578749Y1478026D01*
Y1501298D01*
X580019Y1501601D01*
X581761Y1500437D01*
X583946Y1500002D01*
X586131Y1500437D01*
X587983Y1501675D01*
X589221Y1503527D01*
X589656Y1505712D01*
X589221Y1507897D01*
X588167Y1509474D01*
Y1516428D01*
X589221Y1518005D01*
X589656Y1520190D01*
X589221Y1522375D01*
X588692Y1523167D01*
X589204Y1524686D01*
X589766Y1525062D01*
X599152Y1534448D01*
X599843Y1535481D01*
X600085Y1536700D01*
Y1539051D01*
X600291Y1539359D01*
X600570Y1540764D01*
X600291Y1542169D01*
X599495Y1543359D01*
X598305Y1544155D01*
X596900Y1544435D01*
X595495Y1544155D01*
X594305Y1543359D01*
X593509Y1542169D01*
X593229Y1540764D01*
X593509Y1539359D01*
X593715Y1539051D01*
Y1538019D01*
X586195Y1530499D01*
X582245D01*
X581202Y1531769D01*
X581274Y1532128D01*
X580839Y1534313D01*
X579601Y1536165D01*
X577749Y1537403D01*
X575564Y1537838D01*
X574193Y1537565D01*
X572923Y1538510D01*
Y1541076D01*
X572799Y1541700D01*
X572445Y1542229D01*
X571916Y1542583D01*
X571292Y1542707D01*
X556469D01*
X555844Y1542583D01*
X555315Y1542229D01*
X555276Y1542171D01*
X552196D01*
X552196Y1542171D01*
X550977Y1541929D01*
X549944Y1541238D01*
X545626Y1536920D01*
X544935Y1535887D01*
X544693Y1534668D01*
X544693Y1534668D01*
Y1530793D01*
X544487Y1530485D01*
X544207Y1529080D01*
X544487Y1527675D01*
X545283Y1526485D01*
X546473Y1525689D01*
X547878Y1525410D01*
X549283Y1525689D01*
X550473Y1526485D01*
X551269Y1527675D01*
X551549Y1529080D01*
X551269Y1530485D01*
X551063Y1530793D01*
Y1533349D01*
X553515Y1535801D01*
X554808D01*
X555322Y1535023D01*
X555329Y1534295D01*
X555083Y1533926D01*
X554796Y1532486D01*
X555083Y1531046D01*
X555737Y1530066D01*
X555831Y1529236D01*
X555737Y1528406D01*
X555083Y1527426D01*
X554796Y1525986D01*
X555083Y1524546D01*
X555215Y1524348D01*
X555220Y1522824D01*
X554197Y1521293D01*
X554090Y1520756D01*
X563880D01*
Y1518216D01*
X554090D01*
X554197Y1517679D01*
X554405Y1517368D01*
X553821Y1515957D01*
X553679Y1515929D01*
X552646Y1515238D01*
X551092Y1513685D01*
X550989Y1513531D01*
X549744Y1513283D01*
X549537Y1513421D01*
X548132Y1513701D01*
X546727Y1513421D01*
X545537Y1512625D01*
X544741Y1511435D01*
X544462Y1510030D01*
X544741Y1508625D01*
X544947Y1508317D01*
Y1434592D01*
X544947Y1434592D01*
X545189Y1433373D01*
X545880Y1432340D01*
X546629Y1431590D01*
X546519Y1431425D01*
X546240Y1430020D01*
X546519Y1428615D01*
X547315Y1427425D01*
X548505Y1426629D01*
X549910Y1426349D01*
X551315Y1426629D01*
X552505Y1427425D01*
X553301Y1428615D01*
X553581Y1430020D01*
X554804Y1430158D01*
X555083Y1428759D01*
X555737Y1427779D01*
X555831Y1426949D01*
X555737Y1426119D01*
X555083Y1425139D01*
X554796Y1423699D01*
X555083Y1422259D01*
X555215Y1422061D01*
X555220Y1420537D01*
X554197Y1419005D01*
X554090Y1418469D01*
X573670D01*
X573598Y1418828D01*
X574089Y1419605D01*
X574315Y1419831D01*
X575630Y1419748D01*
X576271Y1418789D01*
X577461Y1417993D01*
X578866Y1417713D01*
X580271Y1417993D01*
X581461Y1418789D01*
X582257Y1419979D01*
X582537Y1421384D01*
X582257Y1422789D01*
X581461Y1423979D01*
X580874Y1424372D01*
X580819Y1425862D01*
X581379Y1426237D01*
X582617Y1428089D01*
X582893Y1429477D01*
X584271Y1429895D01*
X591435Y1422732D01*
X591477Y1422519D01*
X592273Y1421329D01*
X593463Y1420533D01*
X594390Y1420349D01*
X594889Y1419093D01*
X594890Y1419053D01*
X589568Y1413730D01*
X588877Y1412697D01*
X588635Y1411478D01*
X588635Y1411478D01*
Y1398104D01*
X587365Y1397578D01*
X586139Y1398803D01*
X586067Y1399167D01*
X585271Y1400357D01*
X584081Y1401153D01*
X582676Y1401432D01*
X581271Y1401153D01*
X580081Y1400357D01*
X579285Y1399167D01*
X579006Y1397762D01*
X579285Y1396357D01*
X580081Y1395167D01*
X581271Y1394371D01*
X581635Y1394299D01*
X582793Y1393141D01*
Y1384012D01*
X582587Y1383703D01*
X582308Y1382299D01*
X582587Y1380894D01*
X583383Y1379703D01*
X584573Y1378908D01*
X585978Y1378628D01*
X587031Y1378838D01*
X588001Y1378135D01*
X588149Y1377950D01*
X588429Y1376545D01*
X588690Y1376154D01*
X588011Y1374884D01*
X578253D01*
X577930Y1375377D01*
X577696Y1376154D01*
X578248Y1376980D01*
X578490Y1378199D01*
X578248Y1379418D01*
X577601Y1380386D01*
Y1401450D01*
X577601Y1401451D01*
X577358Y1402669D01*
X576668Y1403703D01*
X573919Y1406451D01*
X572886Y1407142D01*
X572699Y1407179D01*
X572686Y1407192D01*
X572217Y1408570D01*
X572677Y1409259D01*
X572964Y1410699D01*
X572677Y1412139D01*
X572545Y1412337D01*
X572540Y1413861D01*
X573563Y1415392D01*
X573670Y1415929D01*
X554090D01*
X554197Y1415392D01*
X555220Y1413861D01*
X555215Y1412337D01*
X555083Y1412139D01*
X554796Y1410699D01*
X555083Y1409259D01*
X555737Y1408279D01*
X555831Y1407449D01*
X555737Y1406619D01*
X555083Y1405639D01*
X554796Y1404199D01*
X555083Y1402759D01*
X555737Y1401779D01*
X555831Y1400949D01*
X555737Y1400119D01*
X555083Y1399139D01*
X554796Y1397699D01*
X555083Y1396259D01*
X555487Y1395654D01*
X554808Y1394384D01*
X554777D01*
X553558Y1394142D01*
X552525Y1393451D01*
X551498Y1394176D01*
X551273Y1394344D01*
Y1406555D01*
X551315Y1406563D01*
X552505Y1407359D01*
X553301Y1408549D01*
X553581Y1409954D01*
X553301Y1411359D01*
X552505Y1412549D01*
X551315Y1413345D01*
X549910Y1413625D01*
X548505Y1413345D01*
X547315Y1412549D01*
X546519Y1411359D01*
X546447Y1410995D01*
X545836Y1410384D01*
X545145Y1409351D01*
X544903Y1408132D01*
X544903Y1408132D01*
Y1358944D01*
X544903Y1358944D01*
X545145Y1357725D01*
X545836Y1356692D01*
X554516Y1348012D01*
X555549Y1347321D01*
X556768Y1347079D01*
X556768Y1347079D01*
X563489D01*
Y1338525D01*
X563097Y1338133D01*
X556469D01*
X555844Y1338009D01*
X555315Y1337655D01*
X554961Y1337126D01*
X554837Y1336502D01*
Y1332322D01*
X554961Y1331698D01*
X555315Y1331169D01*
X555329Y1329721D01*
X555083Y1329352D01*
X554796Y1327912D01*
X555083Y1326472D01*
X555737Y1325492D01*
X555831Y1324662D01*
X555737Y1323832D01*
X555083Y1322852D01*
X554796Y1321412D01*
X555083Y1319972D01*
X555215Y1319774D01*
X555220Y1318250D01*
X554197Y1316718D01*
X554090Y1316182D01*
X563880D01*
Y1313642D01*
X554090D01*
X554197Y1313105D01*
X555220Y1311574D01*
X555215Y1310050D01*
X555083Y1309852D01*
X554796Y1308412D01*
X555071Y1307031D01*
X555075Y1306959D01*
X554383Y1305733D01*
X553694Y1305706D01*
X553531Y1305949D01*
X551679Y1307187D01*
X549494Y1307622D01*
X547309Y1307187D01*
X545457Y1305949D01*
X544219Y1304097D01*
X543784Y1301912D01*
X544219Y1299727D01*
X545457Y1297875D01*
X546979Y1296858D01*
Y1293622D01*
X546979Y1293622D01*
X547221Y1292403D01*
X547912Y1291370D01*
X552622Y1286660D01*
X553655Y1285969D01*
X554874Y1285727D01*
X554874Y1285727D01*
X555487Y1284457D01*
X555083Y1283852D01*
X554796Y1282412D01*
X555083Y1280972D01*
X555737Y1279992D01*
X555831Y1279162D01*
X555737Y1278332D01*
X555083Y1277352D01*
X554796Y1275912D01*
X555083Y1274472D01*
X555737Y1273492D01*
X555831Y1272662D01*
X555737Y1271832D01*
X555083Y1270852D01*
X554796Y1269412D01*
X555083Y1267972D01*
X555737Y1266992D01*
X555831Y1266162D01*
X555737Y1265332D01*
X555083Y1264352D01*
X554796Y1262912D01*
X555083Y1261472D01*
X555898Y1260252D01*
X557119Y1259436D01*
X558558Y1259150D01*
X569202D01*
X570641Y1259436D01*
X571862Y1260252D01*
X572677Y1261472D01*
X572964Y1262912D01*
X572677Y1264352D01*
X572262Y1264973D01*
X572941Y1266243D01*
X575565D01*
X575873Y1266037D01*
X577278Y1265758D01*
X577947Y1265891D01*
X579217Y1264983D01*
Y1263819D01*
X579011Y1263511D01*
X578732Y1262106D01*
X579011Y1260701D01*
X579807Y1259511D01*
X580997Y1258715D01*
X582402Y1258436D01*
X583807Y1258715D01*
X584997Y1259511D01*
X585793Y1260701D01*
X585952Y1261499D01*
X587301Y1261946D01*
X606405Y1242841D01*
X606405Y1242841D01*
X607775Y1241926D01*
X609390Y1241605D01*
X753574D01*
X753574Y1241605D01*
X755189Y1241926D01*
X756559Y1242841D01*
X759631Y1245914D01*
X760997Y1245483D01*
X761149Y1244719D01*
X761945Y1243529D01*
X763135Y1242733D01*
X764540Y1242454D01*
X765945Y1242733D01*
X766253Y1242939D01*
X792734D01*
X792734Y1242939D01*
X793454Y1243082D01*
X793457Y1243082D01*
X794650Y1242418D01*
X794819Y1242233D01*
X794931Y1241671D01*
X795727Y1240481D01*
X796917Y1239685D01*
X798322Y1239406D01*
X799727Y1239685D01*
X800035Y1239891D01*
X890778D01*
X890778Y1239891D01*
X891997Y1240133D01*
X893030Y1240824D01*
X898531Y1246324D01*
X898531Y1246324D01*
X899221Y1247358D01*
X899464Y1248577D01*
X899464Y1248577D01*
Y1276374D01*
X899903Y1276461D01*
X900432Y1276814D01*
X900786Y1277344D01*
X900910Y1277968D01*
Y1293468D01*
X900786Y1294092D01*
X900432Y1294621D01*
X899903Y1294975D01*
X899278Y1295099D01*
X893279D01*
X892654Y1294975D01*
X892125Y1294621D01*
X891984Y1294411D01*
X891700Y1294335D01*
X890857D01*
X890573Y1294411D01*
X890432Y1294621D01*
X889903Y1294975D01*
X889278Y1295099D01*
X888830D01*
X888531Y1295548D01*
X877028Y1307050D01*
X875995Y1307741D01*
X874776Y1307983D01*
X874776Y1307983D01*
X842453D01*
X842145Y1308189D01*
X841095Y1308398D01*
X840631Y1309390D01*
X840594Y1309694D01*
X861717Y1330816D01*
X862737Y1331019D01*
X864589Y1332257D01*
X865827Y1334109D01*
X866250Y1336234D01*
X866709Y1336540D01*
X867381Y1336899D01*
X932007Y1272273D01*
X931521Y1271099D01*
X923631D01*
X923007Y1270975D01*
X922477Y1270621D01*
X922124Y1270092D01*
X922000Y1269468D01*
Y1251468D01*
X922124Y1250844D01*
X922477Y1250314D01*
X923007Y1249961D01*
X923631Y1249837D01*
X935631D01*
X936255Y1249961D01*
X936785Y1250314D01*
X937138Y1250844D01*
X937262Y1251468D01*
Y1269468D01*
X937586Y1269863D01*
X949960D01*
X949960Y1269863D01*
X951179Y1270105D01*
X952212Y1270796D01*
X954883Y1273467D01*
X955574Y1274500D01*
X955816Y1275719D01*
X956255Y1276461D01*
X956785Y1276814D01*
X956925Y1277025D01*
X957209Y1277101D01*
X958053D01*
X958336Y1277025D01*
X958477Y1276814D01*
X959007Y1276461D01*
X959631Y1276337D01*
X965631D01*
X966255Y1276461D01*
X966785Y1276814D01*
X966925Y1277025D01*
X967209Y1277101D01*
X968052D01*
X968336Y1277025D01*
X968477Y1276814D01*
X969007Y1276461D01*
X969631Y1276337D01*
X975631D01*
X976255Y1276461D01*
X976785Y1276814D01*
X977138Y1277344D01*
X977262Y1277968D01*
Y1293468D01*
X977138Y1294092D01*
X976785Y1294621D01*
X976255Y1294975D01*
X975816Y1295063D01*
Y1298383D01*
X975816Y1298383D01*
X975574Y1299602D01*
X974883Y1300635D01*
X974883Y1300635D01*
X956471Y1319047D01*
X956399Y1319411D01*
X955603Y1320601D01*
X954413Y1321397D01*
X953008Y1321676D01*
X951603Y1321397D01*
X950413Y1320601D01*
X949617Y1319411D01*
X949337Y1318006D01*
X949617Y1316601D01*
X950413Y1315411D01*
X951603Y1314615D01*
X951967Y1314543D01*
X954186Y1312323D01*
X953561Y1311153D01*
X953008Y1311263D01*
X951603Y1310983D01*
X950413Y1310187D01*
X949617Y1308997D01*
X949337Y1307592D01*
X949617Y1306187D01*
X950413Y1304997D01*
X951603Y1304201D01*
X951967Y1304129D01*
X959446Y1296650D01*
Y1295063D01*
X959007Y1294975D01*
X958477Y1294621D01*
X958336Y1294411D01*
X958053Y1294335D01*
X957209D01*
X956925Y1294411D01*
X956785Y1294621D01*
X956255Y1294975D01*
X955631Y1295099D01*
X949631D01*
X949007Y1294975D01*
X948477Y1294621D01*
X948336Y1294411D01*
X948053Y1294335D01*
X947209D01*
X946925Y1294411D01*
X946785Y1294621D01*
X946255Y1294975D01*
X945816Y1295063D01*
Y1326859D01*
X945816Y1326859D01*
X945574Y1328078D01*
X944883Y1329111D01*
X928785Y1345209D01*
X928713Y1345573D01*
X927917Y1346763D01*
X927790Y1346849D01*
X928175Y1348119D01*
X956045D01*
X956724Y1346849D01*
X956380Y1346335D01*
X956101Y1344930D01*
X956380Y1343525D01*
X957176Y1342335D01*
X958367Y1341539D01*
X958730Y1341467D01*
X1014352Y1285845D01*
Y1277968D01*
X1014476Y1277344D01*
X1014830Y1276814D01*
X1015359Y1276461D01*
X1015983Y1276337D01*
X1021983D01*
X1022608Y1276461D01*
X1023137Y1276814D01*
X1023278Y1277025D01*
X1023562Y1277101D01*
X1024405D01*
X1024689Y1277025D01*
X1024830Y1276814D01*
X1025359Y1276461D01*
X1025983Y1276337D01*
X1031983D01*
X1032608Y1276461D01*
X1033137Y1276814D01*
X1033491Y1277344D01*
X1033615Y1277968D01*
Y1293468D01*
X1033491Y1294092D01*
X1033137Y1294621D01*
X1032608Y1294975D01*
X1031983Y1295099D01*
X1031394D01*
X1031236Y1295337D01*
X979724Y1346849D01*
X980206Y1348012D01*
X980327Y1348119D01*
X1061924D01*
X1062001Y1348005D01*
X1063853Y1346767D01*
X1065242Y1346491D01*
X1066277Y1345184D01*
X1066229Y1344942D01*
X1066229Y1344942D01*
Y1242220D01*
X1066550Y1240605D01*
X1067465Y1239235D01*
X1067980Y1238891D01*
X1067595Y1237621D01*
X621029Y1237621D01*
X619759Y1237621D01*
X618490Y1237624D01*
X609354Y1238023D01*
X599028Y1239383D01*
X588860Y1241637D01*
X578927Y1244769D01*
X569304Y1248754D01*
X560066Y1253564D01*
X551282Y1259160D01*
X543019Y1265500D01*
X535341Y1272536D01*
X528304Y1280215D01*
X521964Y1288478D01*
X516368Y1297262D01*
X511559Y1306500D01*
X507573Y1316122D01*
X504441Y1326055D01*
X502187Y1336223D01*
X500828Y1346549D01*
X500429Y1355686D01*
X500426Y1356955D01*
X500426Y1358225D01*
X500425Y1396040D01*
X500373Y1396443D01*
X500864Y1413948D01*
X502369Y1431799D01*
X504874Y1449538D01*
X508369Y1467108D01*
X512843Y1484455D01*
X518284Y1501523D01*
X524672Y1518260D01*
X531989Y1534612D01*
X540212Y1550528D01*
X549314Y1565958D01*
X559267Y1580854D01*
X568624Y1593288D01*
X569464Y1594243D01*
X569464Y1594243D01*
X573025Y1598760D01*
X581300Y1607712D01*
X590253Y1615988D01*
X599828Y1623536D01*
X609965Y1630309D01*
X620602Y1636267D01*
X631674Y1641371D01*
X643112Y1645591D01*
X654846Y1648900D01*
X666804Y1651279D01*
X678911Y1652712D01*
X691094Y1653190D01*
X703276Y1652712D01*
D02*
G37*
G36*
X604713Y1418070D02*
Y1412008D01*
X603443Y1410996D01*
X602996Y1411084D01*
X601591Y1410805D01*
X600401Y1410009D01*
X599605Y1408819D01*
X599325Y1407414D01*
X599605Y1406009D01*
X599811Y1405701D01*
Y1378393D01*
X599605Y1378085D01*
X599336Y1376732D01*
X597488Y1374884D01*
X595629D01*
X594950Y1376154D01*
X595211Y1376545D01*
X595490Y1377950D01*
X595211Y1379355D01*
X595005Y1379663D01*
Y1410159D01*
X603443Y1418596D01*
X604713Y1418070D01*
D02*
G37*
G36*
X850337Y1334089D02*
X850887Y1333721D01*
X851136Y1332175D01*
X830731Y1311769D01*
X790081D01*
X789164Y1313039D01*
X789293Y1313688D01*
X789122Y1314547D01*
X789940Y1315817D01*
X828802D01*
X828802Y1315817D01*
X830417Y1316138D01*
X831787Y1317053D01*
X847264Y1332530D01*
X847264Y1332530D01*
X848179Y1333900D01*
X848379Y1334906D01*
X848716Y1335015D01*
X849701Y1335040D01*
X850337Y1334089D01*
D02*
G37*
G36*
X576963Y1437203D02*
X576545Y1435825D01*
X575157Y1435549D01*
X574193Y1434905D01*
X572923Y1435584D01*
Y1438789D01*
X572799Y1439413D01*
X572445Y1439942D01*
X571916Y1440296D01*
X571292Y1440420D01*
X556469D01*
X555844Y1440296D01*
X555315Y1439942D01*
X555276Y1439884D01*
X553795D01*
X553795Y1439884D01*
X552576Y1439642D01*
X551317Y1440328D01*
Y1461190D01*
X552491Y1461676D01*
X576963Y1437203D01*
D02*
G37*
G36*
X794894Y1275992D02*
X794979Y1275924D01*
X795086Y1275711D01*
X794651Y1275059D01*
X794216Y1272874D01*
X794651Y1270689D01*
X795889Y1268837D01*
X797741Y1267599D01*
X799926Y1267164D01*
X802111Y1267599D01*
X803963Y1268837D01*
X805201Y1270689D01*
X805471Y1272045D01*
X806741Y1271920D01*
Y1264635D01*
X791415Y1249309D01*
X784839D01*
X784780Y1249373D01*
X784277Y1250579D01*
X784373Y1250724D01*
X784497Y1251348D01*
Y1266151D01*
X785671Y1266637D01*
X787577Y1264730D01*
X787819Y1263515D01*
X788615Y1262325D01*
X789805Y1261529D01*
X791210Y1261249D01*
X792615Y1261529D01*
X793805Y1262325D01*
X794601Y1263515D01*
X794881Y1264920D01*
X794601Y1266325D01*
X793805Y1267515D01*
X793595Y1267656D01*
X793462Y1267854D01*
X793462Y1267854D01*
X786278Y1275039D01*
X786833Y1276151D01*
X786896Y1276217D01*
X792866D01*
X793490Y1276341D01*
X794894Y1275992D01*
D02*
G37*
G36*
X700595Y1327166D02*
X704878Y1322883D01*
X704878Y1322883D01*
X706247Y1321968D01*
X707863Y1321647D01*
X707863Y1321647D01*
X709459D01*
X710072Y1321525D01*
X710072Y1321525D01*
X713484D01*
X713737Y1321356D01*
X714806Y1320287D01*
X714774Y1319319D01*
X714679Y1318911D01*
X714584Y1318758D01*
X713394Y1317844D01*
X712345Y1316478D01*
X711310Y1316164D01*
X711081Y1316317D01*
X709676Y1316597D01*
X708271Y1316317D01*
X707081Y1315521D01*
X706285Y1314331D01*
X706005Y1312926D01*
X706285Y1311521D01*
X707081Y1310331D01*
X707800Y1309850D01*
X707961Y1309040D01*
X708652Y1308007D01*
X713598Y1303060D01*
X713112Y1301887D01*
X710017D01*
X709223Y1303075D01*
X708033Y1303871D01*
X706628Y1304151D01*
X705223Y1303871D01*
X705203Y1303858D01*
X705070Y1303877D01*
X703971Y1304562D01*
Y1312991D01*
X704177Y1313299D01*
X704456Y1314704D01*
X704177Y1316109D01*
X703381Y1317299D01*
X702191Y1318095D01*
X700786Y1318374D01*
X699381Y1318095D01*
X698191Y1317299D01*
X697395Y1316109D01*
X697115Y1314704D01*
X697395Y1313299D01*
X697601Y1312991D01*
Y1305355D01*
X696502Y1304256D01*
X695811Y1303223D01*
X695569Y1302004D01*
X695569Y1302004D01*
Y1294827D01*
X695363Y1294519D01*
X695083Y1293114D01*
X695136Y1292849D01*
X694331Y1291867D01*
X684306D01*
X684186Y1292007D01*
X683743Y1293137D01*
X684328Y1294012D01*
X684614Y1295452D01*
X684328Y1296892D01*
X684413Y1297236D01*
X685052Y1298093D01*
X685648Y1298028D01*
X686253Y1297123D01*
X687443Y1296327D01*
X688848Y1296048D01*
X690253Y1296327D01*
X691443Y1297123D01*
X692239Y1298313D01*
X692518Y1299718D01*
X692239Y1301123D01*
X691443Y1302313D01*
X690253Y1303109D01*
X689889Y1303181D01*
X688866Y1304204D01*
X687833Y1304895D01*
X686614Y1305137D01*
X686614Y1305137D01*
X684603D01*
X683924Y1306407D01*
X684328Y1307012D01*
X684614Y1308452D01*
X684328Y1309892D01*
X684195Y1310090D01*
X684190Y1311614D01*
X685213Y1313145D01*
X685320Y1313682D01*
X675530D01*
Y1316222D01*
X685320D01*
X685213Y1316759D01*
X684190Y1318290D01*
X684195Y1319814D01*
X684328Y1320012D01*
X684614Y1321452D01*
X684401Y1322525D01*
X685136Y1323795D01*
X689808D01*
X691385Y1322741D01*
X693570Y1322306D01*
X695755Y1322741D01*
X697607Y1323979D01*
X698845Y1325831D01*
X699026Y1326740D01*
X699051Y1326770D01*
X700428Y1327278D01*
X700595Y1327166D01*
D02*
G37*
%LPC*%
G36*
X1199540Y1356584D02*
X1197355Y1356149D01*
X1195503Y1354911D01*
X1194265Y1353059D01*
X1193830Y1350874D01*
X1194265Y1348689D01*
X1195319Y1347112D01*
Y1319380D01*
X1194265Y1317803D01*
X1193830Y1315618D01*
X1194265Y1313433D01*
X1195503Y1311581D01*
X1197355Y1310343D01*
X1199540Y1309908D01*
X1201725Y1310343D01*
X1203577Y1311581D01*
X1204815Y1313433D01*
X1205250Y1315618D01*
X1204815Y1317803D01*
X1203761Y1319380D01*
Y1347112D01*
X1204815Y1348689D01*
X1205250Y1350874D01*
X1204815Y1353059D01*
X1203577Y1354911D01*
X1201725Y1356149D01*
X1199540Y1356584D01*
D02*
G37*
G36*
X1114348Y1334516D02*
X1107948D01*
Y1326846D01*
X1111758D01*
X1112749Y1327043D01*
X1113589Y1327605D01*
X1114151Y1328445D01*
X1114348Y1329436D01*
Y1334516D01*
D02*
G37*
G36*
X1193596Y1330960D02*
X1187196D01*
Y1323290D01*
X1191006D01*
X1191997Y1323487D01*
X1192837Y1324049D01*
X1193399Y1324889D01*
X1193596Y1325880D01*
Y1330960D01*
D02*
G37*
G36*
X1105408Y1334516D02*
X1099008D01*
Y1329436D01*
X1099205Y1328445D01*
X1099767Y1327605D01*
X1100607Y1327043D01*
X1101598Y1326846D01*
X1105408D01*
Y1334516D01*
D02*
G37*
G36*
X1202648Y1373246D02*
X1200463Y1372811D01*
X1198611Y1371573D01*
X1197373Y1369721D01*
X1196938Y1367536D01*
X1197373Y1365351D01*
X1198611Y1363499D01*
X1200463Y1362261D01*
X1201181Y1362118D01*
X1225591Y1337708D01*
Y1318962D01*
X1225715Y1318338D01*
X1226068Y1317809D01*
X1226598Y1317455D01*
X1227222Y1317331D01*
X1245722D01*
X1246346Y1317455D01*
X1246460Y1317531D01*
X1247608Y1316793D01*
X1247374Y1315618D01*
X1247530Y1314836D01*
X1247230Y1314476D01*
X1246419Y1313913D01*
X1245722Y1314052D01*
X1237742D01*
Y1297982D01*
X1248312D01*
Y1310569D01*
X1249582Y1311223D01*
X1250899Y1310343D01*
X1253084Y1309908D01*
X1255269Y1310343D01*
X1256846Y1311397D01*
X1273113D01*
X1273452Y1310762D01*
X1273596Y1310211D01*
X1273566Y1310049D01*
X1273361Y1309742D01*
X1273237Y1309118D01*
Y1303118D01*
X1273361Y1302494D01*
X1273715Y1301965D01*
X1274244Y1301611D01*
X1274868Y1301487D01*
X1276000D01*
Y1297557D01*
X1276370Y1295694D01*
X1277425Y1294114D01*
X1279005Y1293059D01*
X1280868Y1292688D01*
X1302753D01*
X1303843Y1291960D01*
X1305706Y1291589D01*
X1305706Y1291590D01*
X1337351D01*
Y1281708D01*
X1337475Y1281084D01*
X1337829Y1280555D01*
X1338358Y1280201D01*
X1338982Y1280077D01*
X1357482D01*
X1358106Y1280201D01*
X1358636Y1280555D01*
X1358989Y1281084D01*
X1359113Y1281708D01*
Y1311208D01*
X1358989Y1311832D01*
X1358636Y1312361D01*
X1358106Y1312715D01*
X1357482Y1312839D01*
X1338982D01*
X1338358Y1312715D01*
X1337829Y1312361D01*
X1337475Y1311832D01*
X1337351Y1311208D01*
Y1301327D01*
X1326729D01*
X1326167Y1302466D01*
X1326229Y1302546D01*
X1326888Y1304137D01*
X1326945Y1304574D01*
X1320516D01*
Y1305844D01*
X1319246D01*
Y1312273D01*
X1318809Y1312216D01*
X1317218Y1311557D01*
X1315852Y1310508D01*
X1315553Y1310120D01*
X1315048Y1310116D01*
X1314113Y1310329D01*
X1313699Y1310949D01*
X1313265Y1311239D01*
X1313266Y1311244D01*
X1313460Y1312418D01*
X1313499Y1312618D01*
Y1318618D01*
X1313375Y1319242D01*
X1313122Y1319621D01*
X1313022Y1319779D01*
Y1320957D01*
X1313122Y1321115D01*
X1313375Y1321494D01*
X1313499Y1322118D01*
Y1325864D01*
X1318045Y1330410D01*
X1337351D01*
Y1318708D01*
X1337475Y1318084D01*
X1337829Y1317554D01*
X1338358Y1317201D01*
X1338982Y1317077D01*
X1357482D01*
X1358106Y1317201D01*
X1358636Y1317554D01*
X1358989Y1318084D01*
X1359113Y1318708D01*
Y1348208D01*
X1358989Y1348832D01*
X1358636Y1349362D01*
X1358106Y1349715D01*
X1357482Y1349839D01*
X1338982D01*
X1338358Y1349715D01*
X1337829Y1349362D01*
X1337475Y1348832D01*
X1337351Y1348208D01*
Y1340146D01*
X1316028D01*
X1314165Y1339776D01*
X1312585Y1338721D01*
X1312585Y1338721D01*
X1303614Y1329749D01*
X1299868D01*
X1299244Y1329625D01*
X1298714Y1329272D01*
X1298361Y1328742D01*
X1298237Y1328118D01*
Y1322118D01*
X1298273Y1321935D01*
X1297459Y1320916D01*
X1296512Y1321226D01*
Y1330096D01*
X1296512Y1330096D01*
X1296141Y1331959D01*
X1295086Y1333538D01*
X1291288Y1337336D01*
X1289709Y1338391D01*
X1287846Y1338762D01*
X1262555D01*
X1260692Y1338391D01*
X1259750Y1337762D01*
X1247353D01*
Y1348462D01*
X1247229Y1349086D01*
X1246876Y1349615D01*
X1246346Y1349969D01*
X1245722Y1350093D01*
X1227222D01*
X1227017Y1350052D01*
X1208066Y1369003D01*
X1207923Y1369721D01*
X1206685Y1371573D01*
X1204833Y1372811D01*
X1202648Y1373246D01*
D02*
G37*
G36*
X810006Y1408814D02*
Y1367536D01*
X851284D01*
X851003Y1371830D01*
X849915Y1377300D01*
X848122Y1382580D01*
X845656Y1387582D01*
X842558Y1392218D01*
X838881Y1396411D01*
X834688Y1400088D01*
X830052Y1403186D01*
X825050Y1405652D01*
X819770Y1407445D01*
X814301Y1408533D01*
X810006Y1408814D01*
D02*
G37*
G36*
X1021341Y1368384D02*
Y1363225D01*
X1026500D01*
X1026443Y1363662D01*
X1025784Y1365253D01*
X1024735Y1366619D01*
X1023369Y1367668D01*
X1021778Y1368327D01*
X1021341Y1368384D01*
D02*
G37*
G36*
X1018801D02*
X1018364Y1368327D01*
X1016773Y1367668D01*
X1015407Y1366619D01*
X1014358Y1365253D01*
X1013699Y1363662D01*
X1013642Y1363225D01*
X1018801D01*
Y1368384D01*
D02*
G37*
G36*
X1289434Y1414526D02*
X1248156D01*
Y1373248D01*
X1252450Y1373529D01*
X1257920Y1374617D01*
X1263200Y1376410D01*
X1268202Y1378876D01*
X1272838Y1381974D01*
X1277031Y1385651D01*
X1280708Y1389844D01*
X1283806Y1394480D01*
X1286272Y1399482D01*
X1288065Y1404762D01*
X1289153Y1410231D01*
X1289434Y1414526D01*
D02*
G37*
G36*
X1245616D02*
X1204338D01*
X1204619Y1410231D01*
X1205707Y1404762D01*
X1207500Y1399482D01*
X1209966Y1394480D01*
X1213064Y1389844D01*
X1216741Y1385651D01*
X1220934Y1381974D01*
X1225570Y1378876D01*
X1230572Y1376410D01*
X1235852Y1374617D01*
X1241321Y1373529D01*
X1245616Y1373248D01*
Y1414526D01*
D02*
G37*
G36*
X1099450Y1391495D02*
X1087450D01*
X1086826Y1391371D01*
X1086296Y1391017D01*
X1085943Y1390488D01*
X1085819Y1389864D01*
Y1371864D01*
X1085943Y1371240D01*
X1086296Y1370710D01*
X1086826Y1370357D01*
X1087450Y1370233D01*
X1099450D01*
X1100074Y1370357D01*
X1100603Y1370710D01*
X1100957Y1371240D01*
X1101081Y1371864D01*
Y1389864D01*
X1100957Y1390488D01*
X1100603Y1391017D01*
X1100074Y1391371D01*
X1099450Y1391495D01*
D02*
G37*
G36*
X1105408Y1344726D02*
X1101598D01*
X1100607Y1344529D01*
X1099767Y1343967D01*
X1099205Y1343127D01*
X1099008Y1342136D01*
Y1337056D01*
X1105408D01*
Y1344726D01*
D02*
G37*
G36*
X1191006Y1341170D02*
X1187196D01*
Y1333500D01*
X1193596D01*
Y1338580D01*
X1193399Y1339571D01*
X1192837Y1340411D01*
X1191997Y1340973D01*
X1191006Y1341170D01*
D02*
G37*
G36*
X1184656D02*
X1180846D01*
X1179855Y1340973D01*
X1179015Y1340411D01*
X1178453Y1339571D01*
X1178256Y1338580D01*
Y1333500D01*
X1184656D01*
Y1341170D01*
D02*
G37*
G36*
X1166368Y1404473D02*
X1153668D01*
X1153044Y1404349D01*
X1152514Y1403996D01*
X1152161Y1403466D01*
X1152037Y1402842D01*
Y1394285D01*
X1125449Y1367697D01*
X1125085Y1367625D01*
X1123895Y1366829D01*
X1123099Y1365639D01*
X1122820Y1364234D01*
X1123099Y1362829D01*
X1123895Y1361639D01*
X1125085Y1360843D01*
X1126490Y1360564D01*
X1127895Y1360843D01*
X1129085Y1361639D01*
X1129881Y1362829D01*
X1129953Y1363193D01*
X1157811Y1391051D01*
X1166368D01*
X1166992Y1391175D01*
X1167522Y1391528D01*
X1167875Y1392058D01*
X1167999Y1392682D01*
Y1402842D01*
X1167875Y1403466D01*
X1167522Y1403996D01*
X1166992Y1404349D01*
X1166368Y1404473D01*
D02*
G37*
G36*
Y1384153D02*
X1153668D01*
X1153044Y1384029D01*
X1152514Y1383676D01*
X1152161Y1383146D01*
X1152037Y1382522D01*
Y1373965D01*
X1141959Y1363887D01*
X1141595Y1363815D01*
X1140405Y1363019D01*
X1139609Y1361829D01*
X1139330Y1360424D01*
X1139609Y1359019D01*
X1140405Y1357829D01*
X1141595Y1357033D01*
X1143000Y1356754D01*
X1144405Y1357033D01*
X1145595Y1357829D01*
X1146391Y1359019D01*
X1146463Y1359383D01*
X1157811Y1370731D01*
X1166368D01*
X1166992Y1370855D01*
X1167522Y1371208D01*
X1167875Y1371738D01*
X1167999Y1372362D01*
Y1382522D01*
X1167875Y1383146D01*
X1167522Y1383676D01*
X1166992Y1384029D01*
X1166368Y1384153D01*
D02*
G37*
G36*
X1111758Y1344726D02*
X1107948D01*
Y1337056D01*
X1114348D01*
Y1342136D01*
X1114151Y1343127D01*
X1113589Y1343967D01*
X1112749Y1344529D01*
X1111758Y1344726D01*
D02*
G37*
G36*
X1188466Y1315058D02*
X1187196D01*
Y1307388D01*
X1191056D01*
Y1312468D01*
X1190859Y1313459D01*
X1190297Y1314299D01*
X1189457Y1314861D01*
X1188466Y1315058D01*
D02*
G37*
G36*
X1285066Y1275812D02*
X1280746D01*
Y1269332D01*
X1280943Y1268341D01*
X1281505Y1267501D01*
X1282345Y1266939D01*
X1283336Y1266742D01*
X1285066D01*
Y1275812D01*
D02*
G37*
G36*
X1289336Y1287422D02*
X1287606D01*
Y1277082D01*
Y1266742D01*
X1289336D01*
X1290327Y1266939D01*
X1290412Y1266996D01*
X1290887Y1266799D01*
X1292125Y1264947D01*
X1293977Y1263709D01*
X1296162Y1263274D01*
X1298347Y1263709D01*
X1300199Y1264947D01*
X1301437Y1266799D01*
X1301872Y1268984D01*
X1301437Y1271169D01*
X1300967Y1271872D01*
Y1284832D01*
X1300843Y1285456D01*
X1300490Y1285986D01*
X1299960Y1286339D01*
X1299336Y1286463D01*
X1293336D01*
X1292712Y1286339D01*
X1292119Y1286028D01*
X1291126Y1286691D01*
X1290327Y1287225D01*
X1289336Y1287422D01*
D02*
G37*
G36*
X1319246Y1275812D02*
X1314087D01*
X1314144Y1275375D01*
X1314803Y1273784D01*
X1315852Y1272418D01*
X1317218Y1271369D01*
X1318809Y1270710D01*
X1319246Y1270653D01*
Y1275812D01*
D02*
G37*
G36*
X1085088Y1279448D02*
X1081228D01*
Y1274368D01*
X1081425Y1273377D01*
X1081987Y1272537D01*
X1082827Y1271975D01*
X1083818Y1271778D01*
X1085088D01*
Y1279448D01*
D02*
G37*
G36*
X1326945Y1275812D02*
X1321786D01*
Y1270653D01*
X1322223Y1270710D01*
X1323814Y1271369D01*
X1325180Y1272418D01*
X1326229Y1273784D01*
X1326888Y1275375D01*
X1326945Y1275812D01*
D02*
G37*
G36*
X1091438Y1264462D02*
X1087628D01*
Y1256792D01*
X1094028D01*
Y1261872D01*
X1093831Y1262863D01*
X1093269Y1263703D01*
X1092429Y1264265D01*
X1091438Y1264462D01*
D02*
G37*
G36*
X1047983Y1271099D02*
X1035983D01*
X1035359Y1270975D01*
X1034830Y1270621D01*
X1034476Y1270092D01*
X1034352Y1269468D01*
Y1251468D01*
X1034476Y1250844D01*
X1034830Y1250314D01*
X1035359Y1249961D01*
X1035983Y1249837D01*
X1047983D01*
X1048608Y1249961D01*
X1049137Y1250314D01*
X1049491Y1250844D01*
X1049615Y1251468D01*
Y1269468D01*
X1049491Y1270092D01*
X1049137Y1270621D01*
X1048608Y1270975D01*
X1047983Y1271099D01*
D02*
G37*
G36*
X1011983D02*
X999983D01*
X999359Y1270975D01*
X998830Y1270621D01*
X998476Y1270092D01*
X998352Y1269468D01*
Y1251468D01*
X998476Y1250844D01*
X998830Y1250314D01*
X999359Y1249961D01*
X999983Y1249837D01*
X1011983D01*
X1012608Y1249961D01*
X1013137Y1250314D01*
X1013491Y1250844D01*
X1013615Y1251468D01*
Y1269468D01*
X1013491Y1270092D01*
X1013137Y1270621D01*
X1012608Y1270975D01*
X1011983Y1271099D01*
D02*
G37*
G36*
X1164336Y1262938D02*
X1160526D01*
X1159535Y1262741D01*
X1158695Y1262179D01*
X1158133Y1261339D01*
X1157936Y1260348D01*
Y1255268D01*
X1164336D01*
Y1262938D01*
D02*
G37*
G36*
X1085088Y1264462D02*
X1081278D01*
X1080287Y1264265D01*
X1079447Y1263703D01*
X1078885Y1262863D01*
X1078688Y1261872D01*
Y1256792D01*
X1085088D01*
Y1264462D01*
D02*
G37*
G36*
X1170686Y1262938D02*
X1166876D01*
Y1255268D01*
X1173276D01*
Y1260348D01*
X1173079Y1261339D01*
X1172517Y1262179D01*
X1171677Y1262741D01*
X1170686Y1262938D01*
D02*
G37*
G36*
X1191056Y1304848D02*
X1187196D01*
Y1297178D01*
X1188466D01*
X1189457Y1297375D01*
X1190297Y1297937D01*
X1190859Y1298777D01*
X1191056Y1299768D01*
Y1304848D01*
D02*
G37*
G36*
X1184656D02*
X1180796D01*
Y1299768D01*
X1180993Y1298777D01*
X1181555Y1297937D01*
X1182395Y1297375D01*
X1183386Y1297178D01*
X1184656D01*
Y1304848D01*
D02*
G37*
G36*
X1235202Y1314052D02*
X1227222D01*
X1226231Y1313855D01*
X1225391Y1313293D01*
X1224829Y1312453D01*
X1224632Y1311462D01*
Y1297982D01*
X1235202D01*
Y1314052D01*
D02*
G37*
G36*
X1184656Y1315058D02*
X1183386D01*
X1182395Y1314861D01*
X1181555Y1314299D01*
X1180993Y1313459D01*
X1180796Y1312468D01*
Y1307388D01*
X1184656D01*
Y1315058D01*
D02*
G37*
G36*
X1321786Y1312273D02*
Y1307114D01*
X1326945D01*
X1326888Y1307551D01*
X1326229Y1309142D01*
X1325180Y1310508D01*
X1323814Y1311557D01*
X1322223Y1312216D01*
X1321786Y1312273D01*
D02*
G37*
G36*
X1080262Y1298019D02*
Y1292860D01*
X1085421D01*
X1085364Y1293297D01*
X1084705Y1294888D01*
X1083656Y1296254D01*
X1082290Y1297303D01*
X1080699Y1297962D01*
X1080262Y1298019D01*
D02*
G37*
G36*
X1319246Y1283511D02*
X1318809Y1283454D01*
X1317218Y1282795D01*
X1315852Y1281746D01*
X1314803Y1280380D01*
X1314144Y1278789D01*
X1314087Y1278352D01*
X1319246D01*
Y1283511D01*
D02*
G37*
G36*
X1285066Y1287422D02*
X1283336D01*
X1282345Y1287225D01*
X1281505Y1286663D01*
X1280943Y1285823D01*
X1280746Y1284832D01*
Y1278352D01*
X1285066D01*
Y1287422D01*
D02*
G37*
G36*
X1321786Y1283511D02*
Y1278352D01*
X1326945D01*
X1326888Y1278789D01*
X1326229Y1280380D01*
X1325180Y1281746D01*
X1323814Y1282795D01*
X1322223Y1283454D01*
X1321786Y1283511D01*
D02*
G37*
G36*
X1248312Y1295442D02*
X1237742D01*
Y1279372D01*
X1245722D01*
X1246713Y1279569D01*
X1247553Y1280131D01*
X1248115Y1280971D01*
X1248312Y1281962D01*
Y1295442D01*
D02*
G37*
G36*
X1235202D02*
X1224632D01*
Y1281962D01*
X1224829Y1280971D01*
X1225391Y1280131D01*
X1226231Y1279569D01*
X1227222Y1279372D01*
X1235202D01*
Y1295442D01*
D02*
G37*
G36*
X1169416Y1504549D02*
X1156716D01*
X1156092Y1504425D01*
X1155562Y1504072D01*
X1155209Y1503542D01*
X1155085Y1502918D01*
Y1492758D01*
X1155209Y1492134D01*
X1155562Y1491604D01*
X1156092Y1491251D01*
X1156716Y1491127D01*
X1169416D01*
X1170040Y1491251D01*
X1170570Y1491604D01*
X1170923Y1492134D01*
X1171047Y1492758D01*
Y1502918D01*
X1170923Y1503542D01*
X1170570Y1504072D01*
X1170040Y1504425D01*
X1169416Y1504549D01*
D02*
G37*
G36*
X1147064D02*
X1134364D01*
X1133740Y1504425D01*
X1133211Y1504072D01*
X1132857Y1503542D01*
X1132733Y1502918D01*
Y1492758D01*
X1132857Y1492134D01*
X1133211Y1491604D01*
X1133740Y1491251D01*
X1134364Y1491127D01*
X1147064D01*
X1147688Y1491251D01*
X1148217Y1491604D01*
X1148571Y1492134D01*
X1148695Y1492758D01*
Y1502918D01*
X1148571Y1503542D01*
X1148217Y1504072D01*
X1147688Y1504425D01*
X1147064Y1504549D01*
D02*
G37*
G36*
X1197102Y1493881D02*
X1184402D01*
X1183778Y1493757D01*
X1183249Y1493403D01*
X1182895Y1492874D01*
X1182771Y1492250D01*
Y1489085D01*
X1181289D01*
X1180981Y1489291D01*
X1179576Y1489570D01*
X1178171Y1489291D01*
X1176981Y1488495D01*
X1176185Y1487305D01*
X1175906Y1485900D01*
X1176185Y1484495D01*
X1176981Y1483305D01*
X1178171Y1482509D01*
X1179576Y1482229D01*
X1180981Y1482509D01*
X1181289Y1482715D01*
X1182771D01*
Y1482090D01*
X1182895Y1481466D01*
X1183249Y1480936D01*
X1183778Y1480583D01*
X1184402Y1480459D01*
X1197102D01*
X1197726Y1480583D01*
X1198255Y1480936D01*
X1198609Y1481466D01*
X1198733Y1482090D01*
Y1492250D01*
X1198609Y1492874D01*
X1198255Y1493403D01*
X1197726Y1493757D01*
X1197102Y1493881D01*
D02*
G37*
G36*
X951992Y1520051D02*
X950587Y1519771D01*
X949397Y1518975D01*
X948601Y1517785D01*
X948322Y1516380D01*
X948601Y1514975D01*
X949397Y1513785D01*
X950587Y1512989D01*
X950951Y1512917D01*
X959392Y1504476D01*
X959392Y1504476D01*
X960425Y1503785D01*
X961644Y1503543D01*
X972001D01*
X972357Y1503011D01*
X974062Y1501871D01*
X976074Y1501471D01*
X994362D01*
X996374Y1501871D01*
X998079Y1503011D01*
X999219Y1504716D01*
X999619Y1506728D01*
X999219Y1508740D01*
X998079Y1510445D01*
X996374Y1511585D01*
X994362Y1511985D01*
X976074D01*
X974062Y1511585D01*
X972357Y1510445D01*
X972001Y1509913D01*
X962963D01*
X955455Y1517421D01*
X955383Y1517785D01*
X954587Y1518975D01*
X953397Y1519771D01*
X951992Y1520051D01*
D02*
G37*
G36*
X891286Y1512727D02*
X889671Y1512406D01*
X889595Y1512355D01*
X889101Y1512257D01*
X888694Y1511985D01*
X871474D01*
X869462Y1511585D01*
X867757Y1510445D01*
X866617Y1508740D01*
X866217Y1506728D01*
X866617Y1504716D01*
X867757Y1503011D01*
X869462Y1501871D01*
X871474Y1501471D01*
X889762D01*
X890025Y1501523D01*
X891286Y1501272D01*
X893471Y1501707D01*
X895323Y1502945D01*
X896561Y1504797D01*
X896996Y1506982D01*
X896561Y1509167D01*
X895323Y1511019D01*
X893471Y1512257D01*
X892977Y1512355D01*
X892901Y1512406D01*
X891286Y1512727D01*
D02*
G37*
G36*
X860806Y1515733D02*
X859401Y1515453D01*
X858211Y1514657D01*
X857415Y1513467D01*
X857135Y1512062D01*
X857415Y1510657D01*
X857621Y1510349D01*
Y1495369D01*
X856351Y1494679D01*
X855218Y1494904D01*
X853813Y1494625D01*
X852623Y1493829D01*
X851827Y1492639D01*
X851755Y1492275D01*
X846693Y1487213D01*
X840920D01*
X840833Y1487652D01*
X840480Y1488181D01*
X840269Y1488322D01*
X840193Y1488607D01*
Y1489449D01*
X840269Y1489734D01*
X840480Y1489875D01*
X840833Y1490404D01*
X840920Y1490843D01*
X842371D01*
X843534Y1490612D01*
X844939Y1490891D01*
X846129Y1491687D01*
X846925Y1492877D01*
X847205Y1494282D01*
X846925Y1495687D01*
X846129Y1496877D01*
X844939Y1497673D01*
X843534Y1497953D01*
X842129Y1497673D01*
X841356Y1498632D01*
X841152Y1499190D01*
X841185Y1499238D01*
X841719Y1500037D01*
X841916Y1501028D01*
Y1502758D01*
X831576D01*
X821236D01*
Y1501028D01*
X821433Y1500037D01*
X821967Y1499238D01*
X822630Y1498245D01*
X822319Y1497652D01*
X822195Y1497028D01*
Y1491028D01*
X822319Y1490404D01*
X822672Y1489875D01*
X822883Y1489734D01*
X822959Y1489449D01*
Y1488607D01*
X822883Y1488322D01*
X822672Y1488181D01*
X822319Y1487652D01*
X822195Y1487028D01*
Y1481028D01*
X822319Y1480404D01*
X822630Y1479811D01*
X821967Y1478818D01*
X821433Y1478019D01*
X821236Y1477028D01*
Y1475298D01*
X831576D01*
X841916D01*
Y1477028D01*
X841719Y1478019D01*
X841185Y1478818D01*
X840589Y1479710D01*
X841090Y1480843D01*
X848012D01*
X848012Y1480843D01*
X849231Y1481085D01*
X850264Y1481776D01*
X856259Y1487771D01*
X856351Y1487789D01*
X857621Y1487099D01*
Y1477313D01*
X847521Y1467213D01*
X841090D01*
X840589Y1468346D01*
X841185Y1469238D01*
X841719Y1470037D01*
X841916Y1471028D01*
Y1472758D01*
X831576D01*
X821236D01*
Y1471028D01*
X821433Y1470037D01*
X821967Y1469238D01*
X822630Y1468245D01*
X822319Y1467652D01*
X822195Y1467028D01*
Y1461028D01*
X822319Y1460404D01*
X822672Y1459874D01*
X823202Y1459521D01*
X823826Y1459397D01*
X839326D01*
X839950Y1459521D01*
X840480Y1459874D01*
X840833Y1460404D01*
X840920Y1460843D01*
X848840D01*
X848840Y1460843D01*
X850059Y1461085D01*
X851092Y1461776D01*
X863058Y1473742D01*
X863058Y1473742D01*
X863749Y1474775D01*
X863991Y1475994D01*
Y1510349D01*
X864197Y1510657D01*
X864476Y1512062D01*
X864197Y1513467D01*
X863401Y1514657D01*
X862211Y1515453D01*
X860806Y1515733D01*
D02*
G37*
G36*
X994362Y1461185D02*
X976074D01*
X974062Y1460785D01*
X972357Y1459645D01*
X971217Y1457940D01*
X970817Y1455928D01*
X971217Y1453916D01*
X972357Y1452211D01*
X974062Y1451071D01*
X976074Y1450671D01*
X994362D01*
X996374Y1451071D01*
X997735Y1451981D01*
X1015811D01*
X1016119Y1451775D01*
X1017524Y1451496D01*
X1018929Y1451775D01*
X1020119Y1452571D01*
X1020915Y1453761D01*
X1021195Y1455166D01*
X1020915Y1456571D01*
X1020119Y1457761D01*
X1018929Y1458557D01*
X1017524Y1458837D01*
X1016119Y1458557D01*
X1015811Y1458351D01*
X998944D01*
X998079Y1459645D01*
X996374Y1460785D01*
X994362Y1461185D01*
D02*
G37*
G36*
X1279336Y1262463D02*
X1267336D01*
X1266712Y1262339D01*
X1266182Y1261985D01*
X1265829Y1261456D01*
X1265705Y1260832D01*
Y1242832D01*
X1265829Y1242208D01*
X1266182Y1241678D01*
X1266712Y1241325D01*
X1267336Y1241201D01*
X1279336D01*
X1279960Y1241325D01*
X1280490Y1241678D01*
X1280843Y1242208D01*
X1280967Y1242832D01*
Y1260832D01*
X1280843Y1261456D01*
X1280490Y1261985D01*
X1279960Y1262339D01*
X1279336Y1262463D01*
D02*
G37*
G36*
X1069450Y1463559D02*
X1051450D01*
X1050826Y1463435D01*
X1050296Y1463082D01*
X1049943Y1462552D01*
X1049819Y1461928D01*
Y1449928D01*
X1049943Y1449304D01*
X1050296Y1448775D01*
X1050826Y1448421D01*
X1051450Y1448297D01*
X1069450D01*
X1070074Y1448421D01*
X1070603Y1448775D01*
X1070957Y1449304D01*
X1071081Y1449928D01*
Y1461928D01*
X1070957Y1462552D01*
X1070603Y1463082D01*
X1070074Y1463435D01*
X1069450Y1463559D01*
D02*
G37*
G36*
X1197102Y1473561D02*
X1184402D01*
X1183778Y1473437D01*
X1183249Y1473083D01*
X1182895Y1472554D01*
X1182798Y1472067D01*
X1177479D01*
X1177171Y1472273D01*
X1175766Y1472552D01*
X1174361Y1472273D01*
X1173171Y1471477D01*
X1172375Y1470287D01*
X1172095Y1468882D01*
X1172375Y1467477D01*
X1173171Y1466287D01*
X1174361Y1465491D01*
X1175766Y1465211D01*
X1177171Y1465491D01*
X1177479Y1465697D01*
X1182771D01*
Y1461770D01*
X1182895Y1461146D01*
X1183249Y1460616D01*
X1183778Y1460263D01*
X1184402Y1460139D01*
X1187567D01*
Y1453241D01*
X1184402D01*
X1183778Y1453117D01*
X1183249Y1452764D01*
X1182895Y1452234D01*
X1182771Y1451610D01*
Y1441450D01*
X1182895Y1440826D01*
X1183249Y1440296D01*
X1183778Y1439943D01*
X1184402Y1439819D01*
X1197102D01*
X1197726Y1439943D01*
X1198255Y1440296D01*
X1198609Y1440826D01*
X1198733Y1441450D01*
Y1451610D01*
X1198609Y1452234D01*
X1198255Y1452764D01*
X1197726Y1453117D01*
X1197102Y1453241D01*
X1193937D01*
Y1460139D01*
X1197102D01*
X1197726Y1460263D01*
X1198255Y1460616D01*
X1198609Y1461146D01*
X1198733Y1461770D01*
Y1471930D01*
X1198609Y1472554D01*
X1198255Y1473083D01*
X1197726Y1473437D01*
X1197102Y1473561D01*
D02*
G37*
G36*
X1169416Y1484229D02*
X1156716D01*
X1156092Y1484105D01*
X1155562Y1483752D01*
X1155209Y1483222D01*
X1155085Y1482598D01*
Y1472438D01*
X1155209Y1471814D01*
X1155562Y1471284D01*
X1156092Y1470931D01*
X1156716Y1470807D01*
X1159881D01*
Y1469185D01*
X1157175Y1466479D01*
X1153349D01*
X1153041Y1466685D01*
X1151636Y1466965D01*
X1150231Y1466685D01*
X1149041Y1465889D01*
X1148245Y1464699D01*
X1147965Y1463294D01*
X1148245Y1461889D01*
X1149041Y1460699D01*
X1150231Y1459903D01*
X1151636Y1459624D01*
X1153041Y1459903D01*
X1153349Y1460109D01*
X1156743D01*
X1157141Y1459591D01*
X1157086Y1459183D01*
X1156576Y1458243D01*
X1156346Y1458197D01*
X1155816Y1457843D01*
X1155463Y1457314D01*
X1155339Y1456690D01*
Y1446530D01*
X1155463Y1445906D01*
X1155816Y1445376D01*
X1156346Y1445023D01*
X1156970Y1444899D01*
X1169670D01*
X1170294Y1445023D01*
X1170824Y1445376D01*
X1171177Y1445906D01*
X1171301Y1446530D01*
Y1456690D01*
X1171177Y1457314D01*
X1170824Y1457843D01*
X1170294Y1458197D01*
X1169670Y1458321D01*
X1166251D01*
Y1458722D01*
X1166009Y1459941D01*
X1165318Y1460974D01*
X1165318Y1460974D01*
X1162999Y1463294D01*
X1165318Y1465614D01*
X1165318Y1465614D01*
X1166009Y1466647D01*
X1166251Y1467866D01*
X1166251Y1467866D01*
Y1470807D01*
X1169416D01*
X1170040Y1470931D01*
X1170570Y1471284D01*
X1170923Y1471814D01*
X1171047Y1472438D01*
Y1482598D01*
X1170923Y1483222D01*
X1170570Y1483752D01*
X1170040Y1484105D01*
X1169416Y1484229D01*
D02*
G37*
G36*
X994362Y1473885D02*
X976074D01*
X974062Y1473485D01*
X972357Y1472345D01*
X971217Y1470640D01*
X970817Y1468628D01*
X971217Y1466616D01*
X972357Y1464911D01*
X974062Y1463771D01*
X976074Y1463371D01*
X994362D01*
X996374Y1463771D01*
X998079Y1464911D01*
X998435Y1465443D01*
X1017016D01*
X1017016Y1465443D01*
X1017327Y1465505D01*
X1017524Y1465466D01*
X1018929Y1465745D01*
X1020119Y1466541D01*
X1020915Y1467731D01*
X1021195Y1469136D01*
X1020915Y1470541D01*
X1020119Y1471731D01*
X1018929Y1472527D01*
X1017524Y1472807D01*
X1016119Y1472527D01*
X1015051Y1471813D01*
X998435D01*
X998079Y1472345D01*
X996374Y1473485D01*
X994362Y1473885D01*
D02*
G37*
G36*
Y1551043D02*
X986488D01*
Y1546098D01*
X1000325D01*
X1000104Y1547207D01*
X998757Y1549223D01*
X996740Y1550570D01*
X994362Y1551043D01*
D02*
G37*
G36*
X983948D02*
X976074D01*
X973696Y1550570D01*
X971679Y1549223D01*
X970332Y1547207D01*
X970111Y1546098D01*
X983948D01*
Y1551043D01*
D02*
G37*
G36*
X893318Y1550015D02*
X867918D01*
X867294Y1549891D01*
X866765Y1549538D01*
X866411Y1549008D01*
X866287Y1548384D01*
Y1541272D01*
X866398Y1540710D01*
X866344Y1540630D01*
X865257Y1540056D01*
X864582Y1540730D01*
X863549Y1541421D01*
X862330Y1541663D01*
X862330Y1541663D01*
X859217D01*
X858909Y1541869D01*
X857504Y1542148D01*
X856099Y1541869D01*
X854909Y1541073D01*
X854113Y1539883D01*
X853833Y1538478D01*
X854113Y1537073D01*
X854909Y1535883D01*
X856099Y1535087D01*
X857504Y1534807D01*
X858909Y1535087D01*
X859217Y1535293D01*
X861011D01*
X866428Y1529876D01*
X866428Y1529876D01*
X867060Y1529453D01*
X867757Y1528411D01*
X869462Y1527271D01*
X871474Y1526871D01*
X889762D01*
X891774Y1527271D01*
X893479Y1528411D01*
X894619Y1530116D01*
X895019Y1532128D01*
X894619Y1534140D01*
X893479Y1535845D01*
X891774Y1536985D01*
X889762Y1537385D01*
X871474D01*
X869462Y1536985D01*
X868782Y1536530D01*
X866702Y1538611D01*
X867276Y1539698D01*
X867356Y1539752D01*
X867918Y1539641D01*
X893318D01*
X893942Y1539765D01*
X894472Y1540119D01*
X894798Y1540607D01*
X917477D01*
X936087Y1521998D01*
Y1455537D01*
X934817Y1455412D01*
X934554Y1456736D01*
X933316Y1458588D01*
X931464Y1459826D01*
X929279Y1460260D01*
X927094Y1459826D01*
X925241Y1458588D01*
X924770Y1457882D01*
X923500Y1458268D01*
Y1500579D01*
X923500Y1500579D01*
X923178Y1502195D01*
X922263Y1503564D01*
X903415Y1522413D01*
X902045Y1523328D01*
X900430Y1523649D01*
X900430Y1523649D01*
X892725D01*
X891774Y1524285D01*
X889762Y1524685D01*
X871474D01*
X869462Y1524285D01*
X867757Y1523145D01*
X866617Y1521440D01*
X866217Y1519428D01*
X866617Y1517416D01*
X867757Y1515711D01*
X869462Y1514571D01*
X871474Y1514171D01*
X889762D01*
X891774Y1514571D01*
X892725Y1515207D01*
X898681D01*
X915058Y1498831D01*
Y1416132D01*
X913788Y1415583D01*
X913500Y1415853D01*
Y1485433D01*
X913500Y1485434D01*
X913178Y1487049D01*
X912263Y1488418D01*
X912263Y1488418D01*
X903669Y1497013D01*
X902299Y1497928D01*
X900684Y1498249D01*
X900684Y1498249D01*
X892725D01*
X891774Y1498885D01*
X889762Y1499285D01*
X871474D01*
X869462Y1498885D01*
X867757Y1497745D01*
X866617Y1496040D01*
X866217Y1494028D01*
X866617Y1492016D01*
X867757Y1490311D01*
X869462Y1489171D01*
X871474Y1488771D01*
X889762D01*
X891774Y1489171D01*
X892725Y1489807D01*
X898935D01*
X901291Y1487451D01*
X900666Y1486281D01*
X899414Y1486530D01*
X897229Y1486095D01*
X896412Y1485549D01*
X892725D01*
X891774Y1486185D01*
X889762Y1486585D01*
X871474D01*
X869462Y1486185D01*
X867757Y1485045D01*
X866617Y1483340D01*
X866217Y1481328D01*
X866617Y1479316D01*
X867757Y1477611D01*
X869462Y1476471D01*
X871474Y1476071D01*
X889762D01*
X891774Y1476471D01*
X892725Y1477107D01*
X895160D01*
X895377Y1476783D01*
X897229Y1475545D01*
X899414Y1475110D01*
X901599Y1475545D01*
X903451Y1476783D01*
X903787Y1477286D01*
X905057Y1476900D01*
Y1416132D01*
X903787Y1415583D01*
X903500Y1415853D01*
Y1463937D01*
X903500Y1463938D01*
X903178Y1465553D01*
X902263Y1466922D01*
X902263Y1466922D01*
X897573Y1471613D01*
X896203Y1472528D01*
X894588Y1472849D01*
X894588Y1472849D01*
X892725D01*
X891774Y1473485D01*
X889762Y1473885D01*
X871474D01*
X869462Y1473485D01*
X867757Y1472345D01*
X866617Y1470640D01*
X866217Y1468628D01*
X866617Y1466616D01*
X867757Y1464911D01*
X869462Y1463771D01*
X871474Y1463371D01*
X889762D01*
X891774Y1463771D01*
X892725Y1464407D01*
X892840D01*
X895057Y1462189D01*
Y1459569D01*
X893787Y1459184D01*
X893479Y1459645D01*
X891774Y1460785D01*
X889762Y1461185D01*
X871474D01*
X869462Y1460785D01*
X868511Y1460149D01*
X859235D01*
X857619Y1459828D01*
X856250Y1458913D01*
X856250Y1458913D01*
X843343Y1446006D01*
X842428Y1444637D01*
X842107Y1443021D01*
X842107Y1443021D01*
Y1434329D01*
X841601Y1434004D01*
X840837Y1433777D01*
X839847Y1434439D01*
X839483Y1434511D01*
X829280Y1444714D01*
X829145Y1445395D01*
X828349Y1446585D01*
X827159Y1447381D01*
X825754Y1447661D01*
X824349Y1447381D01*
X823159Y1446585D01*
X822363Y1445395D01*
X822084Y1443990D01*
X822363Y1442585D01*
X823159Y1441395D01*
X824349Y1440599D01*
X824396Y1440590D01*
X834979Y1430007D01*
X835051Y1429643D01*
X835262Y1429328D01*
X834469Y1428229D01*
X833713Y1428379D01*
X833713Y1428379D01*
X828737D01*
X828429Y1428585D01*
X827024Y1428864D01*
X825619Y1428585D01*
X824429Y1427789D01*
X823633Y1426599D01*
X823354Y1425194D01*
X823633Y1423789D01*
X824429Y1422599D01*
X825619Y1421803D01*
X827024Y1421523D01*
X828429Y1421803D01*
X828737Y1422009D01*
X832394D01*
X835765Y1418638D01*
Y1416147D01*
X835765Y1416147D01*
X836007Y1414928D01*
X836698Y1413895D01*
X840871Y1409722D01*
X840871Y1409722D01*
X841904Y1409031D01*
X843123Y1408789D01*
X848577D01*
X866487Y1390879D01*
X866559Y1390515D01*
X867355Y1389325D01*
X868545Y1388529D01*
X869950Y1388250D01*
X871355Y1388529D01*
X872545Y1389325D01*
X872699Y1389555D01*
X873969Y1389170D01*
Y1370570D01*
X873969Y1370570D01*
X874212Y1369351D01*
X874902Y1368318D01*
X876732Y1366488D01*
X876732Y1366488D01*
X877766Y1365797D01*
X878985Y1365555D01*
X893572D01*
X893572Y1365555D01*
X894791Y1365797D01*
X895825Y1366488D01*
X898082Y1368745D01*
X920816D01*
X923717Y1365843D01*
X923718Y1365843D01*
X923900Y1365721D01*
X924048Y1365500D01*
X925238Y1364704D01*
X926643Y1364424D01*
X928048Y1364704D01*
X929239Y1365500D01*
X930034Y1366690D01*
X930313Y1368095D01*
X930034Y1369500D01*
X929239Y1370690D01*
X928048Y1371486D01*
X926844Y1371726D01*
X924387Y1374182D01*
X923354Y1374873D01*
X923002Y1374943D01*
X923127Y1376213D01*
X931445D01*
X940147Y1367511D01*
X940219Y1367147D01*
X941015Y1365957D01*
X942205Y1365161D01*
X943610Y1364881D01*
X945015Y1365161D01*
X946205Y1365957D01*
X947001Y1367147D01*
X947281Y1368552D01*
X947001Y1369957D01*
X946205Y1371147D01*
X945015Y1371943D01*
X944651Y1372015D01*
X935016Y1381650D01*
X933983Y1382341D01*
X932764Y1382583D01*
X932764Y1382583D01*
X903362D01*
X903072Y1382917D01*
X903652Y1384187D01*
X940098D01*
X940098Y1384187D01*
X941713Y1384508D01*
X943083Y1385423D01*
X952263Y1394604D01*
X952263Y1394604D01*
X953178Y1395973D01*
X953205Y1396106D01*
X953907Y1396347D01*
X954568Y1396452D01*
X955287Y1395971D01*
X956279Y1395774D01*
X958008D01*
Y1406114D01*
Y1416454D01*
X956279D01*
X955287Y1416257D01*
X954488Y1415723D01*
X953496Y1415060D01*
X952903Y1415371D01*
X952279Y1415495D01*
X946279D01*
X945654Y1415371D01*
X945125Y1415018D01*
X943918Y1415460D01*
X943500Y1415853D01*
Y1422416D01*
X947390Y1426307D01*
X973111D01*
X974062Y1425671D01*
X976074Y1425271D01*
X994362D01*
X996374Y1425671D01*
X998079Y1426811D01*
X999219Y1428516D01*
X999619Y1430528D01*
X999219Y1432540D01*
X998079Y1434245D01*
X996374Y1435385D01*
X994362Y1435785D01*
X976074D01*
X974062Y1435385D01*
X973111Y1434749D01*
X945642D01*
X945642Y1434749D01*
X944027Y1434428D01*
X942657Y1433513D01*
X942657Y1433513D01*
X936294Y1427149D01*
X935379Y1425780D01*
X935057Y1424164D01*
X935057Y1424164D01*
Y1416132D01*
X933787Y1415583D01*
X933500Y1415853D01*
Y1440972D01*
X934770Y1441096D01*
X935033Y1439773D01*
X936271Y1437921D01*
X938123Y1436683D01*
X940308Y1436248D01*
X942493Y1436683D01*
X944345Y1437921D01*
X945583Y1439773D01*
X946018Y1441958D01*
X945583Y1444143D01*
X944529Y1445720D01*
Y1523746D01*
X944208Y1525361D01*
X943293Y1526731D01*
X943293Y1526731D01*
X922211Y1547813D01*
X920841Y1548728D01*
X919226Y1549049D01*
X919226Y1549049D01*
X894798D01*
X894472Y1549538D01*
X893942Y1549891D01*
X893318Y1550015D01*
D02*
G37*
G36*
X658622Y1640208D02*
Y1598930D01*
X699900D01*
X699619Y1603224D01*
X698531Y1608694D01*
X696738Y1613974D01*
X694272Y1618976D01*
X691174Y1623612D01*
X687497Y1627805D01*
X683304Y1631482D01*
X678668Y1634580D01*
X673666Y1637046D01*
X668386Y1638839D01*
X662916Y1639927D01*
X658622Y1640208D01*
D02*
G37*
G36*
X656082D02*
X651787Y1639927D01*
X646318Y1638839D01*
X641038Y1637046D01*
X636036Y1634580D01*
X631400Y1631482D01*
X627207Y1627805D01*
X623530Y1623612D01*
X620432Y1618976D01*
X617966Y1613974D01*
X616173Y1608694D01*
X615085Y1603224D01*
X614804Y1598930D01*
X656082D01*
Y1640208D01*
D02*
G37*
G36*
Y1596390D02*
X614804D01*
X615085Y1592095D01*
X616173Y1586626D01*
X617966Y1581346D01*
X620432Y1576344D01*
X623530Y1571708D01*
X627207Y1567515D01*
X631400Y1563838D01*
X636036Y1560740D01*
X641038Y1558274D01*
X646318Y1556481D01*
X651787Y1555393D01*
X656082Y1555112D01*
Y1596390D01*
D02*
G37*
G36*
X994362Y1524685D02*
X976074D01*
X974062Y1524285D01*
X972357Y1523145D01*
X971217Y1521440D01*
X970817Y1519428D01*
X971217Y1517416D01*
X972357Y1515711D01*
X974062Y1514571D01*
X976074Y1514171D01*
X994362D01*
X996374Y1514571D01*
X997325Y1515207D01*
X1003075D01*
X1004005Y1514278D01*
X1004375Y1512417D01*
X1005613Y1510565D01*
X1007465Y1509327D01*
X1009650Y1508892D01*
X1011835Y1509327D01*
X1013687Y1510565D01*
X1014925Y1512417D01*
X1015360Y1514602D01*
X1014925Y1516787D01*
X1013687Y1518639D01*
X1011835Y1519877D01*
X1009974Y1520247D01*
X1007809Y1522413D01*
X1006439Y1523328D01*
X1004824Y1523649D01*
X1004824Y1523649D01*
X997325D01*
X996374Y1524285D01*
X994362Y1524685D01*
D02*
G37*
G36*
X839326Y1509618D02*
X832846D01*
Y1505298D01*
X841916D01*
Y1507028D01*
X841719Y1508019D01*
X841157Y1508859D01*
X840317Y1509421D01*
X839326Y1509618D01*
D02*
G37*
G36*
X830306D02*
X823826D01*
X822835Y1509421D01*
X821995Y1508859D01*
X821433Y1508019D01*
X821236Y1507028D01*
Y1505298D01*
X830306D01*
Y1509618D01*
D02*
G37*
G36*
X699900Y1596390D02*
X658622D01*
Y1555112D01*
X662916Y1555393D01*
X668386Y1556481D01*
X672906Y1558016D01*
X673723Y1556952D01*
X673519Y1556647D01*
X673240Y1555242D01*
X673519Y1553837D01*
X674315Y1552647D01*
X675505Y1551851D01*
X676910Y1551572D01*
X678315Y1551851D01*
X678623Y1552057D01*
X683344D01*
X683830Y1550883D01*
X675654Y1542707D01*
X669025D01*
X668401Y1542583D01*
X667872Y1542229D01*
X667518Y1541700D01*
X667394Y1541076D01*
Y1536896D01*
X667518Y1536272D01*
X667872Y1535742D01*
X667886Y1534295D01*
X667640Y1533926D01*
X667353Y1532486D01*
X667640Y1531046D01*
X668294Y1530066D01*
X668388Y1529236D01*
X668294Y1528406D01*
X667640Y1527426D01*
X667353Y1525986D01*
X667640Y1524546D01*
X667772Y1524348D01*
X667777Y1522824D01*
X666754Y1521293D01*
X666647Y1520756D01*
X686227D01*
X686120Y1521293D01*
X685097Y1522824D01*
X685102Y1524348D01*
X685235Y1524546D01*
X685521Y1525986D01*
X685320Y1526995D01*
X686085Y1528265D01*
X687776D01*
X689353Y1527211D01*
X691538Y1526776D01*
X693723Y1527211D01*
X695575Y1528449D01*
X696813Y1530301D01*
X697248Y1532486D01*
X696813Y1534671D01*
X695575Y1536523D01*
X693723Y1537761D01*
X691538Y1538196D01*
X689353Y1537761D01*
X687776Y1536707D01*
X685635D01*
X685480Y1536896D01*
Y1541076D01*
X685356Y1541700D01*
X685002Y1542229D01*
X684929Y1542973D01*
X689186Y1547231D01*
X767539D01*
X778627Y1536143D01*
Y1525459D01*
X778421Y1525151D01*
X778141Y1523746D01*
X778421Y1522341D01*
X779217Y1521151D01*
X780407Y1520355D01*
X781812Y1520076D01*
X783217Y1520355D01*
X784407Y1521151D01*
X785203Y1522341D01*
X785482Y1523746D01*
X785203Y1525151D01*
X784997Y1525459D01*
Y1537462D01*
X784997Y1537462D01*
X784755Y1538681D01*
X784064Y1539714D01*
X772895Y1550883D01*
X773381Y1552057D01*
X775413D01*
X787517Y1539953D01*
Y1527491D01*
X787311Y1527183D01*
X787031Y1525778D01*
X787311Y1524373D01*
X788107Y1523183D01*
X789297Y1522387D01*
X790702Y1522108D01*
X792107Y1522387D01*
X793297Y1523183D01*
X794093Y1524373D01*
X794372Y1525778D01*
X794093Y1527183D01*
X793887Y1527491D01*
Y1541272D01*
X793887Y1541272D01*
X793645Y1542491D01*
X792954Y1543524D01*
X792954Y1543524D01*
X778490Y1557989D01*
X777456Y1558680D01*
X776237Y1558922D01*
X775018Y1558680D01*
X774641Y1558427D01*
X678623D01*
X678315Y1558633D01*
X677568Y1558782D01*
X677393Y1560111D01*
X678668Y1560740D01*
X683304Y1563838D01*
X687497Y1567515D01*
X691174Y1571708D01*
X694272Y1576344D01*
X696738Y1581346D01*
X698531Y1586626D01*
X699619Y1592095D01*
X699900Y1596390D01*
D02*
G37*
G36*
X1000325Y1543558D02*
X970111D01*
X970332Y1542449D01*
X971679Y1540433D01*
X973696Y1539086D01*
X976074Y1538613D01*
Y1537385D01*
X974062Y1536985D01*
X972357Y1535845D01*
X971217Y1534140D01*
X970817Y1532128D01*
X971217Y1530116D01*
X972357Y1528411D01*
X974062Y1527271D01*
X976074Y1526871D01*
X994362D01*
X996374Y1527271D01*
X997325Y1527907D01*
X1056161D01*
X1066154Y1517915D01*
X1065736Y1516537D01*
X1065395Y1516469D01*
X1065087Y1516263D01*
X1046734D01*
X1046734Y1516263D01*
X1045515Y1516021D01*
X1044482Y1515330D01*
X1044482Y1515330D01*
X1033223Y1504071D01*
X1004759D01*
X1004451Y1504277D01*
X1003046Y1504556D01*
X1001641Y1504277D01*
X1000451Y1503481D01*
X999655Y1502291D01*
X999376Y1500886D01*
X999655Y1499481D01*
X1000322Y1498483D01*
X1000103Y1497735D01*
X999777Y1497213D01*
X998435D01*
X998079Y1497745D01*
X996374Y1498885D01*
X994362Y1499285D01*
X976074D01*
X974062Y1498885D01*
X972357Y1497745D01*
X971217Y1496040D01*
X970817Y1494028D01*
X971217Y1492016D01*
X972357Y1490311D01*
X974062Y1489171D01*
X976074Y1488771D01*
X994362D01*
X996374Y1489171D01*
X997803Y1490126D01*
X998083Y1489989D01*
X998844Y1489343D01*
X998614Y1488186D01*
X998893Y1486781D01*
X999068Y1486520D01*
X998615Y1485100D01*
X998558Y1485042D01*
X998429Y1485043D01*
X997931Y1485144D01*
X996374Y1486185D01*
X994362Y1486585D01*
X976074D01*
X974062Y1486185D01*
X972357Y1485045D01*
X971217Y1483340D01*
X970817Y1481328D01*
X971217Y1479316D01*
X972357Y1477611D01*
X974062Y1476471D01*
X976074Y1476071D01*
X994362D01*
X996374Y1476471D01*
X998079Y1477611D01*
X998435Y1478143D01*
X1012526D01*
X1013151Y1477209D01*
X1014341Y1476413D01*
X1015746Y1476134D01*
X1017151Y1476413D01*
X1018341Y1477209D01*
X1019137Y1478399D01*
X1019417Y1479804D01*
X1019137Y1481209D01*
X1018341Y1482399D01*
X1017151Y1483195D01*
X1016839Y1483731D01*
X1017569Y1485001D01*
X1017843D01*
X1018151Y1484795D01*
X1019556Y1484516D01*
X1020961Y1484795D01*
X1022151Y1485591D01*
X1022947Y1486781D01*
X1023226Y1488186D01*
X1022947Y1489591D01*
X1022151Y1490781D01*
X1020961Y1491577D01*
X1020768Y1492910D01*
X1020915Y1493131D01*
X1021195Y1494536D01*
X1020915Y1495941D01*
X1020588Y1496431D01*
X1021266Y1497701D01*
X1034542D01*
X1034542Y1497701D01*
X1035761Y1497943D01*
X1036794Y1498634D01*
X1048053Y1509893D01*
X1049399D01*
X1049990Y1508623D01*
X1049943Y1508552D01*
X1049819Y1507928D01*
Y1495928D01*
X1049943Y1495304D01*
X1050296Y1494774D01*
X1050826Y1494421D01*
X1051450Y1494297D01*
X1058426D01*
X1058912Y1493123D01*
X1057902Y1492113D01*
X1044544D01*
X1044457Y1492552D01*
X1044103Y1493082D01*
X1043574Y1493435D01*
X1042950Y1493559D01*
X1027450D01*
X1026826Y1493435D01*
X1026296Y1493082D01*
X1025943Y1492552D01*
X1025818Y1491928D01*
Y1485928D01*
X1025943Y1485304D01*
X1026296Y1484774D01*
X1026507Y1484634D01*
X1026583Y1484350D01*
Y1483506D01*
X1026507Y1483222D01*
X1026296Y1483082D01*
X1025943Y1482552D01*
X1025818Y1481928D01*
Y1475928D01*
X1025943Y1475304D01*
X1026296Y1474774D01*
X1026507Y1474634D01*
X1026583Y1474350D01*
Y1473506D01*
X1026507Y1473222D01*
X1026296Y1473082D01*
X1025943Y1472552D01*
X1025818Y1471928D01*
Y1465928D01*
X1025943Y1465304D01*
X1026296Y1464774D01*
X1026826Y1464421D01*
X1027450Y1464297D01*
X1042950D01*
X1043574Y1464421D01*
X1044103Y1464774D01*
X1044457Y1465304D01*
X1044544Y1465743D01*
X1052368D01*
X1052368Y1465743D01*
X1053587Y1465985D01*
X1054620Y1466676D01*
X1064817Y1476873D01*
X1068897D01*
X1069205Y1476667D01*
X1070610Y1476387D01*
X1071259Y1476517D01*
X1072529Y1475599D01*
Y1447052D01*
X1047465Y1421989D01*
X1046550Y1420619D01*
X1046229Y1419004D01*
X1046229Y1419004D01*
Y1414916D01*
X1046156Y1414807D01*
X1045872Y1414731D01*
X1045029D01*
X1044744Y1414807D01*
X1044604Y1415018D01*
X1044074Y1415371D01*
X1043450Y1415495D01*
X1037450D01*
X1037106Y1415427D01*
X1015295Y1437238D01*
X1014925Y1439099D01*
X1013687Y1440951D01*
X1011835Y1442189D01*
X1009650Y1442624D01*
X1007465Y1442189D01*
X1005613Y1440951D01*
X1004375Y1439099D01*
X1003940Y1436914D01*
X1004375Y1434729D01*
X1005613Y1432877D01*
X1007465Y1431639D01*
X1009326Y1431269D01*
X1035819Y1404776D01*
Y1398364D01*
X1035943Y1397740D01*
X1036215Y1397333D01*
X1036204Y1390730D01*
X1034957Y1390488D01*
X1034604Y1391017D01*
X1034074Y1391371D01*
X1033450Y1391495D01*
X1021450D01*
X1020826Y1391371D01*
X1020296Y1391017D01*
X1019943Y1390488D01*
X1019819Y1389864D01*
Y1371864D01*
X1019943Y1371240D01*
X1020296Y1370710D01*
X1020826Y1370357D01*
X1021450Y1370233D01*
X1033450D01*
X1034074Y1370357D01*
X1034604Y1370710D01*
X1034902Y1371157D01*
X1034994Y1371170D01*
X1036107Y1370484D01*
X1036158Y1369258D01*
X1035109Y1367689D01*
X1034674Y1365504D01*
X1035109Y1363319D01*
X1036347Y1361467D01*
X1038199Y1360229D01*
X1040384Y1359794D01*
X1042569Y1360229D01*
X1044421Y1361467D01*
X1045659Y1363319D01*
X1046094Y1365504D01*
X1045659Y1367689D01*
X1044611Y1369257D01*
X1044657Y1397290D01*
X1044744Y1397421D01*
X1045029Y1397497D01*
X1045872D01*
X1046156Y1397421D01*
X1046296Y1397211D01*
X1046826Y1396857D01*
X1047450Y1396733D01*
X1053450D01*
X1054074Y1396857D01*
X1054667Y1397168D01*
X1055660Y1396505D01*
X1056459Y1395971D01*
X1057450Y1395774D01*
X1059180D01*
Y1406114D01*
Y1416454D01*
X1057450D01*
X1056459Y1416257D01*
X1056376Y1416201D01*
X1055071Y1416720D01*
X1054967Y1417216D01*
X1055012Y1417596D01*
X1076226Y1438810D01*
X1077724Y1438513D01*
X1078175Y1437839D01*
X1079365Y1437043D01*
X1080770Y1436763D01*
X1082175Y1437043D01*
X1082483Y1437249D01*
X1087111D01*
X1087832Y1436370D01*
Y1432560D01*
X1096772D01*
X1105712D01*
Y1436370D01*
X1106433Y1437249D01*
X1108870D01*
X1109592Y1436370D01*
Y1432560D01*
X1117261D01*
Y1440062D01*
X1117232Y1440133D01*
X1120783Y1443685D01*
X1120784Y1443685D01*
X1121474Y1444718D01*
X1121510Y1444899D01*
X1124881D01*
X1125506Y1445023D01*
X1126035Y1445376D01*
X1126388Y1445906D01*
X1126513Y1446530D01*
Y1456690D01*
X1126388Y1457314D01*
X1126035Y1457843D01*
X1125506Y1458197D01*
X1124881Y1458321D01*
X1121717D01*
Y1470807D01*
X1124881D01*
X1125506Y1470931D01*
X1126035Y1471284D01*
X1126388Y1471814D01*
X1126513Y1472438D01*
Y1482598D01*
X1127460Y1483731D01*
X1129997D01*
X1132733Y1480995D01*
Y1472438D01*
X1132857Y1471814D01*
X1133211Y1471284D01*
X1133740Y1470931D01*
X1134364Y1470807D01*
X1137529D01*
Y1458321D01*
X1134364D01*
X1133740Y1458197D01*
X1133211Y1457843D01*
X1132857Y1457314D01*
X1132733Y1456690D01*
Y1446530D01*
X1132857Y1445906D01*
X1133211Y1445376D01*
X1133740Y1445023D01*
X1134364Y1444899D01*
X1147064D01*
X1147688Y1445023D01*
X1148217Y1445376D01*
X1148571Y1445906D01*
X1148695Y1446530D01*
Y1456690D01*
X1148571Y1457314D01*
X1148217Y1457843D01*
X1147688Y1458197D01*
X1147064Y1458321D01*
X1143899D01*
Y1470807D01*
X1147064D01*
X1147688Y1470931D01*
X1148217Y1471284D01*
X1148571Y1471814D01*
X1148695Y1472438D01*
Y1482598D01*
X1148571Y1483222D01*
X1148217Y1483752D01*
X1147688Y1484105D01*
X1147064Y1484229D01*
X1138507D01*
X1133568Y1489168D01*
X1132535Y1489859D01*
X1131316Y1490101D01*
X1131316Y1490101D01*
X1125897D01*
X1125718Y1490628D01*
X1125686Y1491371D01*
X1126035Y1491604D01*
X1126388Y1492134D01*
X1126513Y1492758D01*
Y1502918D01*
X1126388Y1503542D01*
X1126035Y1504072D01*
X1125506Y1504425D01*
X1124881Y1504549D01*
X1112181D01*
X1111557Y1504425D01*
X1111028Y1504072D01*
X1110674Y1503542D01*
X1110550Y1502918D01*
Y1492758D01*
X1110674Y1492134D01*
X1111028Y1491604D01*
X1111377Y1491371D01*
X1111345Y1490628D01*
X1111166Y1490101D01*
X1103376D01*
X1103196Y1490628D01*
X1103164Y1491371D01*
X1103513Y1491604D01*
X1103867Y1492134D01*
X1103991Y1492758D01*
Y1502918D01*
X1103867Y1503542D01*
X1103513Y1504072D01*
X1102984Y1504425D01*
X1102360Y1504549D01*
X1099850D01*
X1099393Y1505819D01*
X1099401Y1505831D01*
X1099680Y1507236D01*
X1099401Y1508641D01*
X1098605Y1509831D01*
X1097415Y1510627D01*
X1096010Y1510907D01*
X1094605Y1510627D01*
X1093415Y1509831D01*
X1092619Y1508641D01*
X1092339Y1507236D01*
X1092619Y1505831D01*
X1092627Y1505819D01*
X1092170Y1504549D01*
X1089660D01*
X1089036Y1504425D01*
X1088506Y1504072D01*
X1088153Y1503542D01*
X1088029Y1502918D01*
Y1502634D01*
X1086759Y1502509D01*
X1086701Y1502799D01*
X1085905Y1503989D01*
X1084715Y1504785D01*
X1083310Y1505065D01*
X1082241Y1504852D01*
X1080971Y1505572D01*
Y1513288D01*
X1080650Y1514903D01*
X1079735Y1516273D01*
X1079735Y1516273D01*
X1060895Y1535113D01*
X1059525Y1536028D01*
X1057910Y1536349D01*
X1057910Y1536349D01*
X997325D01*
X996374Y1536985D01*
X994362Y1537385D01*
Y1538613D01*
X996740Y1539086D01*
X998757Y1540433D01*
X1000104Y1542449D01*
X1000325Y1543558D01*
D02*
G37*
G36*
X815326Y1524659D02*
X797326D01*
X796702Y1524535D01*
X796172Y1524182D01*
X795819Y1523652D01*
X795695Y1523028D01*
Y1511028D01*
X795819Y1510404D01*
X796172Y1509875D01*
X796702Y1509521D01*
X797326Y1509397D01*
X815326D01*
X815950Y1509521D01*
X816479Y1509875D01*
X816833Y1510404D01*
X816957Y1511028D01*
Y1523028D01*
X816833Y1523652D01*
X816479Y1524182D01*
X815950Y1524535D01*
X815326Y1524659D01*
D02*
G37*
G36*
X1315336Y1262463D02*
X1303336D01*
X1302712Y1262339D01*
X1302182Y1261985D01*
X1301829Y1261456D01*
X1301705Y1260832D01*
Y1242832D01*
X1301829Y1242208D01*
X1302182Y1241678D01*
X1302712Y1241325D01*
X1303336Y1241201D01*
X1315336D01*
X1315960Y1241325D01*
X1316490Y1241678D01*
X1316843Y1242208D01*
X1316967Y1242832D01*
Y1260832D01*
X1316843Y1261456D01*
X1316490Y1261985D01*
X1315960Y1262339D01*
X1315336Y1262463D01*
D02*
G37*
G36*
X1095502Y1430020D02*
X1087832D01*
Y1426210D01*
X1088029Y1425219D01*
X1088591Y1424379D01*
X1089431Y1423817D01*
X1090422Y1423620D01*
X1095502D01*
Y1430020D01*
D02*
G37*
G36*
X1199692Y1424940D02*
X1192022D01*
Y1418540D01*
X1197102D01*
X1198093Y1418737D01*
X1198933Y1419299D01*
X1199495Y1420139D01*
X1199692Y1421130D01*
Y1424940D01*
D02*
G37*
G36*
X1189482D02*
X1181812D01*
Y1421130D01*
X1182009Y1420139D01*
X1182571Y1419299D01*
X1183411Y1418737D01*
X1184402Y1418540D01*
X1189482D01*
Y1424940D01*
D02*
G37*
G36*
X1127471Y1430020D02*
X1119801D01*
Y1423620D01*
X1124881D01*
X1125872Y1423817D01*
X1126712Y1424379D01*
X1127274Y1425219D01*
X1127471Y1426210D01*
Y1430020D01*
D02*
G37*
G36*
X1117261D02*
X1109592D01*
Y1426210D01*
X1109789Y1425219D01*
X1110350Y1424379D01*
X1111190Y1423817D01*
X1112181Y1423620D01*
X1117261D01*
Y1430020D01*
D02*
G37*
G36*
X1105712D02*
X1098042D01*
Y1423620D01*
X1103122D01*
X1104113Y1423817D01*
X1104953Y1424379D01*
X1105515Y1425219D01*
X1105712Y1426210D01*
Y1430020D01*
D02*
G37*
G36*
X1101598Y1420737D02*
X1100193Y1420457D01*
X1099003Y1419661D01*
X1098207Y1418471D01*
X1097927Y1417066D01*
X1098207Y1415661D01*
X1099003Y1414471D01*
X1100193Y1413675D01*
X1101598Y1413396D01*
X1103003Y1413675D01*
X1103311Y1413881D01*
X1122885D01*
X1126353Y1410413D01*
Y1405311D01*
X1126136Y1405064D01*
X1125083Y1404433D01*
X1124881Y1404473D01*
X1121717D01*
Y1406040D01*
X1121922Y1406348D01*
X1122202Y1407753D01*
X1121922Y1409157D01*
X1121127Y1410348D01*
X1119936Y1411144D01*
X1118531Y1411423D01*
X1117127Y1411144D01*
X1115936Y1410348D01*
X1115140Y1409157D01*
X1114861Y1407753D01*
X1115140Y1406348D01*
X1115346Y1406040D01*
Y1404473D01*
X1112181D01*
X1111557Y1404349D01*
X1111028Y1403996D01*
X1110674Y1403466D01*
X1110550Y1402842D01*
Y1392682D01*
X1110674Y1392058D01*
X1111028Y1391528D01*
X1111557Y1391175D01*
X1112181Y1391051D01*
X1124881D01*
X1125757Y1390130D01*
X1125894Y1389310D01*
X1120738Y1384153D01*
X1112181D01*
X1111557Y1384029D01*
X1111028Y1383676D01*
X1110674Y1383146D01*
X1110550Y1382522D01*
Y1372362D01*
X1110674Y1371738D01*
X1111028Y1371208D01*
X1111557Y1370855D01*
X1112181Y1370731D01*
X1124881D01*
X1125506Y1370855D01*
X1126035Y1371208D01*
X1126388Y1371738D01*
X1126513Y1372362D01*
Y1380919D01*
X1131790Y1386196D01*
X1131790Y1386196D01*
X1132481Y1387230D01*
X1132723Y1388449D01*
X1132723Y1388449D01*
Y1411732D01*
X1132723Y1411732D01*
X1132481Y1412951D01*
X1131790Y1413984D01*
X1131790Y1413984D01*
X1126456Y1419318D01*
X1125423Y1420009D01*
X1124204Y1420251D01*
X1124204Y1420251D01*
X1103311D01*
X1103003Y1420457D01*
X1101598Y1420737D01*
D02*
G37*
G36*
X915278Y1271099D02*
X903279D01*
X902654Y1270975D01*
X902125Y1270621D01*
X901771Y1270092D01*
X901647Y1269468D01*
Y1251468D01*
X901771Y1250844D01*
X902125Y1250314D01*
X902654Y1249961D01*
X903279Y1249837D01*
X915278D01*
X915903Y1249961D01*
X916432Y1250314D01*
X916786Y1250844D01*
X916910Y1251468D01*
Y1269468D01*
X916786Y1270092D01*
X916432Y1270621D01*
X915903Y1270975D01*
X915278Y1271099D01*
D02*
G37*
G36*
X991631D02*
X979631D01*
X979007Y1270975D01*
X978477Y1270621D01*
X978124Y1270092D01*
X978000Y1269468D01*
Y1251468D01*
X978124Y1250844D01*
X978477Y1250314D01*
X979007Y1249961D01*
X979631Y1249837D01*
X991631D01*
X992255Y1249961D01*
X992785Y1250314D01*
X993138Y1250844D01*
X993262Y1251468D01*
Y1269468D01*
X993138Y1270092D01*
X992785Y1270621D01*
X992255Y1270975D01*
X991631Y1271099D01*
D02*
G37*
G36*
X1248156Y1458344D02*
Y1417066D01*
X1289434D01*
X1289153Y1421360D01*
X1288065Y1426830D01*
X1286272Y1432110D01*
X1283806Y1437112D01*
X1280708Y1441748D01*
X1277031Y1445941D01*
X1272838Y1449618D01*
X1268202Y1452716D01*
X1263200Y1455182D01*
X1257920Y1456975D01*
X1252450Y1458063D01*
X1248156Y1458344D01*
D02*
G37*
G36*
X1245616D02*
X1241321Y1458063D01*
X1235852Y1456975D01*
X1230572Y1455182D01*
X1225570Y1452716D01*
X1220934Y1449618D01*
X1216741Y1445941D01*
X1213064Y1441748D01*
X1209966Y1437112D01*
X1207500Y1432110D01*
X1205707Y1426830D01*
X1204619Y1421360D01*
X1204338Y1417066D01*
X1245616D01*
Y1458344D01*
D02*
G37*
G36*
X969279Y1419459D02*
X967094Y1419025D01*
X965241Y1417787D01*
X964004Y1415934D01*
X963848Y1415870D01*
X963270Y1416257D01*
X962279Y1416454D01*
X960548D01*
Y1406114D01*
Y1395774D01*
X962279D01*
X963270Y1395971D01*
X964069Y1396505D01*
X965061Y1397168D01*
X965654Y1396857D01*
X966279Y1396733D01*
X972279D01*
X972622Y1396801D01*
X975916Y1393507D01*
X977026Y1392765D01*
X976785Y1391495D01*
X976279D01*
X975654Y1391371D01*
X975125Y1391017D01*
X974771Y1390488D01*
X974647Y1389864D01*
Y1371864D01*
X974771Y1371240D01*
X975125Y1370710D01*
X975654Y1370357D01*
X976279Y1370233D01*
X988279D01*
X988903Y1370357D01*
X989432Y1370710D01*
X989786Y1371240D01*
X989910Y1371864D01*
Y1388654D01*
X991180Y1389181D01*
X996505Y1383855D01*
X996505Y1383855D01*
X997875Y1382940D01*
X999490Y1382619D01*
X999490Y1382619D01*
X1007158D01*
X1008735Y1381565D01*
X1010920Y1381130D01*
X1013105Y1381565D01*
X1014957Y1382803D01*
X1016195Y1384655D01*
X1016630Y1386840D01*
X1016195Y1389025D01*
X1014957Y1390877D01*
X1013105Y1392115D01*
X1010920Y1392550D01*
X1008735Y1392115D01*
X1007158Y1391061D01*
X1001238D01*
X992823Y1399477D01*
X991453Y1400392D01*
X989838Y1400713D01*
X989838Y1400713D01*
X980649D01*
X973910Y1407452D01*
Y1410601D01*
X974554Y1411564D01*
X974988Y1413749D01*
X974554Y1415934D01*
X973316Y1417787D01*
X971464Y1419025D01*
X969279Y1419459D01*
D02*
G37*
G36*
X1124881Y1438960D02*
X1119801D01*
Y1432560D01*
X1127471D01*
Y1436370D01*
X1127274Y1437361D01*
X1126712Y1438201D01*
X1125872Y1438763D01*
X1124881Y1438960D01*
D02*
G37*
G36*
X1162050D02*
X1156970D01*
X1155979Y1438763D01*
X1155139Y1438201D01*
X1154577Y1437361D01*
X1154380Y1436370D01*
Y1432560D01*
X1162050D01*
Y1438960D01*
D02*
G37*
G36*
X1139444D02*
X1134364D01*
X1133373Y1438763D01*
X1132533Y1438201D01*
X1131971Y1437361D01*
X1131774Y1436370D01*
Y1432560D01*
X1139444D01*
Y1438960D01*
D02*
G37*
G36*
X994362Y1448485D02*
X976074D01*
X974062Y1448085D01*
X972357Y1446945D01*
X971217Y1445240D01*
X970817Y1443228D01*
X971217Y1441216D01*
X972357Y1439511D01*
X974062Y1438371D01*
X976074Y1437971D01*
X994362D01*
X996374Y1438371D01*
X998079Y1439511D01*
X999219Y1441216D01*
X999619Y1443228D01*
X999219Y1445240D01*
X998079Y1446945D01*
X996374Y1448085D01*
X994362Y1448485D01*
D02*
G37*
G36*
X1169670Y1438960D02*
X1164590D01*
Y1432560D01*
X1172260D01*
Y1436370D01*
X1172063Y1437361D01*
X1171501Y1438201D01*
X1170661Y1438763D01*
X1169670Y1438960D01*
D02*
G37*
G36*
X1147064D02*
X1141984D01*
Y1432560D01*
X1149654D01*
Y1436370D01*
X1149457Y1437361D01*
X1148895Y1438201D01*
X1148055Y1438763D01*
X1147064Y1438960D01*
D02*
G37*
G36*
X1162050Y1430020D02*
X1154380D01*
Y1426210D01*
X1154577Y1425219D01*
X1155139Y1424379D01*
X1155979Y1423817D01*
X1156970Y1423620D01*
X1162050D01*
Y1430020D01*
D02*
G37*
G36*
X1149654D02*
X1141984D01*
Y1423620D01*
X1147064D01*
X1148055Y1423817D01*
X1148895Y1424379D01*
X1149457Y1425219D01*
X1149654Y1426210D01*
Y1430020D01*
D02*
G37*
G36*
X1139444D02*
X1131774D01*
Y1426210D01*
X1131971Y1425219D01*
X1132533Y1424379D01*
X1133373Y1423817D01*
X1134364Y1423620D01*
X1139444D01*
Y1430020D01*
D02*
G37*
G36*
X1197102Y1433880D02*
X1192022D01*
Y1427480D01*
X1199692D01*
Y1431290D01*
X1199495Y1432281D01*
X1198933Y1433121D01*
X1198093Y1433683D01*
X1197102Y1433880D01*
D02*
G37*
G36*
X1189482D02*
X1184402D01*
X1183411Y1433683D01*
X1182571Y1433121D01*
X1182009Y1432281D01*
X1181812Y1431290D01*
Y1427480D01*
X1189482D01*
Y1433880D01*
D02*
G37*
G36*
X1172260Y1430020D02*
X1164590D01*
Y1423620D01*
X1169670D01*
X1170661Y1423817D01*
X1171501Y1424379D01*
X1172063Y1425219D01*
X1172260Y1426210D01*
Y1430020D01*
D02*
G37*
%LPD*%
G36*
X914984Y1397421D02*
X915125Y1397211D01*
X915654Y1396857D01*
X916279Y1396733D01*
X922279D01*
X922903Y1396857D01*
X923432Y1397211D01*
X923573Y1397421D01*
X923857Y1397497D01*
X924700D01*
X924984Y1397421D01*
X925125Y1397211D01*
X925654Y1396857D01*
X926279Y1396733D01*
X932279D01*
X932903Y1396857D01*
X933432Y1397211D01*
X933573Y1397421D01*
X933857Y1397497D01*
X934700D01*
X934984Y1397421D01*
X935125Y1397211D01*
X935654Y1396857D01*
X936279Y1396733D01*
X940657D01*
X941183Y1395463D01*
X938350Y1392629D01*
X901372D01*
X898442Y1395559D01*
X898928Y1396733D01*
X902279D01*
X902903Y1396857D01*
X903432Y1397211D01*
X903573Y1397421D01*
X903857Y1397497D01*
X904700D01*
X904984Y1397421D01*
X905125Y1397211D01*
X905654Y1396857D01*
X906279Y1396733D01*
X912279D01*
X912903Y1396857D01*
X913432Y1397211D01*
X913573Y1397421D01*
X913857Y1397497D01*
X914700D01*
X914984Y1397421D01*
D02*
G37*
G36*
X895057Y1426887D02*
Y1414916D01*
X894771Y1414488D01*
X894647Y1413864D01*
Y1401014D01*
X893474Y1400528D01*
X884839Y1409162D01*
Y1425271D01*
X889762D01*
X891774Y1425671D01*
X893479Y1426811D01*
X893787Y1427272D01*
X895057Y1426887D01*
D02*
G37*
G36*
X1110550Y1482598D02*
Y1472438D01*
X1110674Y1471814D01*
X1111028Y1471284D01*
X1111557Y1470931D01*
X1112181Y1470807D01*
X1115346D01*
Y1458321D01*
X1112181D01*
X1111557Y1458197D01*
X1111028Y1457843D01*
X1110674Y1457314D01*
X1110550Y1456690D01*
Y1446530D01*
X1110674Y1445906D01*
X1111028Y1445376D01*
X1110910Y1444023D01*
X1110498Y1443619D01*
X1087138D01*
X1086447Y1444871D01*
X1086519Y1445235D01*
X1087549Y1446264D01*
X1088907Y1445908D01*
X1088943Y1445863D01*
X1089268Y1445376D01*
X1089798Y1445023D01*
X1090422Y1444899D01*
X1103122D01*
X1103746Y1445023D01*
X1104276Y1445376D01*
X1104629Y1445906D01*
X1104753Y1446530D01*
Y1456690D01*
X1104629Y1457314D01*
X1104276Y1457843D01*
X1103746Y1458197D01*
X1103122Y1458321D01*
X1099957D01*
Y1470807D01*
X1102360D01*
X1102984Y1470931D01*
X1103513Y1471284D01*
X1103867Y1471814D01*
X1103991Y1472438D01*
Y1482598D01*
X1104939Y1483731D01*
X1109603D01*
X1110550Y1482598D01*
D02*
G37*
G36*
X1087789Y1484790D02*
X1088506Y1483752D01*
X1088153Y1483222D01*
X1088029Y1482598D01*
Y1472438D01*
X1088153Y1471814D01*
X1088506Y1471284D01*
X1089036Y1470931D01*
X1089660Y1470807D01*
X1093587D01*
Y1458321D01*
X1090422D01*
X1089798Y1458197D01*
X1089268Y1457843D01*
X1088915Y1457314D01*
X1088791Y1456690D01*
Y1455939D01*
X1088390Y1454795D01*
X1087171Y1454553D01*
X1086138Y1453862D01*
X1086138Y1453862D01*
X1082241Y1449966D01*
X1081539Y1450143D01*
X1080971Y1450624D01*
Y1489812D01*
X1082241Y1490338D01*
X1087789Y1484790D01*
D02*
G37*
D10*
X1118531Y1377442D02*
D03*
Y1397762D02*
D03*
X1190752Y1426210D02*
D03*
Y1446530D02*
D03*
X1163320Y1431290D02*
D03*
Y1451610D02*
D03*
X1140714Y1431290D02*
D03*
Y1451610D02*
D03*
X1118531Y1431290D02*
D03*
Y1451610D02*
D03*
X1096772D02*
D03*
Y1431290D02*
D03*
X1190752Y1466850D02*
D03*
Y1487170D02*
D03*
X1163066Y1477518D02*
D03*
Y1497838D02*
D03*
X1140714Y1477518D02*
D03*
Y1497838D02*
D03*
X1118531Y1477518D02*
D03*
Y1497838D02*
D03*
X1096010Y1477518D02*
D03*
Y1497838D02*
D03*
X1160018Y1397762D02*
D03*
Y1377442D02*
D03*
D11*
X1348232Y1296458D02*
D03*
Y1333458D02*
D03*
X1236472Y1296712D02*
D03*
Y1333712D02*
D03*
D12*
X1280868Y1306118D02*
D03*
Y1315618D02*
D03*
Y1325118D02*
D03*
X1305868D02*
D03*
Y1315618D02*
D03*
Y1306118D02*
D03*
D13*
X831576Y1464028D02*
D03*
Y1474028D02*
D03*
Y1484028D02*
D03*
Y1494028D02*
D03*
Y1504028D02*
D03*
X1035200Y1488928D02*
D03*
Y1478928D02*
D03*
Y1468928D02*
D03*
D14*
X806326Y1451028D02*
D03*
Y1517028D02*
D03*
X1060450Y1501928D02*
D03*
Y1455928D02*
D03*
D15*
X880618Y1544828D02*
D03*
D16*
Y1532128D02*
D03*
Y1519428D02*
D03*
Y1506728D02*
D03*
Y1494028D02*
D03*
Y1481328D02*
D03*
Y1468628D02*
D03*
Y1455928D02*
D03*
Y1443228D02*
D03*
Y1430528D02*
D03*
X985218Y1544828D02*
D03*
Y1532128D02*
D03*
Y1519428D02*
D03*
Y1506728D02*
D03*
Y1494028D02*
D03*
Y1481328D02*
D03*
Y1468628D02*
D03*
Y1455928D02*
D03*
Y1443228D02*
D03*
Y1430528D02*
D03*
D17*
X563880Y1538986D02*
D03*
X676437D02*
D03*
X563880Y1436699D02*
D03*
X676437D02*
D03*
X563880Y1334412D02*
D03*
X675530Y1334452D02*
D03*
D18*
X563880Y1532486D02*
D03*
Y1525986D02*
D03*
Y1519486D02*
D03*
Y1512986D02*
D03*
Y1506486D02*
D03*
Y1499986D02*
D03*
Y1493486D02*
D03*
Y1486986D02*
D03*
Y1480486D02*
D03*
Y1473986D02*
D03*
Y1467486D02*
D03*
X631155D02*
D03*
Y1473986D02*
D03*
Y1480486D02*
D03*
Y1486986D02*
D03*
Y1493486D02*
D03*
Y1499986D02*
D03*
Y1506486D02*
D03*
Y1512986D02*
D03*
Y1519486D02*
D03*
Y1525986D02*
D03*
Y1532486D02*
D03*
Y1538986D02*
D03*
X676437Y1532486D02*
D03*
Y1525986D02*
D03*
Y1519486D02*
D03*
Y1512986D02*
D03*
Y1506486D02*
D03*
Y1499986D02*
D03*
Y1493486D02*
D03*
Y1486986D02*
D03*
Y1480486D02*
D03*
Y1473986D02*
D03*
Y1467486D02*
D03*
X743712D02*
D03*
Y1473986D02*
D03*
Y1480486D02*
D03*
Y1486986D02*
D03*
Y1493486D02*
D03*
Y1499986D02*
D03*
Y1506486D02*
D03*
Y1512986D02*
D03*
Y1519486D02*
D03*
Y1525986D02*
D03*
Y1532486D02*
D03*
Y1538986D02*
D03*
X563880Y1430199D02*
D03*
Y1423699D02*
D03*
Y1417199D02*
D03*
Y1410699D02*
D03*
Y1404199D02*
D03*
Y1397699D02*
D03*
Y1391199D02*
D03*
Y1384699D02*
D03*
Y1378199D02*
D03*
Y1371699D02*
D03*
Y1365199D02*
D03*
X631155D02*
D03*
Y1371699D02*
D03*
Y1378199D02*
D03*
Y1384699D02*
D03*
Y1391199D02*
D03*
Y1397699D02*
D03*
Y1404199D02*
D03*
Y1410699D02*
D03*
Y1417199D02*
D03*
Y1423699D02*
D03*
Y1430199D02*
D03*
Y1436699D02*
D03*
X676437Y1430199D02*
D03*
Y1423699D02*
D03*
Y1417199D02*
D03*
Y1410699D02*
D03*
Y1404199D02*
D03*
Y1397699D02*
D03*
Y1391199D02*
D03*
Y1384699D02*
D03*
Y1378199D02*
D03*
Y1371699D02*
D03*
Y1365199D02*
D03*
X743712D02*
D03*
Y1371699D02*
D03*
Y1378199D02*
D03*
Y1384699D02*
D03*
Y1391199D02*
D03*
Y1397699D02*
D03*
Y1404199D02*
D03*
Y1410699D02*
D03*
Y1417199D02*
D03*
Y1423699D02*
D03*
Y1430199D02*
D03*
Y1436699D02*
D03*
X563880Y1327912D02*
D03*
Y1321412D02*
D03*
Y1314912D02*
D03*
Y1308412D02*
D03*
Y1301912D02*
D03*
Y1295412D02*
D03*
Y1288912D02*
D03*
Y1282412D02*
D03*
Y1275912D02*
D03*
Y1269412D02*
D03*
Y1262912D02*
D03*
X631155D02*
D03*
Y1269412D02*
D03*
Y1275912D02*
D03*
Y1282412D02*
D03*
Y1288912D02*
D03*
Y1295412D02*
D03*
Y1301912D02*
D03*
Y1308412D02*
D03*
Y1314912D02*
D03*
Y1321412D02*
D03*
Y1327912D02*
D03*
Y1334412D02*
D03*
X675530Y1327952D02*
D03*
Y1321452D02*
D03*
Y1314952D02*
D03*
Y1308452D02*
D03*
Y1301952D02*
D03*
Y1295452D02*
D03*
Y1288952D02*
D03*
Y1282452D02*
D03*
Y1275952D02*
D03*
Y1269452D02*
D03*
Y1262952D02*
D03*
X742805D02*
D03*
Y1269452D02*
D03*
Y1275952D02*
D03*
Y1282452D02*
D03*
Y1288952D02*
D03*
Y1295452D02*
D03*
Y1301952D02*
D03*
Y1308452D02*
D03*
Y1314952D02*
D03*
Y1321452D02*
D03*
Y1327952D02*
D03*
Y1334452D02*
D03*
D19*
X819866Y1285598D02*
D03*
X809866D02*
D03*
X799866D02*
D03*
X789866D02*
D03*
X896279Y1285718D02*
D03*
X886279D02*
D03*
X876279D02*
D03*
X866279D02*
D03*
X972631D02*
D03*
X962631D02*
D03*
X952631D02*
D03*
X942631D02*
D03*
X1028983D02*
D03*
X1018983D02*
D03*
X1296336Y1277082D02*
D03*
X1286336D02*
D03*
X1080450Y1406114D02*
D03*
X1070450D02*
D03*
X1060450D02*
D03*
X1050450D02*
D03*
X1040450D02*
D03*
X969279D02*
D03*
X959278D02*
D03*
X949278D02*
D03*
X939278D02*
D03*
X929279D02*
D03*
X919279D02*
D03*
X909278D02*
D03*
X899278D02*
D03*
D20*
X832866Y1260348D02*
D03*
X776866D02*
D03*
X909278Y1260468D02*
D03*
X853279D02*
D03*
X985631D02*
D03*
X929631D02*
D03*
X1041983D02*
D03*
X1005983D02*
D03*
X1309336Y1251832D02*
D03*
X1273336D02*
D03*
X1093450Y1380864D02*
D03*
X1027450D02*
D03*
X982279D02*
D03*
X886279D02*
D03*
D21*
X1185926Y1253998D02*
D03*
X1165606D02*
D03*
X1106678Y1255522D02*
D03*
X1086358D02*
D03*
Y1335786D02*
D03*
X1106678D02*
D03*
X1165606Y1332230D02*
D03*
X1185926D02*
D03*
D22*
X1105408Y1280718D02*
D03*
X1096010Y1306118D02*
D03*
X1086358Y1306118D02*
D03*
X1105408D02*
D03*
X1086358Y1280718D02*
D03*
X1166876Y1306118D02*
D03*
X1176274Y1280718D02*
D03*
X1185926Y1280718D02*
D03*
X1166876D02*
D03*
X1185926Y1306118D02*
D03*
D23*
X1086612Y1422146D02*
X1106678Y1402080D01*
X1067562Y1422146D02*
X1086612D01*
X1050450Y1406114D02*
Y1416972D01*
X1076750Y1445304D02*
Y1513288D01*
X1057910Y1532128D02*
X1076750Y1513288D01*
X1050450Y1419004D02*
X1076750Y1445304D01*
X1176274Y1280718D02*
Y1296466D01*
X1174648Y1294840D02*
X1176274Y1296466D01*
X1185926Y1306118D01*
X1163828Y1294840D02*
X1174648D01*
X1160196Y1291208D02*
X1163828Y1294840D01*
X1165606Y1253998D02*
Y1264769D01*
X1160196Y1270179D02*
X1165606Y1264769D01*
X1160196Y1270179D02*
Y1291208D01*
X1166876Y1280718D02*
X1169594Y1278000D01*
Y1270228D02*
Y1278000D01*
Y1270228D02*
X1171092Y1268730D01*
X1177290D01*
X1185926Y1253998D02*
Y1280718D01*
X1296162Y1268984D02*
X1296670Y1269492D01*
X1195332Y1296712D02*
X1236472D01*
X1185926Y1306118D02*
X1195332Y1296712D01*
X1266190Y1325118D02*
X1280868D01*
X1166876Y1330960D02*
X1175512Y1322324D01*
X1105408Y1280718D02*
X1105712Y1280414D01*
X1166876Y1306118D02*
Y1330960D01*
X1165606Y1332230D02*
X1166876Y1330960D01*
X1185926Y1306118D02*
Y1332230D01*
X1105966Y1280668D02*
X1112520D01*
X1106678Y1255522D02*
Y1263142D01*
X1086358Y1280718D02*
Y1288796D01*
Y1306118D02*
Y1335786D01*
X1253084Y1315618D02*
X1280868D01*
X1086358Y1335786D02*
Y1350518D01*
X1154430Y1345184D02*
X1172972D01*
X1185926Y1332230D01*
X1086358Y1255522D02*
Y1280718D01*
X1009650Y1436914D02*
X1040450Y1406114D01*
X1004824Y1519428D02*
X1009650Y1514602D01*
X985218Y1519428D02*
X1004824D01*
X985218Y1532128D02*
X1057910D01*
X1060450Y1406114D02*
Y1415034D01*
X1067562Y1422146D01*
X891286Y1506982D02*
Y1508506D01*
X1199540Y1315618D02*
Y1350874D01*
X1070450Y1242220D02*
Y1344942D01*
X563903Y1430274D02*
X577342D01*
X563880Y1430251D02*
X563903Y1430274D01*
X899278Y1406114D02*
Y1463938D01*
X894588Y1468628D02*
X899278Y1463938D01*
X880618Y1468628D02*
X894588D01*
X900430Y1519428D02*
X919279Y1500579D01*
X880618Y1519428D02*
X900430D01*
X919279Y1406114D02*
Y1500579D01*
X929279Y1406114D02*
Y1454551D01*
X898906Y1481328D02*
X899414Y1480820D01*
X880618Y1481328D02*
X898906D01*
X880618Y1494028D02*
X900684D01*
X909278Y1485434D01*
Y1406114D02*
Y1485434D01*
X939278Y1406114D02*
Y1424164D01*
X945642Y1430528D01*
X985218D01*
X880618Y1407414D02*
Y1430528D01*
X969279Y1406114D02*
Y1413749D01*
X940308Y1441958D02*
Y1523746D01*
X919226Y1544828D02*
X940308Y1523746D01*
X880618Y1544828D02*
X919226D01*
X969279Y1406114D02*
X978901Y1396492D01*
X989838D01*
X999490Y1386840D01*
X1010920D01*
X1069942D02*
X1070450Y1387348D01*
Y1406114D01*
X818736Y1504028D02*
X831576D01*
X814324Y1499616D02*
X818736Y1504028D01*
X814324Y1477518D02*
Y1499616D01*
Y1477518D02*
X817814Y1474028D01*
X831576D01*
X817814D02*
X819466Y1472376D01*
X808736Y1366266D02*
X819466Y1376996D01*
X831576Y1504028D02*
Y1528338D01*
X762254Y1597660D02*
X831576Y1528338D01*
X657352Y1597660D02*
X762254D01*
X538480Y1430020D02*
Y1528318D01*
X667200Y1519486D02*
X676218D01*
X783138Y1320038D02*
X828802D01*
X575790Y1321336D02*
X585736Y1311390D01*
X575800Y1308336D02*
X576072Y1308608D01*
X538480Y1324864D02*
X548328Y1315016D01*
X828802Y1320038D02*
X844279Y1335515D01*
Y1338106D01*
X860552Y1335621D02*
Y1336294D01*
X844279Y1338106D02*
X858259Y1352086D01*
X832479Y1307548D02*
X860552Y1335621D01*
X919789Y1366266D02*
X924100Y1361955D01*
X808736Y1366266D02*
X873448D01*
X876638Y1363076D01*
X895919D01*
X899109Y1366266D01*
X919789D01*
X858259Y1352086D02*
X871608D01*
X871946Y1351748D01*
X900611D01*
X901203Y1352340D01*
X945696Y1361955D02*
X959278Y1375537D01*
X924100Y1361955D02*
X945696D01*
X959278Y1375537D02*
Y1406114D01*
X880618Y1407414D02*
X899624Y1388408D01*
X538480Y1528318D02*
X547312Y1519486D01*
X563880D01*
X676218Y1315016D02*
X692082D01*
X765454Y1257706D02*
Y1277319D01*
X765422Y1277351D02*
X765454Y1277319D01*
X765422Y1277351D02*
Y1283785D01*
X776820Y1297700D02*
X786668Y1307548D01*
X832479D01*
X783138Y1322126D02*
Y1326078D01*
X763580Y1300480D02*
X763806Y1300706D01*
X783138Y1320038D01*
X763580Y1300480D02*
X764032Y1300028D01*
X734671Y1314450D02*
X734903Y1314682D01*
X776820Y1294675D02*
Y1297700D01*
X765422Y1283785D02*
X768821Y1287184D01*
X769329D01*
X776820Y1294675D01*
X764032Y1299972D02*
Y1300028D01*
X761260Y1314682D02*
X761492Y1314450D01*
Y1316974D01*
X765385Y1320866D01*
X729488Y1314450D02*
X734671D01*
X718242Y1322820D02*
X720086D01*
X725350Y1317556D01*
X726382D01*
X729488Y1314450D01*
X718058Y1313180D02*
Y1313557D01*
X666750Y1348232D02*
X668394Y1346588D01*
X771354Y1337862D02*
X771401D01*
X770890Y1338326D02*
X771354Y1337862D01*
X765385Y1320866D02*
Y1326512D01*
X703329Y1320844D02*
X704985Y1319188D01*
X762628Y1329269D02*
X765385Y1326512D01*
X538480Y1324864D02*
Y1430020D01*
X551249Y1417251D01*
X643338Y1416395D02*
X643592Y1416649D01*
X642990Y1417251D02*
X643592Y1416649D01*
X819466Y1376996D02*
Y1472376D01*
X650704Y1463805D02*
X655825Y1468926D01*
X650704Y1461767D02*
X664885Y1447585D01*
X650704Y1461767D02*
Y1463805D01*
X644024Y1459000D02*
X655872Y1447152D01*
X644024Y1459000D02*
Y1466572D01*
X643592Y1416649D02*
Y1420696D01*
X664885Y1440504D02*
X664885Y1440504D01*
Y1447585D01*
X611886Y1457198D02*
X612133D01*
X752859Y1417364D02*
X758146Y1412077D01*
Y1405172D02*
Y1412077D01*
Y1423928D01*
X759911Y1425693D01*
Y1444743D01*
X773862Y1458693D01*
Y1472754D01*
X769208Y1477408D02*
X773862Y1472754D01*
X769208Y1477408D02*
Y1500457D01*
X769684Y1500933D01*
Y1509870D01*
X760068Y1519486D02*
X769684Y1509870D01*
X675989Y1417022D02*
X676218Y1417251D01*
X763480Y1395981D02*
Y1399838D01*
X758146Y1405172D02*
X763480Y1399838D01*
X583946Y1505712D02*
Y1520190D01*
X575564Y1532128D02*
Y1532382D01*
X563880Y1532486D02*
X563984Y1532382D01*
X695770Y1466914D02*
X695960Y1467104D01*
X631155Y1519486D02*
X638787D01*
X648462Y1487123D02*
X651046Y1489707D01*
X657352Y1597660D02*
X664254Y1590758D01*
X663956Y1525477D02*
X664254Y1525775D01*
Y1590758D01*
X665480Y1521206D02*
X667200Y1519486D01*
X663956Y1522730D02*
Y1525477D01*
Y1522730D02*
X665480Y1521206D01*
X663492Y1491485D02*
Y1498574D01*
X656176Y1511902D02*
X665480Y1521206D01*
X638787Y1519486D02*
X644848Y1513425D01*
Y1501198D02*
Y1513425D01*
X656176Y1505890D02*
Y1511902D01*
Y1505890D02*
X663492Y1498574D01*
Y1351490D02*
X666750Y1348232D01*
X642707Y1386974D02*
X643592Y1387859D01*
X643338Y1402839D02*
X643592Y1402585D01*
X643338Y1402839D02*
Y1416395D01*
X652482Y1441199D02*
X655872Y1444589D01*
Y1447152D01*
X643592Y1387859D02*
Y1402585D01*
X661342Y1405084D02*
X664885Y1401541D01*
X659635Y1405084D02*
X661342D01*
X659635Y1417364D02*
X664721D01*
X665063Y1417022D01*
X675989D01*
X659340Y1423921D02*
X662937Y1420324D01*
X659340Y1423921D02*
Y1429007D01*
X648012Y1425116D02*
Y1433699D01*
X652482Y1438169D01*
Y1441199D01*
X643592Y1420696D02*
X648012Y1425116D01*
X664885Y1434553D02*
Y1440504D01*
X662937Y1420324D02*
X662984D01*
X659340Y1429007D02*
X664885Y1434553D01*
X662984Y1420324D02*
X664885Y1418423D01*
X651046Y1489707D02*
Y1495000D01*
X644848Y1501198D02*
X651046Y1495000D01*
X658674Y1487888D02*
X659895D01*
X663492Y1491485D01*
X656038Y1408681D02*
X659635Y1405084D01*
X656038Y1408681D02*
Y1413767D01*
X659635Y1417364D01*
X764596Y1386087D02*
X765346Y1386837D01*
Y1394115D01*
X763480Y1395981D02*
X765346Y1394115D01*
X771401Y1337862D02*
X774998Y1334265D01*
Y1334218D02*
Y1334265D01*
Y1334218D02*
X783138Y1326078D01*
X688728Y1448696D02*
X689102Y1449070D01*
X846074Y1419098D02*
X846328Y1419352D01*
X859235Y1455928D02*
X880618D01*
X655825Y1468926D02*
Y1470616D01*
X655530Y1470911D02*
X655825Y1470616D01*
X655530Y1470911D02*
Y1484744D01*
X658674Y1487888D01*
X648462Y1478073D02*
X648506Y1478029D01*
X648462Y1478073D02*
Y1487123D01*
X648506Y1471054D02*
Y1478029D01*
X644024Y1466572D02*
X648506Y1471054D01*
X711530Y1335800D02*
Y1340075D01*
X702815Y1330662D02*
X703069D01*
X707863Y1325868D01*
X642678Y1315016D02*
X650228Y1322566D01*
X645157Y1351490D02*
X663492D01*
X641560Y1355087D02*
X645157Y1351490D01*
X641560Y1355087D02*
Y1360173D01*
X642707Y1361320D01*
X664885Y1368908D02*
Y1401541D01*
X664794Y1368817D02*
X664885Y1368908D01*
X664794Y1362710D02*
Y1368817D01*
Y1362710D02*
X667048Y1360456D01*
Y1358281D02*
Y1360456D01*
Y1358281D02*
X671255Y1354074D01*
X650228Y1338615D02*
X659845Y1348232D01*
X650228Y1322566D02*
Y1338615D01*
X659845Y1348232D02*
X666750D01*
X704985Y1319188D02*
X707183D01*
X707305Y1319066D01*
X712295D01*
X713189Y1318172D01*
X713443D01*
X718058Y1313557D01*
X716210Y1324852D02*
X718242Y1322820D01*
X715956Y1324852D02*
X716210D01*
X715062Y1325746D02*
X715956Y1324852D01*
X710072Y1325746D02*
X715062D01*
X709950Y1325868D02*
X710072Y1325746D01*
X707863Y1325868D02*
X709950D01*
X711530Y1335800D02*
X713444Y1333886D01*
X668394Y1346588D02*
X680950D01*
X681876Y1347514D01*
X770890Y1338326D02*
Y1339342D01*
X762628Y1329269D02*
Y1340224D01*
X762750Y1340346D01*
Y1342714D01*
X764596Y1344560D01*
X671255Y1354074D02*
X678989D01*
X679109Y1354194D01*
X692477D01*
X694433Y1356150D01*
X681876Y1347514D02*
X689613D01*
X694433Y1356150D02*
X699519D01*
X703790Y1351879D01*
X689613Y1347514D02*
X692462Y1344665D01*
X708497Y1343108D02*
X711530Y1340075D01*
X692082Y1315016D02*
X697909Y1320844D01*
X703329D01*
X676218Y1328016D02*
X693570D01*
X764596Y1344560D02*
Y1386087D01*
X696258Y1337219D02*
X702815Y1330662D01*
X692462Y1342267D02*
Y1344665D01*
Y1342267D02*
X696258Y1338471D01*
Y1337219D02*
Y1338471D01*
X601980Y1434592D02*
Y1447045D01*
X642707Y1361320D02*
Y1386974D01*
X687989Y1433526D02*
X688591Y1434128D01*
X688728D01*
Y1448696D01*
X676437Y1430199D02*
X685293D01*
X687989Y1432894D01*
Y1433526D01*
X707641Y1343108D02*
X708497D01*
X703790Y1346959D02*
Y1351879D01*
Y1346959D02*
X707641Y1343108D01*
X1070450Y1242220D02*
X1174148D01*
X1185926Y1253998D01*
X585736Y1301082D02*
Y1311390D01*
X585712Y1301058D02*
X585736Y1301082D01*
X585712Y1276251D02*
Y1301058D01*
Y1276251D02*
X588066Y1273897D01*
Y1267150D02*
Y1273897D01*
X609390Y1245826D02*
X753574D01*
X588066Y1267150D02*
X609390Y1245826D01*
X753574D02*
X765454Y1257706D01*
X538480Y1528318D02*
Y1538478D01*
X597662Y1597660D01*
X657352D01*
X949278Y1397589D02*
Y1406114D01*
X899624Y1388408D02*
X940098D01*
X949278Y1397589D01*
X846328Y1419352D02*
Y1443021D01*
X859235Y1455928D01*
X563880Y1328016D02*
X584350D01*
X601980Y1447045D02*
X612133Y1457198D01*
X563984Y1532382D02*
X575564D01*
X676218Y1532486D02*
X691538D01*
X1050450Y1416972D02*
Y1419004D01*
X945696Y1361955D02*
X1020071D01*
X1086358Y1350518D02*
X1086714Y1350874D01*
X1078992Y1291590D02*
X1081786Y1288796D01*
X1096772Y1273048D02*
X1106678Y1263142D01*
X1105408Y1297178D02*
Y1306118D01*
X1086358Y1288796D02*
X1096010Y1298448D01*
Y1306118D01*
X1166876Y1306118D02*
X1166876Y1306118D01*
X1105408Y1306118D02*
X1166876D01*
X1145032Y1335786D02*
X1154430Y1345184D01*
X1106678Y1335786D02*
X1145032D01*
X1096010Y1306118D02*
Y1314958D01*
X1106678Y1325626D01*
Y1335786D01*
X1105712Y1280414D02*
X1105966Y1280668D01*
X1096772Y1288542D02*
X1105408Y1297178D01*
X1096772Y1273048D02*
Y1288542D01*
X1070450Y1344942D02*
X1074178Y1348670D01*
X1040384Y1365504D02*
X1040450Y1406114D01*
X1065740Y1352340D02*
X1066038Y1352042D01*
X901203Y1352340D02*
X1065740D01*
X1070450Y1359142D02*
X1074178Y1355414D01*
Y1348670D02*
Y1355414D01*
X1106678Y1335786D02*
Y1402080D01*
X1070450Y1359142D02*
Y1387348D01*
X1060450Y1386840D02*
X1069942D01*
X631155Y1315016D02*
X642678D01*
X734903Y1314682D02*
X761260D01*
X631155Y1417251D02*
X642990D01*
X743493D02*
X743606Y1417364D01*
X752859D01*
X743493Y1519486D02*
X760068D01*
X548328Y1315016D02*
X563880D01*
X551249Y1417251D02*
X563880D01*
X1081786Y1288796D02*
X1086358D01*
D24*
X1118531Y1397762D02*
Y1407753D01*
X1049782Y1416304D02*
X1050450Y1416972D01*
X1129538Y1388449D02*
Y1411732D01*
X1118531Y1377442D02*
X1129538Y1388449D01*
X831576Y1494028D02*
X843280D01*
X843534Y1494282D01*
X740410Y1436116D02*
X749600Y1445305D01*
X726960Y1330560D02*
X729652Y1327868D01*
X1063171Y1491622D02*
X1068158D01*
X1062543Y1492250D02*
X1063171Y1491622D01*
X1083310Y1493774D02*
Y1501394D01*
X1002284Y1488186D02*
X1019556D01*
X848012Y1484028D02*
X855218Y1491234D01*
X831576Y1484028D02*
X848012D01*
X985218Y1494028D02*
X1017016D01*
X1017524Y1494536D01*
X1083310Y1493774D02*
X1090168Y1486916D01*
X1131316D01*
X1140714Y1477518D01*
X1163066Y1451864D02*
X1163320Y1451610D01*
X1163066Y1451864D02*
Y1458722D01*
X1158494Y1463294D02*
X1163066Y1458722D01*
X1163066Y1467866D02*
Y1477518D01*
X1158494Y1463294D02*
X1163066Y1467866D01*
X1151636Y1463294D02*
X1158494D01*
X985218Y1481328D02*
X1014222D01*
X1015746Y1479804D01*
X1059221Y1488928D02*
X1062543Y1492250D01*
X1163066Y1497457D02*
Y1497838D01*
X1035200Y1488928D02*
X1059221D01*
X1063021Y1486154D02*
X1070610D01*
X1055795Y1478928D02*
X1063021Y1486154D01*
X1063498Y1480058D02*
X1070610D01*
X1052368Y1468928D02*
X1063498Y1480058D01*
X1035200Y1468928D02*
X1052368D01*
X1035200Y1478928D02*
X1055795D01*
X1189482Y1485900D02*
X1190752Y1487170D01*
X1179576Y1485900D02*
X1189482D01*
X1175766Y1468882D02*
X1188720D01*
X1190752Y1466850D01*
X985218Y1468628D02*
X1017016D01*
X1017524Y1469136D01*
X1096010Y1497838D02*
Y1507236D01*
X1046734Y1513078D02*
X1066800D01*
X1034542Y1500886D02*
X1046734Y1513078D01*
X1003046Y1500886D02*
X1034542D01*
X860806Y1475994D02*
Y1512062D01*
X848840Y1464028D02*
X860806Y1475994D01*
X831576Y1464028D02*
X848840D01*
X992378Y1443228D02*
X993140D01*
X1080770Y1440434D02*
X1113028D01*
X1118531Y1445937D01*
Y1451610D01*
X1088390D02*
X1096772D01*
X1083056Y1446276D02*
X1088390Y1451610D01*
X985218Y1455928D02*
X985980Y1455166D01*
X1017524D01*
X1190752Y1446530D02*
Y1466850D01*
X1163066Y1477518D02*
X1163320Y1477264D01*
X1140714Y1451610D02*
Y1477518D01*
X1118531Y1451610D02*
Y1477518D01*
X1096010D02*
X1096772Y1476756D01*
Y1451610D02*
Y1476756D01*
X563880Y1321412D02*
X563956Y1321336D01*
X575790D01*
X865632Y1443228D02*
X880618D01*
X619506Y1308354D02*
X619564Y1308412D01*
X631155D01*
X961644Y1506728D02*
X985218D01*
X951992Y1516380D02*
X961644Y1506728D01*
X812800Y1250442D02*
X819926Y1257568D01*
X675530Y1282452D02*
X675779Y1282700D01*
X563896Y1269428D02*
X577278D01*
X549494Y1301912D02*
X563880D01*
X631155Y1308412D02*
X631467Y1308100D01*
X641604D02*
X645656Y1303458D01*
X618490Y1273810D02*
X620592Y1275912D01*
X631155D01*
X616822Y1256682D02*
X639057D01*
X619228Y1262912D02*
X631155D01*
X618998Y1263142D02*
X619228Y1262912D01*
X631155Y1321412D02*
X638152D01*
X563880Y1334412D02*
X566674Y1337206D01*
Y1350264D01*
X742805Y1262952D02*
X752666D01*
X563880Y1295412D02*
X577838D01*
X620268Y1296416D02*
X621272Y1295412D01*
X631155D01*
X600710Y1300988D02*
X608584Y1308862D01*
X609600D01*
X603504Y1294384D02*
X617474Y1308354D01*
X619506D01*
X852533Y1299464D02*
X866279Y1285718D01*
X742805Y1308452D02*
X754028D01*
X876279Y1277598D02*
Y1285718D01*
X872744Y1274064D02*
X876279Y1277598D01*
X827024Y1274064D02*
X872744D01*
X791210Y1264920D02*
Y1265602D01*
X776398Y1280414D02*
X791210Y1265602D01*
X742805Y1282452D02*
X743054Y1282700D01*
X886279Y1285718D02*
Y1293295D01*
X874776Y1304798D02*
X886279Y1293295D01*
X840740Y1304798D02*
X874776D01*
X742805Y1295452D02*
X750010D01*
X942631Y1285718D02*
Y1326859D01*
X925322Y1344168D02*
X942631Y1326859D01*
X952631Y1275719D02*
Y1285718D01*
X949960Y1273048D02*
X952631Y1275719D01*
X935736Y1273048D02*
X949960D01*
X865366Y1343418D02*
X935736Y1273048D01*
X857601Y1343418D02*
X865366D01*
X853428Y1339245D02*
X857601Y1343418D01*
X853428Y1337180D02*
Y1339245D01*
X852932Y1336684D02*
X853428Y1337180D01*
X962631Y1285718D02*
Y1297969D01*
X953008Y1307592D02*
X962631Y1297969D01*
X972631Y1285718D02*
Y1298383D01*
X953008Y1318006D02*
X972631Y1298383D01*
X752666Y1262952D02*
X755142Y1265428D01*
X726650Y1255058D02*
Y1264502D01*
X787610Y1288034D02*
X789926Y1285718D01*
X959771Y1344930D02*
X1018983Y1285718D01*
X872804Y1358900D02*
X874292Y1357412D01*
X898265D01*
X899753Y1358900D01*
X911606D01*
X925970Y1368095D02*
X926643D01*
X922135Y1371930D02*
X925970Y1368095D01*
X896762Y1371930D02*
X922135D01*
X893572Y1368740D02*
X896762Y1371930D01*
X878985Y1368740D02*
X893572D01*
X877154Y1370570D02*
X878985Y1368740D01*
X877154Y1370570D02*
Y1400717D01*
X1028983Y1285718D02*
Y1293085D01*
X932764Y1379398D02*
X943610Y1368552D01*
X900624Y1379398D02*
X932764D01*
X859790Y1437386D02*
X865632Y1443228D01*
X825754Y1443736D02*
X838442Y1431048D01*
X618236Y1273810D02*
X618490D01*
X614916Y1288912D02*
X631155D01*
X742721Y1327868D02*
X742805Y1327952D01*
X620268Y1327912D02*
X631155D01*
Y1397699D02*
X636969D01*
X556768Y1350264D02*
X566674D01*
X549910Y1432814D02*
X553795Y1436699D01*
X563880D01*
X552196Y1538986D02*
X563880D01*
X549910Y1430020D02*
Y1432814D01*
X617804Y1330376D02*
X620268Y1327912D01*
X624586Y1340981D02*
X631155Y1334412D01*
X742291Y1281938D02*
X742805Y1282452D01*
X752238Y1275952D02*
X755142Y1273048D01*
Y1265428D02*
Y1273048D01*
X759758Y1275005D02*
X759790Y1274973D01*
Y1261186D02*
Y1274973D01*
X733716Y1281938D02*
X742291D01*
X733716Y1279558D02*
Y1281938D01*
X732270Y1278112D02*
X733716Y1279558D01*
X732270Y1273792D02*
Y1278112D01*
X662588Y1288952D02*
X675530D01*
X638152Y1321412D02*
X643890Y1327150D01*
X655080Y1307250D02*
Y1307606D01*
X662432Y1304798D02*
X666086Y1308452D01*
X675530D01*
X726428Y1278843D02*
X728376Y1280791D01*
X725939Y1264502D02*
X726650D01*
X736610Y1269452D02*
X742805D01*
X662588Y1288952D02*
Y1289282D01*
Y1288952D02*
X663778Y1287762D01*
X655410Y1295190D02*
X656680D01*
X668902Y1269452D02*
X673450D01*
X668426Y1270206D02*
X668902Y1269730D01*
X668426Y1270206D02*
Y1270738D01*
X659130Y1265682D02*
Y1266511D01*
X663778Y1268280D02*
Y1268436D01*
Y1268280D02*
X664254Y1267804D01*
Y1264804D02*
Y1267804D01*
Y1264804D02*
X664718Y1264340D01*
X664254Y1263876D02*
X664718Y1264340D01*
X664254Y1263560D02*
Y1263876D01*
X661252Y1260558D02*
X664254Y1263560D01*
X657008Y1260558D02*
X661252D01*
X663778Y1281283D02*
Y1287762D01*
X668049Y1270738D02*
X668426D01*
X664995Y1273792D02*
X668049Y1270738D01*
X664995Y1273792D02*
Y1274518D01*
X661174Y1278339D02*
X664995Y1274518D01*
X661174Y1278339D02*
Y1278679D01*
X663778Y1281283D01*
X642707Y1260331D02*
Y1265492D01*
X639057Y1256682D02*
X642707Y1260331D01*
X654006Y1263560D02*
X657008Y1260558D01*
X654006Y1263560D02*
Y1265062D01*
X645258Y1273810D02*
X654006Y1265062D01*
X642707Y1265492D02*
X652289Y1255910D01*
X736610Y1301952D02*
X742805D01*
X731786Y1306776D02*
X736610Y1301952D01*
X743688Y1473962D02*
X743712Y1473986D01*
X623899Y1430199D02*
X631155D01*
X742805Y1327952D02*
X746292D01*
X771652Y1280414D02*
X776398D01*
X759758Y1275005D02*
Y1286991D01*
X742805Y1288952D02*
X753238D01*
X756666Y1292380D01*
Y1298524D01*
X743054Y1282700D02*
X754634D01*
X790956Y1299464D02*
X852533D01*
X771156Y1300046D02*
X784798Y1313688D01*
X750010Y1295452D02*
X750824Y1294638D01*
X753238Y1301952D02*
X756666Y1298524D01*
X742805Y1301952D02*
X753238D01*
X754028Y1308452D02*
X754634Y1307846D01*
X771156Y1297021D02*
Y1300046D01*
X742805Y1321452D02*
X743248Y1321010D01*
X781812Y1287780D02*
X787356D01*
X766983Y1292848D02*
X771156Y1297021D01*
X765615Y1292848D02*
X766983D01*
X759758Y1286991D02*
X765615Y1292848D01*
X770636Y1316228D02*
X771049Y1316641D01*
Y1329131D01*
X755396Y1326134D02*
X756634Y1327372D01*
X726960Y1330560D02*
X727106Y1330706D01*
X729652Y1327868D02*
X742721D01*
X722002Y1302274D02*
X723690Y1300586D01*
X722002Y1302274D02*
Y1302512D01*
X710904Y1310259D02*
Y1312037D01*
Y1310259D02*
X717337Y1303826D01*
X720688D01*
X722002Y1302512D01*
X698754Y1302004D02*
X700786Y1304036D01*
X709845Y1312926D02*
X709930Y1313011D01*
X710904Y1312037D01*
X722058Y1328484D02*
X722432D01*
X726186Y1308862D02*
X726650Y1308398D01*
X721304Y1282475D02*
X723690Y1284861D01*
X728376Y1280791D02*
Y1297574D01*
X728338Y1297612D02*
X728376Y1297574D01*
X728338Y1297612D02*
Y1302512D01*
X726650Y1304200D02*
X728338Y1302512D01*
X726650Y1304200D02*
Y1308398D01*
X723690Y1284861D02*
Y1300586D01*
X721360Y1329182D02*
X722058Y1328484D01*
X722432D02*
X727696Y1323220D01*
X728728D01*
X730496Y1321452D01*
X742805D01*
X742068Y1335190D02*
X742805Y1334452D01*
X676032Y1282446D02*
X691642D01*
X751720Y1345304D02*
Y1358512D01*
X747072Y1347663D02*
Y1351341D01*
X746716Y1347306D02*
X747072Y1347663D01*
X623570Y1430528D02*
X623899Y1430199D01*
X563880Y1423699D02*
X573842D01*
X574391Y1423150D01*
X577100D01*
X578866Y1421384D01*
X630739Y1512570D02*
X631155Y1512986D01*
X607338Y1473986D02*
X631155D01*
X734892Y1486986D02*
X743712D01*
X743678Y1493520D02*
X743712Y1493486D01*
X768858Y1331322D02*
X771049Y1329131D01*
X714237Y1346211D02*
X715010Y1345438D01*
X554777Y1391199D02*
X563880D01*
X553344Y1367150D02*
Y1389767D01*
Y1367150D02*
X555295Y1365199D01*
X563880D01*
X598424Y1321308D02*
Y1364742D01*
X727106Y1330706D02*
X727456D01*
X756634Y1327372D02*
Y1335087D01*
X743712Y1363472D02*
Y1365199D01*
X623115D02*
X631155D01*
X598424Y1364742D02*
X603250Y1369568D01*
X563880Y1397699D02*
X564071Y1397508D01*
X563880Y1404199D02*
X571667D01*
X574919Y1378585D02*
X575305Y1378199D01*
X574416Y1378585D02*
X574919D01*
X571667Y1404199D02*
X574416Y1401451D01*
Y1378585D02*
Y1401451D01*
X563481Y1384300D02*
X563880Y1384699D01*
X561848Y1384300D02*
X563481D01*
X624799Y1391199D02*
X631155D01*
X621325D02*
X624799D01*
X548088Y1358944D02*
Y1408132D01*
Y1358944D02*
X556768Y1350264D01*
X548088Y1408132D02*
X549910Y1409954D01*
X553212Y1389899D02*
X553344Y1389767D01*
X631085Y1486916D02*
X631155Y1486986D01*
X563880Y1410699D02*
X568977D01*
X608120Y1405292D02*
Y1409536D01*
X622537Y1410699D02*
X631155D01*
X607898Y1409758D02*
X608120Y1409536D01*
X695198Y1506982D02*
X696102Y1507886D01*
X676437Y1512986D02*
X676461Y1513010D01*
X726388D02*
X733176Y1506222D01*
X743446Y1506220D02*
X743712Y1506486D01*
X631155Y1371699D02*
X631254Y1371600D01*
X659130Y1371346D02*
X659221Y1371254D01*
X613022Y1417066D02*
X613784Y1417828D01*
X619252Y1407414D02*
X622537Y1410699D01*
X614128Y1401736D02*
X614216Y1401648D01*
X614128Y1401736D02*
Y1410926D01*
X631155Y1410699D02*
X631172Y1410716D01*
X631068Y1404112D02*
X631155Y1404199D01*
X628142Y1404112D02*
X631068D01*
X628142Y1397699D02*
X631155D01*
X591820Y1411478D02*
X604012Y1423670D01*
X594747Y1423924D02*
X594868D01*
X553344Y1465326D02*
X594747Y1423924D01*
X553344Y1465326D02*
Y1469646D01*
X557685Y1473986D01*
X563880D01*
X745236Y1353178D02*
X747072Y1351341D01*
X709930Y1356614D02*
X718275Y1364959D01*
X743637Y1430274D02*
X743712Y1430199D01*
X712978Y1396746D02*
X720598D01*
X743712Y1384699D02*
X753339D01*
X575564Y1469644D02*
X582676Y1462532D01*
X575564Y1469644D02*
Y1478026D01*
X573104Y1480486D02*
X575564Y1478026D01*
X563880Y1480486D02*
X573104D01*
X568890Y1486986D02*
X569214Y1486662D01*
X563880Y1486986D02*
X568890D01*
X547878Y1529080D02*
Y1534668D01*
X552196Y1538986D01*
X548132Y1434592D02*
Y1510030D01*
Y1434592D02*
X549910Y1432814D01*
X553344Y1511432D02*
X554898Y1512986D01*
X554366Y1499986D02*
X563880D01*
X553344Y1501008D02*
Y1511432D01*
Y1501008D02*
X554366Y1499986D01*
X553344Y1469646D02*
Y1490858D01*
X555972Y1493486D01*
X563880D01*
X756634Y1335087D02*
X756964Y1335417D01*
X743712Y1365199D02*
X753161D01*
X739902Y1359662D02*
X743712Y1363472D01*
X738632Y1384046D02*
X739394Y1384808D01*
X693674Y1364234D02*
Y1370286D01*
X743712Y1423699D02*
Y1424985D01*
X596900Y1536700D02*
Y1540764D01*
X756202Y1384256D02*
X758932Y1381526D01*
X753782Y1384256D02*
X756202D01*
X753339Y1384699D02*
X753782Y1384256D01*
X749907Y1391199D02*
X751726Y1389380D01*
X743712Y1391199D02*
X749907D01*
X771696Y1408982D02*
X775760D01*
X778768Y1403858D02*
X789436Y1414526D01*
X775208Y1403858D02*
X778768D01*
X789436Y1414526D02*
X791210D01*
X771652Y1408938D02*
X771696Y1408982D01*
X769830Y1398734D02*
X780218D01*
X790873Y1409390D01*
X793320D01*
X825754Y1443736D02*
Y1443990D01*
X675900Y1423162D02*
X676437Y1423699D01*
X733176Y1438462D02*
Y1438859D01*
X734270Y1439952D01*
Y1440016D01*
X728529Y1440387D02*
Y1440895D01*
X734270Y1440016D02*
X737272Y1443018D01*
X713994Y1433460D02*
X730758Y1450224D01*
Y1452372D01*
X733164Y1485258D02*
X733176Y1485271D01*
X733088Y1477204D02*
X733164Y1477280D01*
X716534Y1442573D02*
Y1447292D01*
X736728Y1467486D01*
X743712D01*
X733088Y1474680D02*
Y1477204D01*
Y1474680D02*
X733806Y1473962D01*
X743688D01*
X716534Y1447292D02*
Y1460500D01*
X714998Y1462036D02*
X716534Y1460500D01*
X728440Y1470438D02*
X729488Y1469390D01*
X676437Y1480486D02*
X682632D01*
X631155Y1499986D02*
X637742D01*
X664544Y1480486D02*
X676437D01*
X675699Y1474724D02*
X676437Y1473986D01*
X613588Y1520774D02*
Y1537894D01*
Y1520774D02*
X621792Y1512570D01*
X630739D01*
X733176Y1338793D02*
X733477Y1338492D01*
X676350Y1404112D02*
X676437Y1404199D01*
X621675Y1436699D02*
X631155D01*
Y1423699D02*
X638585D01*
X663448Y1465834D02*
X670814Y1458468D01*
X645922Y1440942D02*
X646176Y1440688D01*
X630772Y1443184D02*
X633610Y1446022D01*
X641096D01*
X614128Y1410926D02*
X618432Y1415230D01*
X626528Y1443184D02*
X630772D01*
X622857Y1444454D02*
X625258D01*
X626528Y1443184D01*
X624586Y1452626D02*
X641604D01*
X631027Y1467358D02*
X631155Y1467486D01*
X632714Y1460888D02*
Y1461516D01*
X624332Y1452372D02*
X624840D01*
X609136Y1443660D02*
X619208Y1453732D01*
Y1454494D01*
X622210Y1457496D01*
X629322D02*
X632714Y1460888D01*
X622210Y1457496D02*
X629322D01*
X624332Y1452372D02*
X624586Y1452626D01*
X563880Y1463802D02*
X573278Y1454404D01*
X563880Y1463802D02*
Y1467486D01*
X658368Y1462786D02*
X659250D01*
X668216Y1453820D01*
X676437Y1436699D02*
Y1445598D01*
X668216Y1453820D02*
X676437Y1445598D01*
X695770Y1463897D02*
Y1466914D01*
X781812Y1523746D02*
Y1537462D01*
X768858Y1550416D02*
X781812Y1537462D01*
X687867Y1550416D02*
X768858D01*
X676437Y1538986D02*
X687867Y1550416D01*
X749808Y1411224D02*
X750316D01*
X744237D02*
X749808D01*
X743712Y1410699D02*
X744237Y1411224D01*
X869950Y1358900D02*
X872804D01*
X743712Y1397699D02*
X756729D01*
X743371Y1403858D02*
X743712Y1404199D01*
X764286Y1418559D02*
X766648Y1420921D01*
Y1423206D01*
X769918Y1432858D02*
X773176Y1436116D01*
X769530Y1432858D02*
X769918D01*
X765766Y1424088D02*
X766648Y1423206D01*
X751193Y1424985D02*
X754248Y1428039D01*
X765766Y1424088D02*
Y1429094D01*
X769530Y1432858D01*
X773176Y1436116D02*
Y1449324D01*
X770128Y1417828D02*
X782066Y1429766D01*
X791718D01*
X796842Y1412912D02*
Y1433412D01*
X793320Y1409390D02*
X796842Y1412912D01*
X827024Y1425194D02*
X833713D01*
X808272Y1430572D02*
Y1433786D01*
X794202Y1443734D02*
X796032Y1441904D01*
X800154D01*
X808272Y1433786D01*
X789554Y1440701D02*
X796842Y1433412D01*
X770890Y1426972D02*
X783590Y1439672D01*
Y1445768D01*
X784860Y1463294D02*
X794202Y1453952D01*
Y1443734D02*
Y1453952D01*
X789554Y1440701D02*
Y1451234D01*
X779526Y1461262D02*
X789554Y1451234D01*
X779526Y1461262D02*
Y1488694D01*
X733164Y1477280D02*
Y1485258D01*
X743712Y1467486D02*
X747140D01*
X748030Y1466856D02*
Y1467358D01*
X737272Y1443018D02*
Y1443065D01*
X754248Y1428039D02*
Y1447564D01*
X757666Y1450982D01*
X757920D01*
X768198Y1461260D01*
Y1470408D01*
X737272Y1443065D02*
X744951Y1450745D01*
Y1451414D01*
X775462Y1492758D02*
X779526Y1488694D01*
X775462Y1492758D02*
Y1494790D01*
X763543Y1475062D02*
X768198Y1470408D01*
X728529Y1440895D02*
X740303Y1452670D01*
X744951Y1451414D02*
X754248Y1460710D01*
X740303Y1455060D02*
X741426Y1456182D01*
X740303Y1452670D02*
Y1455060D01*
X749600Y1445305D02*
Y1449489D01*
X758895Y1458785D01*
X754248Y1460710D02*
Y1502146D01*
X751193Y1505200D02*
X754248Y1502146D01*
X750672Y1505200D02*
X751193D01*
X750672D02*
Y1506291D01*
X750867Y1506486D01*
X743712D02*
X750867D01*
X763543Y1502803D02*
X764019Y1503279D01*
Y1507524D01*
X763543Y1475062D02*
Y1502803D01*
X759228Y1512316D02*
X764019Y1507524D01*
X756666Y1512316D02*
X759228D01*
X758895Y1458785D02*
Y1505401D01*
X764436Y1532486D02*
X764794Y1532128D01*
X743712Y1532486D02*
X764436D01*
X744220Y1538478D02*
X757936D01*
X743712Y1538986D02*
X744220Y1538478D01*
X868680Y1532128D02*
X880618D01*
X862330Y1538478D02*
X868680Y1532128D01*
X857504Y1538478D02*
X862330D01*
X737517Y1371699D02*
X742343D01*
X769620Y1398524D02*
X769830Y1398734D01*
X775760Y1408982D02*
X789178Y1422400D01*
X770128Y1416812D02*
Y1417828D01*
X764286Y1407922D02*
Y1418559D01*
X756729Y1397699D02*
X757174Y1397254D01*
X689566Y1382104D02*
X690416Y1382954D01*
Y1387184D01*
X689102Y1388498D02*
X690416Y1387184D01*
X676224Y1391412D02*
X676437Y1391199D01*
X607898Y1409758D02*
Y1419188D01*
X609136Y1420426D01*
X607898Y1392860D02*
Y1405070D01*
X608120Y1405292D01*
X619506Y1386212D02*
Y1389380D01*
X621325Y1391199D01*
X599029Y1427468D02*
X603516D01*
X594856Y1431641D02*
X599029Y1427468D01*
X618998Y1524254D02*
Y1529334D01*
X622150Y1532486D01*
X631155D01*
X689864Y1487170D02*
Y1487718D01*
X688836Y1470055D02*
X693251Y1474470D01*
X709048D01*
X702818Y1500632D02*
X704342Y1499108D01*
X696102Y1507886D02*
X724266D01*
X696817Y1493486D02*
X702238Y1488066D01*
X714622D01*
X694140Y1498134D02*
X698743D01*
X702417Y1494460D01*
X712038D01*
X704342Y1499108D02*
X709440D01*
X709484Y1499152D01*
X714592D01*
X720224Y1493520D02*
X723854D01*
X714592Y1499152D02*
X720224Y1493520D01*
X676461Y1513010D02*
X726388D01*
X676437Y1506486D02*
X685026D01*
X687280Y1504232D01*
X676437Y1493486D02*
X684496D01*
X696817D01*
X637742Y1499986D02*
X644906Y1492822D01*
X646032Y1534668D02*
X656844D01*
X575564Y1478026D02*
Y1503934D01*
X573012Y1506486D02*
X575564Y1503934D01*
X563880Y1506486D02*
X573012D01*
X602488Y1512570D02*
X621792D01*
X594856Y1514590D02*
X604520Y1524254D01*
X563880Y1525986D02*
X564354Y1525512D01*
X587514Y1527314D02*
X596900Y1536700D01*
X580995Y1527314D02*
X587514D01*
X579193Y1525512D02*
X580995Y1527314D01*
X564354Y1525512D02*
X572105D01*
X572613Y1525004D01*
X578515D01*
X579023Y1525512D01*
X579193D01*
X654304Y1524508D02*
X658114Y1528318D01*
X631155Y1538986D02*
X642077Y1549908D01*
X631155Y1525986D02*
X637350D01*
X646032Y1534668D01*
X654304Y1518040D02*
Y1524508D01*
X728440Y1479130D02*
X728516Y1479206D01*
X728440Y1470438D02*
Y1479130D01*
X709048Y1474470D02*
X721030Y1486452D01*
X714622Y1488066D02*
X715010Y1487678D01*
X712038Y1494460D02*
X712470Y1494028D01*
X702818Y1500632D02*
Y1502156D01*
X692404Y1499870D02*
X694140Y1498134D01*
X684496Y1493486D02*
X687280Y1496270D01*
Y1504232D01*
X676437Y1499986D02*
X682128D01*
X675640Y1486916D02*
X675647Y1486909D01*
X631155Y1506486D02*
X631905Y1507236D01*
X632471Y1506670D02*
X636974D01*
X650512Y1514248D02*
X654304Y1518040D01*
X650512Y1503544D02*
Y1514248D01*
Y1503544D02*
X656710Y1497346D01*
Y1494670D02*
Y1497346D01*
X664406Y1506670D02*
X676253D01*
X676437Y1506486D01*
X622520Y1493486D02*
X631155D01*
X676437Y1384699D02*
X677054Y1385316D01*
X695064Y1386854D02*
X699650Y1382268D01*
X694690Y1379982D02*
X698500Y1376172D01*
X689566Y1377838D02*
Y1382104D01*
Y1377838D02*
X691621Y1375784D01*
Y1372339D02*
Y1375784D01*
Y1372339D02*
X693674Y1370286D01*
X686973Y1367947D02*
Y1373859D01*
X684918Y1375913D02*
X686973Y1373859D01*
X684918Y1375913D02*
Y1375934D01*
X684276Y1376576D02*
X684918Y1375934D01*
X676437Y1371699D02*
X676592Y1371854D01*
X648371Y1358138D02*
X648624Y1357884D01*
X631248Y1347412D02*
Y1358334D01*
Y1347412D02*
X636016Y1342644D01*
X650240Y1398270D02*
X654094Y1394416D01*
X648926Y1378040D02*
X648970Y1378084D01*
X654094Y1381296D02*
Y1394416D01*
X648371Y1358138D02*
Y1358300D01*
X648926Y1363516D02*
Y1378040D01*
Y1379130D02*
Y1383374D01*
X648970Y1383418D01*
Y1383538D01*
X675820Y1385316D02*
X676437Y1384699D01*
Y1397699D02*
X677247Y1396889D01*
X679800D01*
X631426Y1410462D02*
X637032D01*
X637286Y1410716D01*
X648970Y1378084D02*
Y1379086D01*
X648926Y1379130D02*
X648970Y1379086D01*
X671576Y1391412D02*
X676224D01*
X677308Y1385062D02*
X681482D01*
X671068Y1385316D02*
X675820D01*
X659174Y1371898D02*
Y1399242D01*
X654050Y1381252D02*
X654094Y1381296D01*
X648462Y1384046D02*
X648970Y1384554D01*
X649732Y1398270D02*
X650240D01*
X637286Y1398524D02*
X637540Y1398270D01*
X657289Y1399420D02*
X658996D01*
X659174Y1399242D01*
X675912Y1411224D02*
X676437Y1410699D01*
X649732Y1418826D02*
X653676Y1422770D01*
Y1431353D01*
X658622Y1436299D01*
Y1438656D01*
X638585Y1423699D02*
X642348Y1427462D01*
Y1436046D01*
X646176Y1439874D01*
Y1440688D01*
X665480Y1426464D02*
X667477D01*
X670779Y1423162D01*
X675900D01*
X650311Y1406398D02*
X657289Y1399420D01*
X695540Y1413478D02*
X698749D01*
X644906Y1492250D02*
Y1492822D01*
X656710Y1494670D02*
X657352Y1494028D01*
X663448Y1481582D02*
X664544Y1480486D01*
X688836Y1463536D02*
Y1470055D01*
X751726Y1389380D02*
X759206D01*
X649478Y1406398D02*
X650311D01*
X649732Y1415542D02*
Y1418826D01*
X662178Y1411224D02*
X675912D01*
X677366Y1404620D02*
X681482D01*
X711454Y1397762D02*
X711708Y1398016D01*
X712978Y1396746D01*
X688220Y1423115D02*
Y1424058D01*
X675640Y1474724D02*
X675699D01*
X681228Y1467358D02*
X683006D01*
X733176Y1486662D02*
Y1506222D01*
Y1485271D02*
Y1486662D01*
X721030Y1486452D02*
X725514D01*
X728516Y1483450D01*
Y1479206D02*
Y1483450D01*
X696226Y1454162D02*
X723392Y1481328D01*
X712171Y1462036D02*
X714998D01*
X700874Y1446110D02*
X711200Y1456436D01*
X768858Y1331322D02*
Y1331722D01*
X742068Y1335190D02*
Y1344796D01*
X739902Y1346962D02*
X742068Y1344796D01*
X746716Y1343062D02*
Y1347306D01*
Y1343062D02*
X749718Y1340060D01*
X743712Y1378199D02*
X743717Y1378204D01*
X784798Y1313688D02*
X785622D01*
X743717Y1378204D02*
X749046D01*
X725514Y1399076D02*
X728516Y1396074D01*
X724841Y1399076D02*
X725514D01*
X723748Y1400169D02*
X724841Y1399076D01*
X728396Y1405458D02*
X733164Y1400690D01*
X729354Y1434639D02*
X733176Y1438462D01*
X722166Y1434024D02*
X728529Y1440387D01*
X720598Y1396746D02*
X723392Y1393952D01*
X704450Y1387868D02*
X722421D01*
X697935Y1408627D02*
X701144D01*
X708647Y1425912D02*
X716116D01*
X702086Y1419351D02*
X708647Y1425912D01*
X686973Y1422811D02*
X688220Y1424058D01*
X706695Y1417387D02*
X710572Y1421264D01*
X706695Y1414178D02*
Y1417387D01*
X701144Y1408627D02*
X706695Y1414178D01*
X738886Y1403858D02*
X743371D01*
X670814Y1458468D02*
X681852D01*
X684226Y1460842D01*
X686142D01*
X688836Y1463536D01*
X668216Y1453820D02*
X683777D01*
X686151Y1456194D01*
X688067D01*
X695770Y1463897D01*
X694392Y1430230D02*
Y1437427D01*
X696226Y1439261D01*
Y1454162D01*
X700874Y1435442D02*
Y1446110D01*
X716116Y1425912D02*
X716922Y1426718D01*
X728396Y1405458D02*
Y1409702D01*
X728529Y1409835D01*
X733176Y1408236D02*
X735018Y1410077D01*
X733176Y1407924D02*
Y1408236D01*
X728529Y1409835D02*
Y1410161D01*
X730370Y1412002D01*
X735313Y1410699D02*
X743712D01*
X735018Y1410404D02*
X735313Y1410699D01*
X735018Y1410077D02*
Y1410404D01*
X730370Y1412002D02*
Y1412329D01*
X732028Y1413987D01*
X691621Y1400697D02*
Y1409559D01*
X695540Y1413478D01*
X696976Y1407668D02*
X697935Y1408627D01*
X689102Y1388498D02*
Y1389380D01*
X695064Y1386854D02*
Y1390664D01*
X686973Y1398756D02*
X695064Y1390664D01*
X691621Y1400697D02*
X704450Y1387868D01*
X701802Y1397762D02*
X711454D01*
X733176Y1407924D02*
X733520Y1407580D01*
X722166Y1431380D02*
Y1434024D01*
Y1431380D02*
X724706Y1428840D01*
X718372Y1421594D02*
X721704D01*
X718042Y1421264D02*
X718372Y1421594D01*
X710572Y1421264D02*
X718042D01*
X871728Y1345184D02*
X885698Y1331214D01*
X849896Y1411974D02*
X869950Y1391920D01*
X833713Y1425194D02*
X838950Y1419957D01*
Y1416147D02*
Y1419957D01*
Y1416147D02*
X843123Y1411974D01*
X849896D01*
X866216Y1419428D02*
Y1422444D01*
X853396Y1435264D02*
X866216Y1422444D01*
X853694Y1424178D02*
X877154Y1400717D01*
X790702Y1525778D02*
Y1541272D01*
X776237Y1555737D02*
X790702Y1541272D01*
X775742Y1555242D02*
X776237Y1555737D01*
X676910Y1555242D02*
X775742D01*
X642077Y1549908D02*
X642585Y1549400D01*
X655574D01*
X563372Y1513332D02*
X563718Y1512986D01*
X563880D01*
X669670Y1467486D02*
X676437D01*
X661670Y1475486D02*
X669670Y1467486D01*
X640866Y1473986D02*
X642366Y1475486D01*
X631155Y1473986D02*
X640866D01*
X620619Y1491585D02*
X622520Y1493486D01*
X620619Y1483239D02*
Y1491585D01*
Y1483239D02*
X624054Y1479804D01*
X674624Y1255910D02*
X675530Y1256816D01*
Y1262952D01*
X652289Y1255910D02*
X674624D01*
X687204D01*
X742662Y1276096D02*
X742805Y1275952D01*
X732028Y1273550D02*
X732270Y1273792D01*
X705848Y1290556D02*
X714774D01*
X703282Y1287990D02*
X705848Y1290556D01*
X708406Y1298702D02*
X718312D01*
X686614Y1301952D02*
X688848Y1299718D01*
X675530Y1301952D02*
X686614D01*
X662432Y1299373D02*
Y1304798D01*
X699549Y1280278D02*
X710792D01*
X676761Y1276096D02*
X695367D01*
X699549Y1280278D01*
X649434Y1287944D02*
X650472Y1286906D01*
X655080Y1307606D02*
X665038Y1317564D01*
X656680Y1295190D02*
X662588Y1289282D01*
X654558Y1290066D02*
X655120Y1289504D01*
X650472Y1275169D02*
X659130Y1266511D01*
X631425Y1269142D02*
X639057D01*
X642707Y1265492D01*
X642198Y1273810D02*
X645258D01*
X655120Y1277094D02*
Y1289504D01*
Y1277094D02*
X663778Y1268436D01*
X650472Y1275169D02*
Y1286906D01*
X645656Y1303458D02*
X647142D01*
X665038Y1317564D02*
Y1317992D01*
X631155Y1334412D02*
X641754D01*
X705358Y1336802D02*
Y1337381D01*
X669335Y1321452D02*
X675530D01*
X654604Y1306774D02*
X655080Y1307250D01*
X648970Y1308862D02*
Y1312672D01*
X658368Y1322070D01*
X657098Y1329182D02*
X661605D01*
X658622Y1371346D02*
X659130D01*
X658622D02*
X659174Y1371898D01*
X624586Y1340981D02*
Y1357154D01*
X630174Y1359408D02*
X631248Y1358334D01*
X635896Y1351654D02*
Y1362519D01*
Y1351654D02*
X639826Y1347724D01*
X647700Y1357630D02*
X648371Y1358300D01*
X643890Y1327150D02*
Y1327658D01*
X635896Y1362519D02*
X636372Y1362995D01*
Y1364633D01*
X633006D02*
X636372D01*
X648926Y1363516D02*
X648970Y1363472D01*
X641754Y1334412D02*
X641858Y1334516D01*
X648624Y1357884D02*
X660908D01*
X661206Y1340910D02*
X667422D01*
X656590Y1336294D02*
X661206Y1340910D01*
X706628Y1300480D02*
X708406Y1298702D01*
X709676Y1312926D02*
X709845D01*
X721360Y1329182D02*
Y1346761D01*
X728529Y1353929D01*
X661605Y1329182D02*
X669335Y1321452D01*
X750824Y1359408D02*
X751720Y1358512D01*
X690372Y1360932D02*
X693674Y1364234D01*
X739902Y1346962D02*
Y1353058D01*
X756964Y1335417D02*
Y1342570D01*
X757086Y1342692D01*
Y1345060D01*
X758932Y1346906D01*
X751840Y1339088D02*
Y1340060D01*
X751720Y1345304D02*
X751840Y1345184D01*
X745236Y1353178D02*
Y1356106D01*
X738886Y1385316D02*
X739648D01*
X733164Y1373919D02*
Y1400690D01*
X728516Y1375845D02*
Y1396074D01*
X699650Y1382268D02*
X722376D01*
X698500Y1376172D02*
X721106D01*
X723880Y1371209D02*
X728516Y1375845D01*
X676437Y1365199D02*
X684225D01*
X686973Y1367947D01*
X696793Y1350010D02*
X696976D01*
X676667Y1288682D02*
X695940D01*
X696632Y1287990D01*
X703282D01*
X698754Y1293114D02*
Y1302004D01*
X700786Y1304036D02*
Y1314704D01*
X758932Y1346906D02*
Y1381526D01*
X753161Y1365199D02*
X753618Y1364742D01*
X738632Y1359662D02*
X739902D01*
X733176Y1338793D02*
Y1367359D01*
X737517Y1371699D01*
X728529Y1353929D02*
Y1369284D01*
X733164Y1373919D01*
X723880Y1355855D02*
Y1371209D01*
X718275Y1364959D02*
X718756D01*
X709930Y1349502D02*
Y1356614D01*
X698126Y1344613D02*
X705358Y1337381D01*
X698126Y1344613D02*
Y1348677D01*
X667422Y1340910D02*
X667436Y1340924D01*
X683296D01*
X686798Y1338852D02*
X690118Y1335532D01*
X683296Y1340924D02*
X685368Y1338852D01*
X686798D01*
X582676Y1397762D02*
X585978Y1394460D01*
X623570Y1430528D02*
Y1430782D01*
X594856Y1431641D02*
Y1514590D01*
X618432Y1433456D02*
X621675Y1436699D01*
X618432Y1415230D02*
Y1433456D01*
X613784Y1417828D02*
Y1435381D01*
X622857Y1444454D01*
X609136Y1420426D02*
Y1443660D01*
X604012Y1423670D02*
Y1426972D01*
X603516Y1427468D02*
X604012Y1426972D01*
X614216Y1387496D02*
Y1401648D01*
X631254Y1371600D02*
X636524D01*
X617804Y1330376D02*
Y1356690D01*
X619912Y1361828D02*
X624586Y1357154D01*
X617490Y1361828D02*
X619912D01*
X619416Y1366476D02*
X621838D01*
X623115Y1365199D01*
X563880Y1371699D02*
X598808D01*
X602996Y1375887D01*
X585978Y1382299D02*
Y1394460D01*
X620014Y1395984D02*
X624799Y1391199D01*
X607898Y1392860D02*
X609092Y1391666D01*
X615906Y1369986D02*
X619416Y1366476D01*
X591820Y1377950D02*
Y1411478D01*
X602996Y1375887D02*
Y1376680D01*
Y1407414D01*
X603250Y1369568D02*
X604774D01*
X613874Y1380580D02*
X619506Y1386212D01*
X611258Y1368060D02*
X617490Y1361828D01*
X611258Y1368060D02*
Y1372261D01*
X609226Y1374293D02*
X611258Y1372261D01*
X609226Y1374293D02*
Y1382506D01*
X614216Y1387496D01*
X613874Y1376219D02*
Y1380580D01*
Y1376219D02*
X615906Y1374187D01*
Y1369986D02*
Y1374187D01*
X618739Y1378199D02*
X618998Y1378458D01*
X647142Y1303458D02*
X655410Y1295190D01*
X647954Y1294892D02*
X649434Y1293412D01*
Y1287944D02*
Y1293412D01*
X636270Y1295400D02*
X636524D01*
X631467Y1308100D02*
X641604D01*
X631501Y1302258D02*
X637540D01*
X631155Y1301912D02*
X631501Y1302258D01*
X618524Y1282412D02*
X631155D01*
X618490Y1282446D02*
X618524Y1282412D01*
X631155D02*
X643348D01*
X621439Y1371699D02*
X631155D01*
X621030Y1372108D02*
X621439Y1371699D01*
X713994Y1431036D02*
Y1433460D01*
X698749Y1413478D02*
X699022Y1413751D01*
X691642Y1427480D02*
X694392Y1430230D01*
X688220Y1424058D02*
X691642Y1427480D01*
X692097Y1420418D02*
X692868Y1421190D01*
X692882D01*
Y1421474D01*
X695884Y1424475D01*
X698436D01*
X716534Y1442573D01*
X686973Y1398756D02*
Y1416479D01*
X686973Y1416479D02*
X686973Y1416479D01*
X686973Y1416479D02*
Y1420724D01*
X686973Y1420724D01*
Y1422811D01*
X692097Y1418135D02*
Y1418602D01*
Y1420418D01*
X698006Y1419351D02*
X702086D01*
X716922Y1426718D02*
X719582D01*
X721704Y1421594D02*
X724706Y1424596D01*
Y1428840D01*
X727380Y1420696D02*
X729354Y1422670D01*
Y1434639D01*
X732028Y1418336D02*
X732536Y1417828D01*
X723748Y1400169D02*
Y1411628D01*
X723880Y1411760D01*
Y1412086D01*
X725722Y1413928D01*
Y1414254D01*
X727380Y1415912D01*
Y1420696D01*
X701294Y1403503D02*
X708051D01*
X720598Y1416050D01*
X896279Y1248577D02*
Y1285718D01*
X890778Y1243076D02*
X896279Y1248577D01*
X798322Y1243076D02*
X890778D01*
X732028Y1272540D02*
Y1273550D01*
X734314Y1267156D02*
X736610Y1269452D01*
X731786Y1306776D02*
Y1307732D01*
X733500Y1295452D02*
X742805D01*
X721304Y1269138D02*
X725939Y1264502D01*
X721304Y1269138D02*
Y1282475D01*
X726428Y1271260D02*
Y1278843D01*
X726650Y1264502D02*
X726917D01*
X729570Y1267156D01*
X734314D01*
X731774Y1261288D02*
Y1261872D01*
Y1261288D02*
X735508Y1257554D01*
X756158D01*
X759790Y1261186D01*
X726650Y1255058D02*
X729742Y1251966D01*
X749808D01*
X563880Y1282412D02*
X565166Y1283698D01*
X572243D01*
X592074Y1290320D02*
X593730Y1288664D01*
Y1274440D02*
Y1288664D01*
X572243Y1283698D02*
X573786Y1285240D01*
X577838Y1295412D02*
X577850Y1295424D01*
Y1295654D01*
X578910Y1275043D02*
X582402Y1271551D01*
X578910Y1275043D02*
Y1287363D01*
X575908Y1290364D02*
X578910Y1287363D01*
X571663Y1290364D02*
X575908D01*
X569645Y1288346D02*
X571663Y1290364D01*
X564446Y1288346D02*
X569645D01*
X563880Y1288912D02*
X564446Y1288346D01*
X550164Y1293622D02*
Y1298448D01*
Y1293622D02*
X554874Y1288912D01*
X563880D01*
X607942Y1281938D02*
X614916Y1288912D01*
X607942Y1274198D02*
Y1281938D01*
X601472Y1272032D02*
Y1279652D01*
X593730Y1274440D02*
X595630Y1272540D01*
X607942Y1274198D02*
X618998Y1263142D01*
X601472Y1272032D02*
X616822Y1256682D01*
X582402Y1262106D02*
Y1271551D01*
X764540Y1246124D02*
X792734D01*
X809926Y1263316D01*
X900294Y1379728D02*
X900430D01*
X858520Y1437386D02*
X859790D01*
X853396Y1435264D02*
Y1441406D01*
X853694Y1424178D02*
Y1424940D01*
X636969Y1397699D02*
X637540Y1398270D01*
X628142Y1397699D02*
Y1404112D01*
X696793Y1350010D02*
X698126Y1348677D01*
X677054Y1385316D02*
X677308Y1385062D01*
X738886Y1385316D02*
X739394Y1384808D01*
X554898Y1512986D02*
X563718D01*
X676350Y1404112D02*
X676604Y1403858D01*
X677366Y1404620D01*
X747140Y1467486D02*
X747774Y1468120D01*
X748534Y1467360D01*
X748030Y1466856D02*
X748534Y1467360D01*
X732028Y1413987D02*
Y1418336D01*
X563880Y1308336D02*
X575800D01*
X675779Y1282700D02*
X676032Y1282446D01*
X819926Y1257568D02*
Y1285718D01*
X684276Y1376576D02*
Y1378204D01*
X553344Y1389767D02*
X554777Y1391199D01*
X682632Y1480486D02*
X689864Y1487718D01*
X714237Y1346211D02*
X723880Y1355855D01*
X742662Y1276096D02*
X743204D01*
X742805Y1275952D02*
X752238D01*
X618739Y1378199D02*
X631155D01*
X631172Y1410716D02*
X631426Y1410462D01*
X637286Y1410716D02*
X637540Y1410462D01*
X809926Y1263316D02*
Y1285718D01*
X662432Y1299373D02*
X666083Y1295722D01*
X675530D01*
X799926Y1272874D02*
Y1285718D01*
X563880Y1378199D02*
X575305D01*
X648462Y1384046D02*
X648970Y1383538D01*
X749718Y1340060D02*
X751840D01*
X733176Y1485271D02*
X734892Y1486986D01*
X743712Y1424985D02*
X751193D01*
X631905Y1507236D02*
X632471Y1506670D01*
X631027Y1467358D02*
X631444D01*
X624054Y1479804D02*
X631190D01*
X900294Y1379728D02*
X900624Y1379398D01*
X668902Y1269452D02*
Y1269730D01*
X787356Y1287780D02*
X787610Y1288034D01*
X975868Y1346200D02*
X1028983Y1293085D01*
X1101598Y1417066D02*
X1124204D01*
X1129538Y1411732D01*
X1143000Y1360424D02*
X1160018Y1377442D01*
X1070450Y1359142D02*
X1071732Y1360424D01*
X1126490Y1364234D02*
X1160018Y1397762D01*
X1071732Y1360424D02*
X1084580D01*
X1050450Y1416972D02*
X1050544Y1417066D01*
X1079456Y1395432D02*
X1080450Y1396426D01*
X1079456Y1366564D02*
Y1395432D01*
D25*
X1163066Y1431036D02*
X1163320Y1431290D01*
X831576Y1528338D02*
Y1556238D01*
X845312Y1569974D01*
X941324D01*
X966470Y1544828D01*
X985218D01*
X1236472Y1426210D02*
X1246886Y1415796D01*
X1190752Y1426210D02*
X1236472D01*
X1185672Y1431290D02*
X1190752Y1426210D01*
X1163320Y1431290D02*
X1185672D01*
X1140714D02*
X1163320D01*
X1118531D02*
X1140714D01*
X1096772D02*
X1118531D01*
X1229346Y1391240D02*
X1246886Y1415796D01*
X1185926Y1384004D02*
X1229346Y1391240D01*
X1185926Y1332230D02*
Y1384004D01*
X1305868Y1325118D02*
X1316028Y1335278D01*
X1346412D01*
X1348232Y1333458D01*
X1236472Y1333712D02*
X1237291Y1332893D01*
X1291643Y1318207D02*
Y1330096D01*
Y1318207D02*
X1294232Y1315618D01*
X1305868D01*
X1236472Y1296712D02*
X1251924D01*
X1271554Y1277082D01*
X1313839D02*
X1320516D01*
X1320242Y1306118D02*
X1320516Y1305844D01*
X1305868Y1306118D02*
X1320242D01*
X1271554Y1277082D02*
X1286256D01*
X1280868Y1297557D02*
Y1306118D01*
Y1297557D02*
X1304607D01*
X1305706Y1296458D01*
X1348232D01*
X1286256Y1284505D02*
X1291358Y1289607D01*
X1301314D01*
X1313839Y1277082D01*
X1237291Y1332893D02*
X1261555D01*
X1262555Y1333893D01*
X1287846D01*
X1291643Y1330096D01*
X1202648Y1367536D02*
X1236472Y1333712D01*
X1286256Y1277082D02*
Y1284505D01*
D26*
X657352Y1597660D02*
D03*
X1246886Y1415796D02*
D03*
X808736Y1366266D02*
D03*
D27*
X1118531Y1407753D02*
D03*
X1101598Y1417066D02*
D03*
X843534Y1494282D02*
D03*
X1118531Y1497838D02*
D03*
X1068158Y1491622D02*
D03*
X1083310Y1501394D02*
D03*
X1019556Y1488186D02*
D03*
X1002284D02*
D03*
X855218Y1491234D02*
D03*
X1017524Y1494536D02*
D03*
X1015746Y1479804D02*
D03*
X1151636Y1463294D02*
D03*
X1163066Y1497457D02*
D03*
X1140714Y1497838D02*
D03*
X1070610Y1486154D02*
D03*
Y1480058D02*
D03*
X1179576Y1485900D02*
D03*
X1175766Y1468882D02*
D03*
X1017524Y1469136D02*
D03*
X1096010Y1507236D02*
D03*
X1066800Y1513078D02*
D03*
X1003046Y1500886D02*
D03*
X860806Y1512062D02*
D03*
X993140Y1443228D02*
D03*
X1080770Y1440434D02*
D03*
X1083056Y1446276D02*
D03*
X1017524Y1455166D02*
D03*
X951992Y1516380D02*
D03*
X577278Y1269428D02*
D03*
X603504Y1294384D02*
D03*
X618998Y1263142D02*
D03*
X566674Y1350264D02*
D03*
X600710Y1300988D02*
D03*
X620268Y1296416D02*
D03*
X609600Y1308862D02*
D03*
X827024Y1274064D02*
D03*
X791210Y1264920D02*
D03*
X840740Y1304798D02*
D03*
X925322Y1344168D02*
D03*
X911606Y1358900D02*
D03*
X852932Y1336684D02*
D03*
X953008Y1307592D02*
D03*
Y1318006D02*
D03*
X959771Y1344930D02*
D03*
X926643Y1368095D02*
D03*
X975868Y1346200D02*
D03*
X943610Y1368552D02*
D03*
X838442Y1431048D02*
D03*
X618236Y1273810D02*
D03*
X549910Y1430020D02*
D03*
X715010Y1345438D02*
D03*
X618490Y1282446D02*
D03*
X659130Y1265682D02*
D03*
X598424Y1321308D02*
D03*
X771652Y1280414D02*
D03*
X754634Y1282700D02*
D03*
X790956Y1299464D02*
D03*
X750824Y1294638D02*
D03*
X754634Y1307846D02*
D03*
X770636Y1316228D02*
D03*
X755396Y1326134D02*
D03*
X726186Y1308862D02*
D03*
X710792Y1280278D02*
D03*
X718312Y1298702D02*
D03*
X691642Y1282446D02*
D03*
X578866Y1421384D02*
D03*
X607338Y1473986D02*
D03*
X743678Y1493520D02*
D03*
X733477Y1338492D02*
D03*
X727456Y1330706D02*
D03*
X564071Y1397508D02*
D03*
X574416Y1378585D02*
D03*
X561848Y1384300D02*
D03*
X549910Y1409954D02*
D03*
X553212Y1389899D02*
D03*
X631085Y1486916D02*
D03*
X568977Y1410699D02*
D03*
X695198Y1506982D02*
D03*
X724266Y1507886D02*
D03*
X743446Y1506220D02*
D03*
X613022Y1417066D02*
D03*
X619252Y1407414D02*
D03*
X628142Y1404112D02*
D03*
X594868Y1423924D02*
D03*
X742343Y1371699D02*
D03*
X582676Y1462532D02*
D03*
X563880Y1467486D02*
D03*
Y1486986D02*
D03*
X547878Y1529080D02*
D03*
X548132Y1510030D02*
D03*
X596900Y1540764D02*
D03*
X775208Y1403858D02*
D03*
X791210Y1414526D02*
D03*
X771652Y1408938D02*
D03*
X825754Y1443990D02*
D03*
X746252Y1500124D02*
D03*
X730758Y1452372D02*
D03*
X723854Y1493520D02*
D03*
X729488Y1469390D02*
D03*
X613588Y1537894D02*
D03*
X663448Y1465834D02*
D03*
X658368Y1462786D02*
D03*
X641096Y1446022D02*
D03*
X645922Y1440942D02*
D03*
X641604Y1452626D02*
D03*
X631444Y1467358D02*
D03*
X632714Y1461516D02*
D03*
X624332Y1452372D02*
D03*
X573278Y1454404D02*
D03*
X744728Y1512824D02*
D03*
X781812Y1523746D02*
D03*
X749808Y1411224D02*
D03*
X869950Y1358900D02*
D03*
Y1391920D02*
D03*
X770890Y1426972D02*
D03*
X773176Y1449324D02*
D03*
X791718Y1429766D02*
D03*
X827024Y1425194D02*
D03*
X808272Y1430572D02*
D03*
X783590Y1445768D02*
D03*
X743712Y1430199D02*
D03*
X784860Y1463294D02*
D03*
X741426Y1456182D02*
D03*
X748030Y1467358D02*
D03*
X740902Y1481296D02*
D03*
X775462Y1494790D02*
D03*
X756666Y1512316D02*
D03*
X758895Y1505401D02*
D03*
X764794Y1532128D02*
D03*
X757936Y1538478D02*
D03*
X857504D02*
D03*
X769620Y1398524D02*
D03*
X789178Y1422400D02*
D03*
X770128Y1416812D02*
D03*
X764286Y1407922D02*
D03*
X757174Y1397254D02*
D03*
X618998Y1524254D02*
D03*
X689864Y1487170D02*
D03*
X676437Y1525986D02*
D03*
X656844Y1534668D02*
D03*
X658114Y1528318D02*
D03*
X602488Y1512570D02*
D03*
X604520Y1524254D02*
D03*
X715010Y1487678D02*
D03*
X712470Y1494028D02*
D03*
X702818Y1502156D02*
D03*
X692404Y1499870D02*
D03*
X682128Y1499986D02*
D03*
X675647Y1486909D02*
D03*
X636974Y1506670D02*
D03*
X664406D02*
D03*
X694690Y1379982D02*
D03*
X676592Y1371854D02*
D03*
X636016Y1342644D02*
D03*
X636524Y1384554D02*
D03*
X679800Y1396889D02*
D03*
X637032Y1410462D02*
D03*
X671576Y1391412D02*
D03*
X658622Y1438656D02*
D03*
X681482Y1385062D02*
D03*
X654050Y1381252D02*
D03*
X648970Y1384554D02*
D03*
X649732Y1398270D02*
D03*
X637286Y1398524D02*
D03*
X665480Y1426464D02*
D03*
X644906Y1492250D02*
D03*
X657352Y1494028D02*
D03*
X663448Y1481582D02*
D03*
X759206Y1389380D02*
D03*
X649478Y1406398D02*
D03*
X649732Y1415542D02*
D03*
X662178Y1411224D02*
D03*
X681482Y1404620D02*
D03*
X675640Y1474724D02*
D03*
X683006Y1467358D02*
D03*
X733176Y1486662D02*
D03*
X723392Y1481328D02*
D03*
X712171Y1462036D02*
D03*
X711200Y1456436D02*
D03*
X768858Y1331722D02*
D03*
X751840Y1339088D02*
D03*
X785622Y1313688D02*
D03*
X749046Y1378204D02*
D03*
X723392Y1393952D02*
D03*
X681736Y1410462D02*
D03*
X740410Y1436116D02*
D03*
X722421Y1387868D02*
D03*
X701294Y1403503D02*
D03*
X749300Y1404874D02*
D03*
X738886Y1403858D02*
D03*
X700874Y1435442D02*
D03*
X696976Y1407668D02*
D03*
X689102Y1389380D02*
D03*
X701802Y1397762D02*
D03*
X733520Y1407580D02*
D03*
X885698Y1331214D02*
D03*
X871728Y1345184D02*
D03*
X866216Y1419428D02*
D03*
X790702Y1525778D02*
D03*
X676910Y1555242D02*
D03*
X655574Y1549400D02*
D03*
X563372Y1513332D02*
D03*
X661670Y1475486D02*
D03*
X642366D02*
D03*
X631190Y1479804D02*
D03*
X687204Y1255910D02*
D03*
X743204Y1276096D02*
D03*
X714774Y1290556D02*
D03*
X688848Y1299718D02*
D03*
X654558Y1290066D02*
D03*
X642198Y1273810D02*
D03*
X643348Y1282412D02*
D03*
X665038Y1317992D02*
D03*
X705358Y1336802D02*
D03*
X657098Y1329182D02*
D03*
X654604Y1306774D02*
D03*
X665480Y1296416D02*
D03*
X648970Y1308862D02*
D03*
X658368Y1322070D02*
D03*
X658622Y1371346D02*
D03*
X630174Y1359408D02*
D03*
X639826Y1347724D02*
D03*
X647700Y1357630D02*
D03*
X643890Y1327658D02*
D03*
X648970Y1363472D02*
D03*
X641858Y1334516D02*
D03*
X660908Y1357884D02*
D03*
X656590Y1336294D02*
D03*
X706628Y1300480D02*
D03*
X709676Y1312926D02*
D03*
X750824Y1359408D02*
D03*
X684276Y1378204D02*
D03*
X690372Y1360932D02*
D03*
X739902Y1353058D02*
D03*
X751840Y1345184D02*
D03*
X745236Y1356106D02*
D03*
X739648Y1385316D02*
D03*
X722376Y1382268D02*
D03*
X721106Y1376172D02*
D03*
X696976Y1350010D02*
D03*
X698754Y1293114D02*
D03*
X700786Y1314704D02*
D03*
X753618Y1364742D02*
D03*
X738632Y1359662D02*
D03*
X718756Y1364959D02*
D03*
X709930Y1349502D02*
D03*
X690118Y1335532D02*
D03*
X671322Y1334770D02*
D03*
X582676Y1397762D02*
D03*
X623570Y1430782D02*
D03*
X604012Y1426972D02*
D03*
X602996Y1407414D02*
D03*
X636524Y1371600D02*
D03*
X617804Y1356690D02*
D03*
X585978Y1382299D02*
D03*
X621030Y1372108D02*
D03*
X620014Y1395984D02*
D03*
X609092Y1391666D02*
D03*
X591820Y1377950D02*
D03*
X602996Y1376680D02*
D03*
X604774Y1369568D02*
D03*
X618998Y1378458D02*
D03*
X647954Y1294892D02*
D03*
X636524Y1295400D02*
D03*
X637540Y1302258D02*
D03*
X713994Y1431036D02*
D03*
X699022Y1413751D02*
D03*
X691642Y1427480D02*
D03*
X692097Y1418602D02*
D03*
X698006Y1419351D02*
D03*
X719582Y1426718D02*
D03*
X732536Y1417828D02*
D03*
X720598Y1416050D02*
D03*
X798322Y1243076D02*
D03*
X732028Y1272540D02*
D03*
X731786Y1307732D02*
D03*
X733500Y1295452D02*
D03*
X726428Y1271260D02*
D03*
X731774Y1261872D02*
D03*
X749808Y1251966D02*
D03*
X563880Y1262912D02*
D03*
Y1275912D02*
D03*
X592074Y1290320D02*
D03*
X573786Y1285240D02*
D03*
X577850Y1295654D02*
D03*
X601472Y1279652D02*
D03*
X595630Y1272540D02*
D03*
X582402Y1262106D02*
D03*
X764540Y1246124D02*
D03*
X900430Y1379728D02*
D03*
X858520Y1437386D02*
D03*
X853396Y1441406D02*
D03*
X853694Y1424940D02*
D03*
X1143000Y1360424D02*
D03*
X1084580D02*
D03*
X1126490Y1364234D02*
D03*
X1050544Y1417066D02*
D03*
X1079456Y1366564D02*
D03*
D28*
X1177290Y1268730D02*
D03*
X1296162Y1268984D02*
D03*
X1320516Y1277082D02*
D03*
Y1305844D02*
D03*
X1266190Y1325118D02*
D03*
X1175512Y1322324D02*
D03*
X1112520Y1280668D02*
D03*
X1253084Y1315618D02*
D03*
X1199540D02*
D03*
X1009650Y1436914D02*
D03*
Y1514602D02*
D03*
X891286Y1506982D02*
D03*
X1199540Y1350874D02*
D03*
X1202648Y1367536D02*
D03*
X584350Y1328016D02*
D03*
X577342Y1430274D02*
D03*
X929279Y1454551D02*
D03*
X899414Y1480820D02*
D03*
X969279Y1413749D02*
D03*
X940308Y1441958D02*
D03*
X1010920Y1386840D02*
D03*
X860552Y1336294D02*
D03*
X799926Y1272874D02*
D03*
X812800Y1250442D02*
D03*
X576072Y1308608D02*
D03*
X549494Y1301912D02*
D03*
X781812Y1287780D02*
D03*
X764032Y1299972D02*
D03*
X761492Y1314450D02*
D03*
X718058Y1313180D02*
D03*
X1020071Y1361955D02*
D03*
X611886Y1457198D02*
D03*
X691538Y1532486D02*
D03*
X583946Y1505712D02*
D03*
Y1520190D02*
D03*
X575564Y1532128D02*
D03*
X695960Y1467104D02*
D03*
X689102Y1449070D02*
D03*
X846074Y1419098D02*
D03*
X713444Y1333886D02*
D03*
X770890Y1339342D02*
D03*
X693570Y1328016D02*
D03*
X601980Y1434592D02*
D03*
X1086714Y1350874D02*
D03*
X1078992Y1291590D02*
D03*
X1066038Y1352042D02*
D03*
X1040384Y1365504D02*
D03*
X1060450Y1386840D02*
D03*
X1080450Y1396426D02*
D03*
M02*
