G04 Layer_Color=8388736*
%FSLAX44Y44*%
%MOMM*%
G71*
G01*
G75*
%ADD13R,1.5500X0.6000*%
%ADD14R,1.8000X1.2000*%
%ADD17R,1.4823X0.4180*%
%ADD18O,1.4823X0.4180*%
%ADD19R,0.6000X1.5500*%
%ADD20R,1.2000X1.8000*%
%ADD36R,1.4732X1.2192*%
%ADD37R,2.0532X3.1532*%
%ADD38R,1.4032X0.8032*%
%ADD39R,2.7432X0.9144*%
%ADD40O,2.7432X0.9144*%
%ADD41R,1.2192X1.4732*%
%ADD42R,0.7112X1.4732*%
%ADD43C,8.2032*%
%ADD44C,0.6032*%
%ADD45C,1.0032*%
D13*
X831576Y1464028D02*
D03*
Y1474028D02*
D03*
Y1484028D02*
D03*
Y1494028D02*
D03*
Y1504028D02*
D03*
X1035200Y1488928D02*
D03*
Y1478928D02*
D03*
Y1468928D02*
D03*
D14*
X806326Y1451028D02*
D03*
Y1517028D02*
D03*
X1060450Y1501928D02*
D03*
Y1455928D02*
D03*
D17*
X563880Y1538986D02*
D03*
X676437D02*
D03*
X563880Y1436699D02*
D03*
X676437D02*
D03*
X563880Y1334412D02*
D03*
X675530Y1334452D02*
D03*
D18*
X563880Y1532486D02*
D03*
Y1525986D02*
D03*
Y1519486D02*
D03*
Y1512986D02*
D03*
Y1506486D02*
D03*
Y1499986D02*
D03*
Y1493486D02*
D03*
Y1486986D02*
D03*
Y1480486D02*
D03*
Y1473986D02*
D03*
Y1467486D02*
D03*
X631155D02*
D03*
Y1473986D02*
D03*
Y1480486D02*
D03*
Y1486986D02*
D03*
Y1493486D02*
D03*
Y1499986D02*
D03*
Y1506486D02*
D03*
Y1512986D02*
D03*
Y1519486D02*
D03*
Y1525986D02*
D03*
Y1532486D02*
D03*
Y1538986D02*
D03*
X676437Y1532486D02*
D03*
Y1525986D02*
D03*
Y1519486D02*
D03*
Y1512986D02*
D03*
Y1506486D02*
D03*
Y1499986D02*
D03*
Y1493486D02*
D03*
Y1486986D02*
D03*
Y1480486D02*
D03*
Y1473986D02*
D03*
Y1467486D02*
D03*
X743712D02*
D03*
Y1473986D02*
D03*
Y1480486D02*
D03*
Y1486986D02*
D03*
Y1493486D02*
D03*
Y1499986D02*
D03*
Y1506486D02*
D03*
Y1512986D02*
D03*
Y1519486D02*
D03*
Y1525986D02*
D03*
Y1532486D02*
D03*
Y1538986D02*
D03*
X563880Y1430199D02*
D03*
Y1423699D02*
D03*
Y1417199D02*
D03*
Y1410699D02*
D03*
Y1404199D02*
D03*
Y1397699D02*
D03*
Y1391199D02*
D03*
Y1384699D02*
D03*
Y1378199D02*
D03*
Y1371699D02*
D03*
Y1365199D02*
D03*
X631155D02*
D03*
Y1371699D02*
D03*
Y1378199D02*
D03*
Y1384699D02*
D03*
Y1391199D02*
D03*
Y1397699D02*
D03*
Y1404199D02*
D03*
Y1410699D02*
D03*
Y1417199D02*
D03*
Y1423699D02*
D03*
Y1430199D02*
D03*
Y1436699D02*
D03*
X676437Y1430199D02*
D03*
Y1423699D02*
D03*
Y1417199D02*
D03*
Y1410699D02*
D03*
Y1404199D02*
D03*
Y1397699D02*
D03*
Y1391199D02*
D03*
Y1384699D02*
D03*
Y1378199D02*
D03*
Y1371699D02*
D03*
Y1365199D02*
D03*
X743712D02*
D03*
Y1371699D02*
D03*
Y1378199D02*
D03*
Y1384699D02*
D03*
Y1391199D02*
D03*
Y1397699D02*
D03*
Y1404199D02*
D03*
Y1410699D02*
D03*
Y1417199D02*
D03*
Y1423699D02*
D03*
Y1430199D02*
D03*
Y1436699D02*
D03*
X563880Y1327912D02*
D03*
Y1321412D02*
D03*
Y1314912D02*
D03*
Y1308412D02*
D03*
Y1301912D02*
D03*
Y1295412D02*
D03*
Y1288912D02*
D03*
Y1282412D02*
D03*
Y1275912D02*
D03*
Y1269412D02*
D03*
Y1262912D02*
D03*
X631155D02*
D03*
Y1269412D02*
D03*
Y1275912D02*
D03*
Y1282412D02*
D03*
Y1288912D02*
D03*
Y1295412D02*
D03*
Y1301912D02*
D03*
Y1308412D02*
D03*
Y1314912D02*
D03*
Y1321412D02*
D03*
Y1327912D02*
D03*
Y1334412D02*
D03*
X675530Y1327952D02*
D03*
Y1321452D02*
D03*
Y1314952D02*
D03*
Y1308452D02*
D03*
Y1301952D02*
D03*
Y1295452D02*
D03*
Y1288952D02*
D03*
Y1282452D02*
D03*
Y1275952D02*
D03*
Y1269452D02*
D03*
Y1262952D02*
D03*
X742805D02*
D03*
Y1269452D02*
D03*
Y1275952D02*
D03*
Y1282452D02*
D03*
Y1288952D02*
D03*
Y1295452D02*
D03*
Y1301952D02*
D03*
Y1308452D02*
D03*
Y1314952D02*
D03*
Y1321452D02*
D03*
Y1327952D02*
D03*
Y1334452D02*
D03*
D19*
X819866Y1285598D02*
D03*
X809866D02*
D03*
X799866D02*
D03*
X789866D02*
D03*
X896279Y1285718D02*
D03*
X886279D02*
D03*
X876279D02*
D03*
X866279D02*
D03*
X972631D02*
D03*
X962631D02*
D03*
X952631D02*
D03*
X942631D02*
D03*
X1028983D02*
D03*
X1018983D02*
D03*
X1296336Y1277082D02*
D03*
X1286336D02*
D03*
X1080450Y1406114D02*
D03*
X1070450D02*
D03*
X1060450D02*
D03*
X1050450D02*
D03*
X1040450D02*
D03*
X969279D02*
D03*
X959278D02*
D03*
X949278D02*
D03*
X939278D02*
D03*
X929279D02*
D03*
X919279D02*
D03*
X909278D02*
D03*
X899278D02*
D03*
D20*
X832866Y1260348D02*
D03*
X776866D02*
D03*
X909278Y1260468D02*
D03*
X853279D02*
D03*
X985631D02*
D03*
X929631D02*
D03*
X1041983D02*
D03*
X1005983D02*
D03*
X1309336Y1251832D02*
D03*
X1273336D02*
D03*
X1093450Y1380864D02*
D03*
X1027450D02*
D03*
X982279D02*
D03*
X886279D02*
D03*
D36*
X1118531Y1377442D02*
D03*
Y1397762D02*
D03*
X1190752Y1426210D02*
D03*
Y1446530D02*
D03*
X1163320Y1431290D02*
D03*
Y1451610D02*
D03*
X1140714Y1431290D02*
D03*
Y1451610D02*
D03*
X1118531Y1431290D02*
D03*
Y1451610D02*
D03*
X1096772D02*
D03*
Y1431290D02*
D03*
X1190752Y1466850D02*
D03*
Y1487170D02*
D03*
X1163066Y1477518D02*
D03*
Y1497838D02*
D03*
X1140714Y1477518D02*
D03*
Y1497838D02*
D03*
X1118531Y1477518D02*
D03*
Y1497838D02*
D03*
X1096010Y1477518D02*
D03*
Y1497838D02*
D03*
X1160018Y1397762D02*
D03*
Y1377442D02*
D03*
D37*
X1348232Y1296458D02*
D03*
Y1333458D02*
D03*
X1236472Y1296712D02*
D03*
Y1333712D02*
D03*
D38*
X1280868Y1306118D02*
D03*
Y1315618D02*
D03*
Y1325118D02*
D03*
X1305868D02*
D03*
Y1315618D02*
D03*
Y1306118D02*
D03*
D39*
X880618Y1544828D02*
D03*
D40*
Y1532128D02*
D03*
Y1519428D02*
D03*
Y1506728D02*
D03*
Y1494028D02*
D03*
Y1481328D02*
D03*
Y1468628D02*
D03*
Y1455928D02*
D03*
Y1443228D02*
D03*
Y1430528D02*
D03*
X985218Y1544828D02*
D03*
Y1532128D02*
D03*
Y1519428D02*
D03*
Y1506728D02*
D03*
Y1494028D02*
D03*
Y1481328D02*
D03*
Y1468628D02*
D03*
Y1455928D02*
D03*
Y1443228D02*
D03*
Y1430528D02*
D03*
D41*
X1185926Y1253998D02*
D03*
X1165606D02*
D03*
X1106678Y1255522D02*
D03*
X1086358D02*
D03*
Y1335786D02*
D03*
X1106678D02*
D03*
X1165606Y1332230D02*
D03*
X1185926D02*
D03*
D42*
X1105408Y1280718D02*
D03*
X1096010Y1306118D02*
D03*
X1086358Y1306118D02*
D03*
X1105408D02*
D03*
X1086358Y1280718D02*
D03*
X1166876Y1306118D02*
D03*
X1176274Y1280718D02*
D03*
X1185926Y1280718D02*
D03*
X1166876D02*
D03*
X1185926Y1306118D02*
D03*
D43*
X657352Y1597660D02*
D03*
X1246886Y1415796D02*
D03*
X808736Y1366266D02*
D03*
D44*
X1118531Y1407753D02*
D03*
X1101598Y1417066D02*
D03*
X843534Y1494282D02*
D03*
X1118531Y1497838D02*
D03*
X1068158Y1491622D02*
D03*
X1083310Y1501394D02*
D03*
X1019556Y1488186D02*
D03*
X1002284D02*
D03*
X855218Y1491234D02*
D03*
X1017524Y1494536D02*
D03*
X1015746Y1479804D02*
D03*
X1151636Y1463294D02*
D03*
X1163066Y1497457D02*
D03*
X1140714Y1497838D02*
D03*
X1070610Y1486154D02*
D03*
Y1480058D02*
D03*
X1179576Y1485900D02*
D03*
X1175766Y1468882D02*
D03*
X1017524Y1469136D02*
D03*
X1096010Y1507236D02*
D03*
X1066800Y1513078D02*
D03*
X1003046Y1500886D02*
D03*
X860806Y1512062D02*
D03*
X993140Y1443228D02*
D03*
X1080770Y1440434D02*
D03*
X1083056Y1446276D02*
D03*
X1017524Y1455166D02*
D03*
X951992Y1516380D02*
D03*
X577278Y1269428D02*
D03*
X603504Y1294384D02*
D03*
X618998Y1263142D02*
D03*
X566674Y1350264D02*
D03*
X600710Y1300988D02*
D03*
X620268Y1296416D02*
D03*
X609600Y1308862D02*
D03*
X827024Y1274064D02*
D03*
X791210Y1264920D02*
D03*
X840740Y1304798D02*
D03*
X925322Y1344168D02*
D03*
X911606Y1358900D02*
D03*
X852932Y1336684D02*
D03*
X953008Y1307592D02*
D03*
Y1318006D02*
D03*
X959771Y1344930D02*
D03*
X926643Y1368095D02*
D03*
X975868Y1346200D02*
D03*
X943610Y1368552D02*
D03*
X838442Y1431048D02*
D03*
X618236Y1273810D02*
D03*
X549910Y1430020D02*
D03*
X715010Y1345438D02*
D03*
X618490Y1282446D02*
D03*
X659130Y1265682D02*
D03*
X598424Y1321308D02*
D03*
X771652Y1280414D02*
D03*
X754634Y1282700D02*
D03*
X790956Y1299464D02*
D03*
X750824Y1294638D02*
D03*
X754634Y1307846D02*
D03*
X770636Y1316228D02*
D03*
X755396Y1326134D02*
D03*
X726186Y1308862D02*
D03*
X710792Y1280278D02*
D03*
X718312Y1298702D02*
D03*
X691642Y1282446D02*
D03*
X578866Y1421384D02*
D03*
X607338Y1473986D02*
D03*
X743678Y1493520D02*
D03*
X733477Y1338492D02*
D03*
X727456Y1330706D02*
D03*
X564071Y1397508D02*
D03*
X574416Y1378585D02*
D03*
X561848Y1384300D02*
D03*
X549910Y1409954D02*
D03*
X553212Y1389899D02*
D03*
X631085Y1486916D02*
D03*
X568977Y1410699D02*
D03*
X695198Y1506982D02*
D03*
X724266Y1507886D02*
D03*
X743446Y1506220D02*
D03*
X613022Y1417066D02*
D03*
X619252Y1407414D02*
D03*
X628142Y1404112D02*
D03*
X594868Y1423924D02*
D03*
X742343Y1371699D02*
D03*
X582676Y1462532D02*
D03*
X563880Y1467486D02*
D03*
Y1486986D02*
D03*
X547878Y1529080D02*
D03*
X548132Y1510030D02*
D03*
X596900Y1540764D02*
D03*
X775208Y1403858D02*
D03*
X791210Y1414526D02*
D03*
X771652Y1408938D02*
D03*
X825754Y1443990D02*
D03*
X746252Y1500124D02*
D03*
X730758Y1452372D02*
D03*
X723854Y1493520D02*
D03*
X729488Y1469390D02*
D03*
X613588Y1537894D02*
D03*
X663448Y1465834D02*
D03*
X658368Y1462786D02*
D03*
X641096Y1446022D02*
D03*
X645922Y1440942D02*
D03*
X641604Y1452626D02*
D03*
X631444Y1467358D02*
D03*
X632714Y1461516D02*
D03*
X624332Y1452372D02*
D03*
X573278Y1454404D02*
D03*
X744728Y1512824D02*
D03*
X781812Y1523746D02*
D03*
X749808Y1411224D02*
D03*
X869950Y1358900D02*
D03*
Y1391920D02*
D03*
X770890Y1426972D02*
D03*
X773176Y1449324D02*
D03*
X791718Y1429766D02*
D03*
X827024Y1425194D02*
D03*
X808272Y1430572D02*
D03*
X783590Y1445768D02*
D03*
X743712Y1430199D02*
D03*
X784860Y1463294D02*
D03*
X741426Y1456182D02*
D03*
X748030Y1467358D02*
D03*
X740902Y1481296D02*
D03*
X775462Y1494790D02*
D03*
X756666Y1512316D02*
D03*
X758895Y1505401D02*
D03*
X764794Y1532128D02*
D03*
X757936Y1538478D02*
D03*
X857504D02*
D03*
X769620Y1398524D02*
D03*
X789178Y1422400D02*
D03*
X770128Y1416812D02*
D03*
X764286Y1407922D02*
D03*
X757174Y1397254D02*
D03*
X618998Y1524254D02*
D03*
X689864Y1487170D02*
D03*
X676437Y1525986D02*
D03*
X656844Y1534668D02*
D03*
X658114Y1528318D02*
D03*
X602488Y1512570D02*
D03*
X604520Y1524254D02*
D03*
X715010Y1487678D02*
D03*
X712470Y1494028D02*
D03*
X702818Y1502156D02*
D03*
X692404Y1499870D02*
D03*
X682128Y1499986D02*
D03*
X675647Y1486909D02*
D03*
X636974Y1506670D02*
D03*
X664406D02*
D03*
X694690Y1379982D02*
D03*
X676592Y1371854D02*
D03*
X636016Y1342644D02*
D03*
X636524Y1384554D02*
D03*
X679800Y1396889D02*
D03*
X637032Y1410462D02*
D03*
X671576Y1391412D02*
D03*
X658622Y1438656D02*
D03*
X681482Y1385062D02*
D03*
X654050Y1381252D02*
D03*
X648970Y1384554D02*
D03*
X649732Y1398270D02*
D03*
X637286Y1398524D02*
D03*
X665480Y1426464D02*
D03*
X644906Y1492250D02*
D03*
X657352Y1494028D02*
D03*
X663448Y1481582D02*
D03*
X759206Y1389380D02*
D03*
X649478Y1406398D02*
D03*
X649732Y1415542D02*
D03*
X662178Y1411224D02*
D03*
X681482Y1404620D02*
D03*
X675640Y1474724D02*
D03*
X683006Y1467358D02*
D03*
X733176Y1486662D02*
D03*
X723392Y1481328D02*
D03*
X712171Y1462036D02*
D03*
X711200Y1456436D02*
D03*
X768858Y1331722D02*
D03*
X751840Y1339088D02*
D03*
X785622Y1313688D02*
D03*
X749046Y1378204D02*
D03*
X723392Y1393952D02*
D03*
X681736Y1410462D02*
D03*
X740410Y1436116D02*
D03*
X722421Y1387868D02*
D03*
X701294Y1403503D02*
D03*
X749300Y1404874D02*
D03*
X738886Y1403858D02*
D03*
X700874Y1435442D02*
D03*
X696976Y1407668D02*
D03*
X689102Y1389380D02*
D03*
X701802Y1397762D02*
D03*
X733520Y1407580D02*
D03*
X885698Y1331214D02*
D03*
X871728Y1345184D02*
D03*
X866216Y1419428D02*
D03*
X790702Y1525778D02*
D03*
X676910Y1555242D02*
D03*
X655574Y1549400D02*
D03*
X563372Y1513332D02*
D03*
X661670Y1475486D02*
D03*
X642366D02*
D03*
X631190Y1479804D02*
D03*
X687204Y1255910D02*
D03*
X743204Y1276096D02*
D03*
X714774Y1290556D02*
D03*
X688848Y1299718D02*
D03*
X654558Y1290066D02*
D03*
X642198Y1273810D02*
D03*
X643348Y1282412D02*
D03*
X665038Y1317992D02*
D03*
X705358Y1336802D02*
D03*
X657098Y1329182D02*
D03*
X654604Y1306774D02*
D03*
X665480Y1296416D02*
D03*
X648970Y1308862D02*
D03*
X658368Y1322070D02*
D03*
X658622Y1371346D02*
D03*
X630174Y1359408D02*
D03*
X639826Y1347724D02*
D03*
X647700Y1357630D02*
D03*
X643890Y1327658D02*
D03*
X648970Y1363472D02*
D03*
X641858Y1334516D02*
D03*
X660908Y1357884D02*
D03*
X656590Y1336294D02*
D03*
X706628Y1300480D02*
D03*
X709676Y1312926D02*
D03*
X750824Y1359408D02*
D03*
X684276Y1378204D02*
D03*
X690372Y1360932D02*
D03*
X739902Y1353058D02*
D03*
X751840Y1345184D02*
D03*
X745236Y1356106D02*
D03*
X739648Y1385316D02*
D03*
X722376Y1382268D02*
D03*
X721106Y1376172D02*
D03*
X696976Y1350010D02*
D03*
X698754Y1293114D02*
D03*
X700786Y1314704D02*
D03*
X753618Y1364742D02*
D03*
X738632Y1359662D02*
D03*
X718756Y1364959D02*
D03*
X709930Y1349502D02*
D03*
X690118Y1335532D02*
D03*
X671322Y1334770D02*
D03*
X582676Y1397762D02*
D03*
X623570Y1430782D02*
D03*
X604012Y1426972D02*
D03*
X602996Y1407414D02*
D03*
X636524Y1371600D02*
D03*
X617804Y1356690D02*
D03*
X585978Y1382299D02*
D03*
X621030Y1372108D02*
D03*
X620014Y1395984D02*
D03*
X609092Y1391666D02*
D03*
X591820Y1377950D02*
D03*
X602996Y1376680D02*
D03*
X604774Y1369568D02*
D03*
X618998Y1378458D02*
D03*
X647954Y1294892D02*
D03*
X636524Y1295400D02*
D03*
X637540Y1302258D02*
D03*
X713994Y1431036D02*
D03*
X699022Y1413751D02*
D03*
X691642Y1427480D02*
D03*
X692097Y1418602D02*
D03*
X698006Y1419351D02*
D03*
X719582Y1426718D02*
D03*
X732536Y1417828D02*
D03*
X720598Y1416050D02*
D03*
X798322Y1243076D02*
D03*
X732028Y1272540D02*
D03*
X731786Y1307732D02*
D03*
X733500Y1295452D02*
D03*
X726428Y1271260D02*
D03*
X731774Y1261872D02*
D03*
X749808Y1251966D02*
D03*
X563880Y1262912D02*
D03*
Y1275912D02*
D03*
X592074Y1290320D02*
D03*
X573786Y1285240D02*
D03*
X577850Y1295654D02*
D03*
X601472Y1279652D02*
D03*
X595630Y1272540D02*
D03*
X582402Y1262106D02*
D03*
X764540Y1246124D02*
D03*
X900430Y1379728D02*
D03*
X858520Y1437386D02*
D03*
X853396Y1441406D02*
D03*
X853694Y1424940D02*
D03*
X1143000Y1360424D02*
D03*
X1084580D02*
D03*
X1126490Y1364234D02*
D03*
X1050544Y1417066D02*
D03*
X1079456Y1366564D02*
D03*
D45*
X1177290Y1268730D02*
D03*
X1296162Y1268984D02*
D03*
X1320516Y1277082D02*
D03*
Y1305844D02*
D03*
X1266190Y1325118D02*
D03*
X1175512Y1322324D02*
D03*
X1112520Y1280668D02*
D03*
X1253084Y1315618D02*
D03*
X1199540D02*
D03*
X1009650Y1436914D02*
D03*
Y1514602D02*
D03*
X891286Y1506982D02*
D03*
X1199540Y1350874D02*
D03*
X1202648Y1367536D02*
D03*
X584350Y1328016D02*
D03*
X577342Y1430274D02*
D03*
X929279Y1454551D02*
D03*
X899414Y1480820D02*
D03*
X969279Y1413749D02*
D03*
X940308Y1441958D02*
D03*
X1010920Y1386840D02*
D03*
X860552Y1336294D02*
D03*
X799926Y1272874D02*
D03*
X812800Y1250442D02*
D03*
X576072Y1308608D02*
D03*
X549494Y1301912D02*
D03*
X781812Y1287780D02*
D03*
X764032Y1299972D02*
D03*
X761492Y1314450D02*
D03*
X718058Y1313180D02*
D03*
X1020071Y1361955D02*
D03*
X611886Y1457198D02*
D03*
X691538Y1532486D02*
D03*
X583946Y1505712D02*
D03*
Y1520190D02*
D03*
X575564Y1532128D02*
D03*
X695960Y1467104D02*
D03*
X689102Y1449070D02*
D03*
X846074Y1419098D02*
D03*
X713444Y1333886D02*
D03*
X770890Y1339342D02*
D03*
X693570Y1328016D02*
D03*
X601980Y1434592D02*
D03*
X1086714Y1350874D02*
D03*
X1078992Y1291590D02*
D03*
X1066038Y1352042D02*
D03*
X1040384Y1365504D02*
D03*
X1060450Y1386840D02*
D03*
X1080450Y1396426D02*
D03*
M02*
